<svg xmlns="http://www.w3.org/2000/svg" xmlns:xlink="http://www.w3.org/1999/xlink" viewBox="0 0 574 427.244"><defs><style>.a,.e{fill:#66caf2;}.a,.b,.d,.k{opacity:0.1;}.c{fill:#3f3d56;}.f{fill:#5e90ff;}.g{fill:#e62153;}.h{fill:url(#a);}.i{fill:#be6f72;}.j{fill:#ff6f61;}.k{fill:none;stroke:#000;stroke-miterlimit:10;}</style><linearGradient id="a" x1="0.5" y1="1" x2="0.5" gradientUnits="objectBoundingBox"><stop offset="0" stop-color="gray" stop-opacity="0.251"/><stop offset="0.54" stop-color="gray" stop-opacity="0.122"/><stop offset="1" stop-color="gray" stop-opacity="0.102"/></linearGradient></defs><g transform="translate(0)"><path class="a" d="M932.083,154.073a16.255,16.255,0,0,0-9.432,1.029,13.9,13.9,0,0,1-11.328-.028,15.9,15.9,0,0,0-13.319.259,8.234,8.234,0,0,1-3.836.962c-5.4,0-9.894-5.439-10.827-12.616a10.451,10.451,0,0,0,2.7-2.914c3.167-5.1,8.071-8.375,13.578-8.375s10.349,3.234,13.5,8.285a10.423,10.423,0,0,0,9,4.927h.141C926.52,145.6,930.244,149.045,932.083,154.073Z" transform="translate(-437.042 -97.36)"/><path class="a" d="M948.494,115.961l-8.729,5.54,5.3-9.641a8.662,8.662,0,0,0-5.282-1.884h-.141a10.216,10.216,0,0,1-1.811-.129l-2.947,1.873,1.271-2.306a10.507,10.507,0,0,1-5.175-3.937l-5.3,3.375,3.375-6.08a15.506,15.506,0,0,0-11.862-6c-5.506,0-10.411,3.279-13.578,8.381a10.125,10.125,0,0,1-9,4.837h-.3c-6.08,0-11.007,6.9-11.007,15.395s4.888,15.389,10.991,15.389a8.28,8.28,0,0,0,3.836-.956,15.873,15.873,0,0,1,13.319-.264,13.9,13.9,0,0,0,11.328.028,15.912,15.912,0,0,1,13.207.253,8.24,8.24,0,0,0,3.791.939c6.08,0,11.007-6.89,11.007-15.395A19.549,19.549,0,0,0,948.494,115.961Z" transform="translate(-437.029 -81.775)"/><g class="b" transform="translate(34.061 95.677)"><path class="c" d="M218.26,716.407v3.555a13.235,13.235,0,1,0,26.47,0v-3.527a13.235,13.235,0,0,0-26.47,0Z" transform="translate(-179.966 -442.892)"/><path class="c" d="M244.73,613.237V609.7a13.235,13.235,0,0,0-26.47,0v3.527a13,13,0,0,0,.562,3.825,13.229,13.229,0,0,0,25.873-3.825Z" transform="translate(-179.966 -396.194)"/><path class="c" d="M218.26,663.045v3.532a13.235,13.235,0,1,0,26.47,0v-3.532a13.235,13.235,0,0,0-26.47,0Z" transform="translate(-179.966 -419.532)"/><path class="c" d="M231.495,756.48a13.274,13.274,0,0,0-13.235,13.229v3.527a13.235,13.235,0,0,0,26.47,0v-3.527a13.268,13.268,0,0,0-13.235-13.229Z" transform="translate(-179.966 -466.204)"/><path class="d" d="M245.193,620.61V623.8a13.229,13.229,0,0,1-25.873,3.825Z" transform="translate(-180.43 -406.756)"/><path class="d" d="M245.193,674v3.189a13.229,13.229,0,0,1-25.873,3.825Z" transform="translate(-180.429 -430.116)"/><path class="d" d="M245.193,727.28V730.5a13.229,13.229,0,0,1-25.873,3.825Z" transform="translate(-180.429 -453.428)"/><path class="d" d="M245.193,780.61V783.8a13.229,13.229,0,0,1-25.873,3.825Z" transform="translate(-180.429 -476.762)"/><path class="c" d="M307.363,673.029l-1.057.816a5,5,0,0,1-7.121-6.868,4.834,4.834,0,0,1,1.012-1.052l1.057-.816a5,5,0,0,1,6.108,7.919Z" transform="translate(-214.965 -425.771)"/><path class="c" d="M285.216,677.44l-1.052.816a5,5,0,1,0,6.108,7.914l1.052-.81a5,5,0,0,0-6.108-7.92Z" transform="translate(-207.903 -431.165)"/><path class="c" d="M269.261,689.746l-1.057.81a5,5,0,1,0,6.108,7.914l1.057-.81a5,5,0,0,0-6.108-7.92Z" transform="translate(-200.92 -436.547)"/><path class="c" d="M253.387,702l-1.052.81a5,5,0,0,0,6.108,7.919l1.052-.816A5,5,0,1,0,253.387,702Z" transform="translate(-194.023 -441.873)"/><path class="d" d="M307.262,675.391l-.956.737a5,5,0,0,1-7.121-6.868Z" transform="translate(-214.965 -428.042)"/><path class="d" d="M291.351,687.7l-.951.731a5,5,0,0,1-7.1-6.862Z" transform="translate(-208.031 -433.428)"/><path class="d" d="M275.359,700.005l-.956.737a5,5,0,0,1-7.121-6.862Z" transform="translate(-201.011 -438.814)"/><path class="e" d="M237.884,323.335a15,15,0,0,1,0,30,15,15,0,1,1,0,30,15,15,0,0,1,0,29.993,15,15,0,0,1,0,30h-72.35a15,15,0,0,1,0-30,15,15,0,1,1,0-30,15,15,0,1,1,0-29.993,15,15,0,0,1,0-30,15,15,0,1,1,0-30,15,15,0,1,1,0-29.993h3.307c1.9-12.9,16.48-22.943,34.192-22.943s32.291,10.04,34.192,22.943h.658a15,15,0,1,1,0,30,15,15,0,0,1,0,29.993Z" transform="translate(-150.177 -240.4)"/><path class="d" d="M264.825,296.191a15.04,15.04,0,0,1-15,15H177.48l71.905-30h.444a15.04,15.04,0,0,1,15,15Z" transform="translate(-162.123 -258.247)"/><path class="d" d="M151.6,349.521a15.04,15.04,0,0,0,15,15h72.344l-71.905-30H166.6A15.046,15.046,0,0,0,151.6,349.521Z" transform="translate(-150.8 -281.581)"/><path class="d" d="M151.6,456.185a15.046,15.046,0,0,0,15,15h72.344l-71.905-30H166.6A15.04,15.04,0,0,0,151.6,456.185Z" transform="translate(-150.8 -328.253)"/><path class="d" d="M151.6,562.851a15.046,15.046,0,0,0,15,15h72.344l-71.905-30H166.6A15.046,15.046,0,0,0,151.6,562.851Z" transform="translate(-150.8 -374.921)"/><path class="d" d="M264.825,402.851a15.04,15.04,0,0,1-15,15H177.48l71.905-30h.444a15.04,15.04,0,0,1,15,15Z" transform="translate(-162.123 -304.915)"/><path class="d" d="M264.825,509.521a15.04,15.04,0,0,1-15,15H177.48l71.905-30h.444a15.04,15.04,0,0,1,15,15Z" transform="translate(-162.123 -351.587)"/><path class="e" d="M296.877,679.94l-23.826-12.824a5.625,5.625,0,1,1,5.321-9.877,5.625,5.625,0,1,1,5.315-9.877l1.091.562c2.914-3.937,9.489-4.635,15.322-1.5s8.859,9.033,7.194,13.617l.219.118a5.625,5.625,0,0,1-5.3,9.91,5.625,5.625,0,1,1-5.338,9.866Z" transform="translate(-202.483 -417.191)"/><path class="d" d="M316.559,677.735a5.625,5.625,0,0,1-7.6,2.289L285.14,667.2l28.995,2.869.146.079A5.625,5.625,0,0,1,316.559,677.735Z" transform="translate(-209.228 -427.141)"/><path class="d" d="M271.371,669.079a5.625,5.625,0,0,0,2.278,7.6L297.475,689.5,279.111,666.88l-.141-.079A5.625,5.625,0,0,0,271.371,669.079Z" transform="translate(-202.912 -426.674)"/></g><g class="b" transform="translate(212.197 150.877)"><path class="c" d="M551.771,729.026v2.9a10.855,10.855,0,0,1-21.711,0v-2.9a10.855,10.855,0,1,1,21.711,0Z" transform="translate(-494.587 -504.642)"/><path class="c" d="M530.06,644.43v-2.874a10.856,10.856,0,0,1,21.711,0v2.891a10.73,10.73,0,0,1-.467,3.139,10.85,10.85,0,0,1-21.244-3.139Z" transform="translate(-494.587 -466.371)"/><path class="c" d="M551.771,685.276v2.9a10.855,10.855,0,1,1-21.711,0v-2.9a10.855,10.855,0,1,1,21.711,0Z" transform="translate(-494.587 -485.5)"/><path class="c" d="M540.916,761.92a10.889,10.889,0,0,1,10.855,10.861v2.891a10.855,10.855,0,0,1-21.711,0v-2.891a10.889,10.889,0,0,1,10.855-10.861Z" transform="translate(-494.587 -523.784)"/><path class="d" d="M530.06,650.46v2.616a10.85,10.85,0,0,0,21.244,3.139Z" transform="translate(-494.587 -475.016)"/><path class="d" d="M530.06,694.21v2.621A10.856,10.856,0,0,0,551.3,699.97Z" transform="translate(-494.587 -494.159)"/><path class="d" d="M530.06,738v2.615a10.856,10.856,0,0,0,21.244,3.139Z" transform="translate(-494.587 -513.318)"/><path class="d" d="M530.06,781.72v2.615A10.85,10.85,0,0,0,551.3,787.5Z" transform="translate(-494.587 -532.447)"/><path class="c" d="M488.518,693.486l.866.664a4.1,4.1,0,0,0,5.838-5.625,4.014,4.014,0,0,0-.827-.866l-.866-.664a4.1,4.1,0,0,0-5.012,6.5Z" transform="translate(-475.712 -490.628)"/><path class="c" d="M506.619,697.075l.866.669a4.1,4.1,0,0,1-5.012,6.5l-.866-.669a4.1,4.1,0,0,1,5.012-6.5Z" transform="translate(-481.439 -495.038)"/><path class="c" d="M519.7,707.175l.866.669a4.1,4.1,0,1,1-5.012,6.5l-.866-.669a4.1,4.1,0,1,1,5.011-6.5Z" transform="translate(-487.162 -499.458)"/><path class="c" d="M532.781,717.275l.866.669a4.1,4.1,0,1,1-5.011,6.5l-.877-.669a4.1,4.1,0,1,1,5.012-6.5Z" transform="translate(-492.881 -503.877)"/><path class="d" d="M489.9,695.4l.787.6a4.1,4.1,0,0,0,5.838-5.625Z" transform="translate(-477.015 -492.483)"/><path class="d" d="M503,705.5l.787.6a4.1,4.1,0,0,0,5.838-5.625Z" transform="translate(-482.747 -496.902)"/><path class="d" d="M516.08,715.6l.782.6a4.1,4.1,0,0,0,5.844-5.625Z" transform="translate(-488.47 -501.321)"/><path class="e" d="M486.776,406.581a12.305,12.305,0,1,0,0,24.611,12.307,12.307,0,1,0,0,24.6,12.307,12.307,0,1,0,0,24.613,12.305,12.305,0,1,0,0,24.611l59.351,0a12.305,12.305,0,1,0,0-24.611,12.306,12.306,0,1,0,0-24.612,12.307,12.307,0,1,0,0-24.606,12.305,12.305,0,1,0,0-24.611,12.306,12.306,0,1,0,0-24.612,12.307,12.307,0,1,0,0-24.606h-2.711c-1.558-10.586-13.5-18.82-28.05-18.82s-26.492,8.234-28.05,18.82h-.562a12.305,12.305,0,1,0,0,24.611,12.306,12.306,0,1,0,0,24.612Z" transform="translate(-470.123 -338.54)"/><path class="d" d="M474.72,384.3a12.34,12.34,0,0,0,12.307,12.307h59.351L487.387,372h-.36A12.34,12.34,0,0,0,474.72,384.3Z" transform="translate(-470.374 -353.18)"/><path class="d" d="M567.635,428.057a12.374,12.374,0,0,1-12.307,12.307H496l59-24.613h.36A12.374,12.374,0,0,1,567.635,428.057Z" transform="translate(-479.684 -372.322)"/><path class="d" d="M567.635,515.562a12.34,12.34,0,0,1-12.307,12.3H496l59-24.608h.36A12.34,12.34,0,0,1,567.635,515.562Z" transform="translate(-479.684 -410.607)"/><path class="d" d="M567.635,603.077a12.34,12.34,0,0,1-12.307,12.3H496l59-24.608h.36A12.34,12.34,0,0,1,567.635,603.077Z" transform="translate(-479.684 -448.9)"/><path class="d" d="M474.72,471.811a12.34,12.34,0,0,0,12.307,12.307h59.351L487.387,459.51h-.36A12.34,12.34,0,0,0,474.72,471.811Z" transform="translate(-470.374 -391.469)"/><path class="d" d="M474.72,559.312a12.374,12.374,0,0,0,12.307,12.307h59.351L487.387,547h-.36A12.374,12.374,0,0,0,474.72,559.312Z" transform="translate(-470.374 -429.749)"/><path class="e" d="M478.139,699.154l19.546-10.524a4.6,4.6,0,1,0-4.365-8.105,4.6,4.6,0,0,0-4.359-8.105l-.894.484c-2.39-3.212-7.79-3.8-12.577-1.226s-7.261,7.408-5.9,11.17l-.174.1a4.6,4.6,0,1,0,4.359,8.1,4.6,4.6,0,0,0,4.365,8.105Z" transform="translate(-466.992 -483.595)"/><path class="d" d="M467.577,697.271a4.618,4.618,0,0,0,6.232,1.873l19.546-10.524-23.787,2.357-.118.062A4.618,4.618,0,0,0,467.577,697.271Z" transform="translate(-467.01 -491.713)"/><path class="d" d="M508.013,690.22a4.612,4.612,0,0,1-1.867,6.232L486.6,706.976l15.063-18.561.118-.067A4.618,4.618,0,0,1,508.013,690.22Z" transform="translate(-475.572 -491.355)"/></g><g class="b" transform="translate(157.109 327.84)"><path class="c" d="M393.294,764.992v.838a3.116,3.116,0,0,1-6.226,0V765a3.116,3.116,0,1,1,6.226,0Z" transform="translate(-376.912 -700.674)"/><path class="c" d="M387.07,740.932V740.1a3.116,3.116,0,0,1,6.226,0v.832a3.007,3.007,0,0,1-.135.9,3.11,3.11,0,0,1-6.091-.9Z" transform="translate(-376.914 -689.894)"/><path class="c" d="M393.294,752.473v.827a3.116,3.116,0,0,1-6.226,0v-.827a3.116,3.116,0,1,1,6.226,0Z" transform="translate(-376.912 -695.192)"/><path class="c" d="M390.184,774.51a3.122,3.122,0,0,1,3.11,3.116v.827a3.116,3.116,0,1,1-6.227,0v-.827A3.122,3.122,0,0,1,390.184,774.51Z" transform="translate(-376.912 -706.255)"/><path class="d" d="M387.07,742.57v.748a3.11,3.11,0,0,0,6.091.9Z" transform="translate(-376.914 -692.28)"/><path class="d" d="M387.07,755.11v.748a3.11,3.11,0,0,0,6.091.877Z" transform="translate(-376.914 -697.767)"/><path class="d" d="M387.07,767.65v.759a3.11,3.11,0,0,0,6.091.9Z" transform="translate(-376.914 -703.254)"/><path class="d" d="M387.07,780.19v.748a3.11,3.11,0,0,0,6.091.9Z" transform="translate(-376.914 -708.74)"/><path class="c" d="M375.173,754.89l.247.2a1.176,1.176,0,0,0,1.687-1.614,1.121,1.121,0,0,0-.236-.253l-.247-.191a1.177,1.177,0,1,0-1.44,1.862Z" transform="translate(-371.514 -696.749)"/><path class="c" d="M380.355,755.929l.247.191a1.176,1.176,0,1,1-1.434,1.862l-.253-.191a1.177,1.177,0,0,1,1.44-1.862Z" transform="translate(-373.146 -698.018)"/><path class="c" d="M384.128,758.826l.247.191a1.175,1.175,0,1,1-1.434,1.862l-.247-.191a1.176,1.176,0,0,1,1.434-1.862Z" transform="translate(-374.811 -699.294)"/><path class="c" d="M387.878,761.735l.247.191a1.176,1.176,0,1,1-1.434,1.862l-.247-.191a1.176,1.176,0,0,1,1.434-1.862Z" transform="translate(-376.451 -700.567)"/><path class="d" d="M375.56,755.45l.225.174a1.175,1.175,0,0,0,1.687-1.614Z" transform="translate(-371.878 -697.286)"/><path class="d" d="M379.32,758.34l.225.174a1.176,1.176,0,0,0,1.687-1.614Z" transform="translate(-373.523 -698.55)"/><path class="d" d="M383.07,761.236l.225.169a1.176,1.176,0,0,0,1.648-.208,1.192,1.192,0,0,0,0-1.406Z" transform="translate(-375.164 -699.815)"/><path class="e" d="M374.737,672.661a3.527,3.527,0,1,0,0,7.053,3.532,3.532,0,0,0,0,7.059,3.527,3.527,0,1,0,0,7.053,3.527,3.527,0,1,0,0,7.053h17.015a3.527,3.527,0,1,0,0-7.053,3.527,3.527,0,1,0,0-7.053,3.532,3.532,0,0,0,0-7.059,3.527,3.527,0,1,0,0-7.053,3.527,3.527,0,0,0,0-7.053,3.527,3.527,0,1,0,0-7.053h-.776c-.45-3.032-3.875-5.394-8.043-5.394s-7.593,2.362-8.038,5.394h-.158a3.527,3.527,0,1,0,0,7.053,3.527,3.527,0,1,0,0,7.053Z" transform="translate(-369.975 -653.16)"/><path class="d" d="M371.21,666.257a3.538,3.538,0,0,0,3.527,3.527h17.014l-16.908-7.053h-.107A3.538,3.538,0,0,0,371.21,666.257Z" transform="translate(-369.975 -657.347)"/><path class="d" d="M397.841,678.817a3.538,3.538,0,0,1-3.527,3.527H377.3l16.908-7.053h.107a3.538,3.538,0,0,1,3.527,3.527Z" transform="translate(-372.639 -662.843)"/><path class="d" d="M397.841,703.9a3.543,3.543,0,0,1-3.527,3.527H377.3l16.908-7.059h.107a3.543,3.543,0,0,1,3.527,3.532Z" transform="translate(-372.639 -673.816)"/><path class="d" d="M397.841,728.987a3.538,3.538,0,0,1-3.527,3.527H377.3l16.908-7.053h.107a3.538,3.538,0,0,1,3.527,3.527Z" transform="translate(-372.639 -684.794)"/><path class="d" d="M371.21,691.357a3.538,3.538,0,0,0,3.527,3.527h17.014l-16.908-7.053h-.107A3.538,3.538,0,0,0,371.21,691.357Z" transform="translate(-369.975 -668.329)"/><path class="d" d="M371.21,716.447a3.538,3.538,0,0,0,3.527,3.527h17.014l-16.908-7.053h-.107a3.538,3.538,0,0,0-3.527,3.527Z" transform="translate(-369.975 -679.307)"/><path class="e" d="M372.711,756.492l5.625-3.02a2.936,2.936,0,0,1-.714-4.106,1.316,1.316,0,0,0-1.789-.563l-.253.135a2.849,2.849,0,0,0-3.605-.349c-1.356.742-2.081,2.12-1.687,3.2h-.051a2.936,2.936,0,0,1,.714,4.106A1.322,1.322,0,0,0,372.711,756.492Z" transform="translate(-369.524 -694.711)"/><path class="d" d="M369.164,756.012a1.322,1.322,0,0,0,1.789.563l5.625-3.015-6.817.669h-.034A1.322,1.322,0,0,0,369.164,756.012Z" transform="translate(-369.014 -697.089)"/><path class="d" d="M380.739,753.966a1.327,1.327,0,0,1-.534,1.789l-5.625,3.015,4.314-5.321h.034a1.327,1.327,0,0,1,1.811.518Z" transform="translate(-371.449 -696.966)"/></g><g class="b" transform="translate(304.604 290.29)"><path class="c" d="M668.235,756.557v1.266a4.73,4.73,0,0,1-9.455,0v-1.266a4.73,4.73,0,0,1,9.455,0Z" transform="translate(-643.332 -658.852)"/><path class="c" d="M658.778,719.459v-1.266a4.73,4.73,0,1,1,9.455,0v1.26a4.593,4.593,0,0,1-.208,1.366,4.725,4.725,0,0,1-9.247-1.366Z" transform="translate(-643.33 -641.923)"/><path class="c" d="M668.233,737.507v1.26a4.73,4.73,0,1,1-9.455,0v-1.26a4.73,4.73,0,0,1,9.455,0Z" transform="translate(-643.33 -650.517)"/><path class="c" d="M663.5,770.76a4.747,4.747,0,0,1,4.73,4.73v1.26a4.73,4.73,0,0,1-9.455,0v-1.26A4.742,4.742,0,0,1,663.5,770.76Z" transform="translate(-643.332 -667.064)"/><path class="d" d="M658.78,722.23v1.125a4.725,4.725,0,0,0,9.247,1.367Z" transform="translate(-643.332 -645.831)"/><path class="d" d="M658.78,741.28v1.125a4.725,4.725,0,0,0,9.247,1.367Z" transform="translate(-643.332 -654.166)"/><path class="d" d="M658.78,760.33v1.125a4.725,4.725,0,0,0,9.247,1.361Z" transform="translate(-643.332 -662.501)"/><path class="d" d="M658.78,779.38v1.125a4.725,4.725,0,0,0,9.247,1.367Z" transform="translate(-643.332 -670.836)"/><path class="c" d="M640.579,740.867l.377.287A1.783,1.783,0,0,0,643.5,738.7a2.06,2.06,0,0,0-.36-.377l-.377-.287a1.789,1.789,0,1,0-2.182,2.812Z" transform="translate(-635.002 -652.533)"/><path class="c" d="M648.461,742.428l.377.292a1.789,1.789,0,0,1-2.182,2.812l-.377-.293a1.789,1.789,0,1,1,2.182-2.812Z" transform="translate(-637.496 -654.453)"/><path class="c" d="M654.161,746.828l.377.293a1.789,1.789,0,0,1-2.182,2.812l-.377-.292a1.789,1.789,0,1,1,2.182-2.812Z" transform="translate(-639.99 -656.378)"/><path class="c" d="M659.861,751.233l.377.292a1.783,1.783,0,0,1-2.182,2.812l-.377-.287a1.789,1.789,0,1,1,2.182-2.812Z" transform="translate(-642.484 -658.308)"/><path class="d" d="M641.29,741.794l.343.259a1.783,1.783,0,0,0,2.542-2.452Z" transform="translate(-635.679 -653.431)"/><path class="d" d="M647,746.188l.343.264A1.783,1.783,0,0,0,649.885,744Z" transform="translate(-638.178 -655.356)"/><path class="d" d="M652.69,750.588l.343.264a1.783,1.783,0,0,0,2.542-2.452Z" transform="translate(-640.667 -657.281)"/><path class="e" d="M639.71,616.031a5.36,5.36,0,1,0,0,10.687,5.36,5.36,0,1,0,0,10.687,5.36,5.36,0,1,0,0,10.715,5.36,5.36,0,1,0,0,10.721h25.845a5.36,5.36,0,0,0,0-10.721,5.36,5.36,0,0,0,0-10.715,5.36,5.36,0,0,0,0-10.687,5.36,5.36,0,0,0,0-10.687,5.36,5.36,0,0,0,0-10.715,5.36,5.36,0,1,0,0-10.721h-1.181c-.681-4.607-5.889-8.2-12.217-8.2s-11.536,3.589-12.217,8.2h-.231a5.36,5.36,0,1,0,0,10.72,5.36,5.36,0,1,0,0,10.715Z" transform="translate(-632.456 -586.4)"/><path class="d" d="M634.68,606.343a5.377,5.377,0,0,0,5.36,5.36h25.845L640.2,601h-.157A5.377,5.377,0,0,0,634.68,606.343Z" transform="translate(-632.787 -592.788)"/><path class="d" d="M675.108,625.371a5.377,5.377,0,0,1-5.355,5.36H643.88L669.6,620h.157A5.371,5.371,0,0,1,675.108,625.371Z" transform="translate(-636.813 -601.101)"/><path class="d" d="M675.108,663.512a5.377,5.377,0,0,1-5.355,5.355H643.88l25.688-10.687h.158A5.377,5.377,0,0,1,675.108,663.512Z" transform="translate(-636.813 -617.806)"/><path class="d" d="M675.108,701.59a5.377,5.377,0,0,1-5.355,5.36H643.88l25.688-10.721h.158A5.377,5.377,0,0,1,675.108,701.59Z" transform="translate(-636.813 -634.455)"/><path class="d" d="M634.68,644.457a5.377,5.377,0,0,0,5.36,5.36h25.845L640.2,639.13h-.157a5.372,5.372,0,0,0-5.36,5.327Z" transform="translate(-632.787 -609.471)"/><path class="d" d="M634.68,682.54a5.371,5.371,0,0,0,5.36,5.355h25.845L640.2,677.18h-.158A5.377,5.377,0,0,0,634.68,682.54Z" transform="translate(-632.787 -626.12)"/><path class="e" d="M636.92,743.424l8.516-4.584a4.5,4.5,0,0,1-1.086-6.243,2.014,2.014,0,0,0-2.717-.81l-.388.208c-1.04-1.4-3.375-1.654-5.473-.562s-3.167,3.223-2.57,4.865l-.079.039a4.5,4.5,0,0,1,1.086,6.243,2,2,0,0,0,2.711.844Z" transform="translate(-632.069 -649.56)"/><path class="d" d="M631.554,742.629a2.014,2.014,0,0,0,2.717.81l8.51-4.578-10.36,1.024-.051.028A2.008,2.008,0,0,0,631.554,742.629Z" transform="translate(-631.315 -653.107)"/><path class="d" d="M649.176,739.553a2,2,0,0,1-.816,2.711l-8.51,4.584,6.558-8.06.056-.028a2,2,0,0,1,2.711.793Z" transform="translate(-635.049 -652.956)"/></g><g class="b" transform="translate(358.411 327.84)"><path class="c" d="M742.858,764.992v.838a3.116,3.116,0,0,0,6.227,0V765a3.116,3.116,0,1,0-6.227,0Z" transform="translate(-733.937 -700.674)"/><path class="c" d="M749.087,740.931V740.1a3.116,3.116,0,0,0-6.227,0v.833a3.007,3.007,0,0,0,.135.9,3.11,3.11,0,0,0,6.092-.9Z" transform="translate(-733.939 -689.893)"/><path class="c" d="M742.858,752.473v.827a3.116,3.116,0,0,0,6.227,0v-.827a3.116,3.116,0,1,0-6.227,0Z" transform="translate(-733.937 -695.192)"/><path class="c" d="M745.968,774.51a3.122,3.122,0,0,0-3.11,3.116v.827a3.116,3.116,0,1,0,6.226,0v-.827A3.122,3.122,0,0,0,745.968,774.51Z" transform="translate(-733.937 -706.255)"/><path class="d" d="M749.191,742.57v.748a3.11,3.11,0,0,1-6.091.9Z" transform="translate(-734.044 -692.28)"/><path class="d" d="M749.191,755.11v.748a3.11,3.11,0,0,1-6.091.877Z" transform="translate(-734.044 -697.767)"/><path class="d" d="M749.191,767.65v.759a3.11,3.11,0,0,1-6.091.9Z" transform="translate(-734.044 -703.254)"/><path class="d" d="M749.191,780.19v.748a3.11,3.11,0,0,1-6.091.9Z" transform="translate(-734.044 -708.74)"/><path class="c" d="M763.79,754.89l-.247.2a1.176,1.176,0,0,1-1.687-1.614,1.127,1.127,0,0,1,.236-.253l.247-.191a1.177,1.177,0,0,1,1.44,1.862Z" transform="translate(-742.146 -696.749)"/><path class="c" d="M758.641,755.929l-.247.191a1.176,1.176,0,0,0,1.434,1.862l.253-.191a1.177,1.177,0,1,0-1.44-1.862Z" transform="translate(-740.547 -698.018)"/><path class="c" d="M754.873,758.825l-.247.191a1.175,1.175,0,1,0,1.434,1.862l.247-.191a1.176,1.176,0,0,0-1.434-1.862Z" transform="translate(-738.888 -699.294)"/><path class="c" d="M751.142,761.735l-.247.191a1.176,1.176,0,0,0,1.434,1.862l.247-.191a1.176,1.176,0,0,0-1.434-1.862Z" transform="translate(-737.266 -700.567)"/><path class="d" d="M763.768,755.45l-.225.174a1.176,1.176,0,0,1-1.687-1.614Z" transform="translate(-742.146 -697.286)"/><path class="d" d="M760.008,758.34l-.225.174A1.175,1.175,0,0,1,758.1,756.9Z" transform="translate(-740.501 -698.55)"/><path class="d" d="M756.295,761.236l-.225.169a1.176,1.176,0,0,1-1.648-.208,1.192,1.192,0,0,1,0-1.406Z" transform="translate(-738.898 -699.815)"/><path class="e" d="M747.541,672.661a3.527,3.527,0,1,1,0,7.053,3.532,3.532,0,0,1,0,7.059,3.527,3.527,0,0,1,0,7.053,3.527,3.527,0,1,1,0,7.053H730.527a3.527,3.527,0,1,1,0-7.053,3.527,3.527,0,1,1,0-7.053,3.532,3.532,0,0,1,0-7.059,3.527,3.527,0,1,1,0-7.053,3.527,3.527,0,1,1,0-7.053,3.527,3.527,0,1,1,0-7.053h.776c.45-3.032,3.875-5.394,8.043-5.394s7.593,2.362,8.038,5.394h.158a3.527,3.527,0,1,1,0,7.053,3.527,3.527,0,1,1,0,7.053Z" transform="translate(-727 -653.16)"/><path class="d" d="M753.811,666.257a3.538,3.538,0,0,1-3.527,3.527H733.27l16.908-7.053h.107A3.538,3.538,0,0,1,753.811,666.257Z" transform="translate(-729.743 -657.347)"/><path class="d" d="M727.18,678.817a3.538,3.538,0,0,0,3.527,3.527h17.015l-16.908-7.053h-.107A3.538,3.538,0,0,0,727.18,678.817Z" transform="translate(-727.079 -662.843)"/><path class="d" d="M727.18,703.9a3.543,3.543,0,0,0,3.527,3.527h17.014l-16.908-7.059h-.107a3.544,3.544,0,0,0-3.527,3.532Z" transform="translate(-727.079 -673.816)"/><path class="d" d="M727.18,728.987a3.538,3.538,0,0,0,3.527,3.527h17.015l-16.908-7.053h-.107A3.538,3.538,0,0,0,727.18,728.987Z" transform="translate(-727.079 -684.794)"/><path class="d" d="M753.811,691.357a3.538,3.538,0,0,1-3.527,3.527H733.27l16.908-7.053h.107A3.538,3.538,0,0,1,753.811,691.357Z" transform="translate(-729.743 -668.329)"/><path class="d" d="M753.811,716.447a3.538,3.538,0,0,1-3.527,3.527H733.27l16.908-7.053h.107a3.538,3.538,0,0,1,3.527,3.527Z" transform="translate(-729.743 -679.307)"/><path class="e" d="M761.945,756.492l-5.625-3.02a2.936,2.936,0,0,0,.714-4.106,1.316,1.316,0,0,1,1.789-.563l.253.135a2.849,2.849,0,0,1,3.605-.349c1.356.742,2.081,2.12,1.687,3.2h.051a2.936,2.936,0,0,0-.714,4.106A1.322,1.322,0,0,1,761.945,756.492Z" transform="translate(-739.829 -694.711)"/><path class="d" d="M765.975,756.012a1.322,1.322,0,0,1-1.789.563l-5.6-3.015,6.817.669h.034A1.322,1.322,0,0,1,765.975,756.012Z" transform="translate(-740.822 -697.089)"/><path class="d" d="M755.349,753.966a1.327,1.327,0,0,0,.534,1.789l5.625,3.015-4.314-5.321h-.034a1.327,1.327,0,0,0-1.811.518Z" transform="translate(-739.335 -696.966)"/></g><g class="b" transform="translate(450.874 146.94)"><path class="c" d="M947.34,722.026v2.9a10.855,10.855,0,1,0,21.711,0v-2.9a10.855,10.855,0,0,0-21.711,0Z" transform="translate(-915.919 -497.642)"/><path class="c" d="M969.051,637.43v-2.874a10.855,10.855,0,0,0-21.711,0v2.891a10.725,10.725,0,0,0,.467,3.138,10.85,10.85,0,0,0,21.244-3.138Z" transform="translate(-915.919 -459.371)"/><path class="c" d="M947.34,678.276v2.9a10.855,10.855,0,0,0,21.711,0v-2.9a10.855,10.855,0,1,0-21.711,0Z" transform="translate(-915.919 -478.5)"/><path class="c" d="M958.2,754.92a10.889,10.889,0,0,0-10.855,10.861v2.891a10.855,10.855,0,1,0,21.711,0v-2.891A10.889,10.889,0,0,0,958.2,754.92Z" transform="translate(-915.919 -516.784)"/><path class="d" d="M969.414,643.46v2.615a10.85,10.85,0,0,1-21.244,3.139Z" transform="translate(-916.281 -468.017)"/><path class="d" d="M969.414,687.21v2.621a10.856,10.856,0,0,1-21.244,3.139Z" transform="translate(-916.282 -487.159)"/><path class="d" d="M969.414,731v2.615a10.856,10.856,0,0,1-21.244,3.138Z" transform="translate(-916.282 -506.318)"/><path class="d" d="M969.414,774.72v2.616A10.85,10.85,0,0,1,948.17,780.5Z" transform="translate(-916.282 -525.447)"/><path class="c" d="M1020.439,686.486l-.866.664a4.1,4.1,0,0,1-5.838-5.625,4.01,4.01,0,0,1,.827-.866l.866-.664a4.1,4.1,0,0,1,5.012,6.5Z" transform="translate(-944.639 -483.628)"/><path class="c" d="M1002.324,690.076l-.866.669a4.1,4.1,0,1,0,5.012,6.5l.866-.669a4.1,4.1,0,1,0-5.011-6.5Z" transform="translate(-938.898 -488.039)"/><path class="c" d="M989.244,700.162l-.866.652a4.1,4.1,0,0,0,5.012,6.5l.866-.669a4.1,4.1,0,0,0-5.012-6.5Z" transform="translate(-933.175 -492.445)"/><path class="c" d="M976.154,710.276l-.866.669a4.1,4.1,0,0,0,5.011,6.5l.866-.669a4.1,4.1,0,1,0-5.011-6.5Z" transform="translate(-927.448 -496.877)"/><path class="d" d="M1020.361,688.4l-.787.6a4.1,4.1,0,0,1-5.838-5.625Z" transform="translate(-944.639 -485.483)"/><path class="d" d="M1007.261,698.5l-.788.6a4.1,4.1,0,0,1-5.838-5.625Z" transform="translate(-938.908 -489.902)"/><path class="d" d="M994.175,708.6l-.782.6a4.1,4.1,0,0,1-5.844-5.625Z" transform="translate(-933.179 -494.321)"/><path class="e" d="M963.429,399.581a12.305,12.305,0,1,1,0,24.611,12.307,12.307,0,1,1,0,24.6,12.307,12.307,0,0,1,0,24.613,12.305,12.305,0,1,1,0,24.611l-59.351,0a12.305,12.305,0,1,1,0-24.611,12.306,12.306,0,1,1,0-24.612,12.307,12.307,0,1,1,0-24.606,12.305,12.305,0,1,1,0-24.611,12.306,12.306,0,1,1,0-24.612,12.307,12.307,0,1,1,0-24.606h2.711c1.558-10.586,13.5-18.82,28.05-18.82s26.492,8.234,28.05,18.82h.562a12.305,12.305,0,1,1,0,24.611,12.306,12.306,0,1,1,0,24.612Z" transform="translate(-891.476 -331.54)"/><path class="d" d="M985.538,377.3a12.34,12.34,0,0,1-12.307,12.307H913.88L972.871,365h.36A12.341,12.341,0,0,1,985.538,377.3Z" transform="translate(-901.278 -346.18)"/><path class="d" d="M892.64,421.057a12.374,12.374,0,0,0,12.307,12.307H964.3l-59-24.613h-.36A12.374,12.374,0,0,0,892.64,421.057Z" transform="translate(-891.985 -365.322)"/><path class="d" d="M892.64,508.567a12.34,12.34,0,0,0,12.307,12.3H964.3l-59-24.6h-.36A12.341,12.341,0,0,0,892.64,508.567Z" transform="translate(-891.985 -403.611)"/><path class="d" d="M892.64,596.077a12.341,12.341,0,0,0,12.307,12.3H964.3l-59-24.608h-.36A12.34,12.34,0,0,0,892.64,596.077Z" transform="translate(-891.985 -441.9)"/><path class="d" d="M985.538,464.811a12.34,12.34,0,0,1-12.307,12.307H913.88l58.991-24.608h.36A12.341,12.341,0,0,1,985.538,464.811Z" transform="translate(-901.278 -384.469)"/><path class="d" d="M985.538,552.312a12.374,12.374,0,0,1-12.307,12.307H913.88L972.871,540h.36a12.374,12.374,0,0,1,12.307,12.312Z" transform="translate(-901.278 -422.749)"/><path class="e" d="M1012.1,692.154,992.557,681.63a4.6,4.6,0,1,1,4.365-8.105,4.6,4.6,0,1,1,4.359-8.105l.894.484c2.391-3.212,7.79-3.8,12.577-1.226s7.262,7.408,5.9,11.17l.174.1a4.6,4.6,0,0,1-4.359,8.105,4.6,4.6,0,0,1-4.365,8.105Z" transform="translate(-934.643 -476.595)"/><path class="d" d="M1027.948,690.271a4.618,4.618,0,0,1-6.232,1.873L1002.17,681.62l23.787,2.357.118.062A4.618,4.618,0,0,1,1027.948,690.271Z" transform="translate(-939.909 -484.713)"/><path class="d" d="M990.9,683.22a4.612,4.612,0,0,0,1.867,6.232l19.546,10.524-15.063-18.561-.118-.067A4.618,4.618,0,0,0,990.9,683.22Z" transform="translate(-934.74 -484.355)"/></g><path class="f" d="M506.122,474.69a5.062,5.062,0,1,0,5.062,5.062h0A5.062,5.062,0,0,0,506.122,474.69Zm.681,1.828h0a.433.433,0,0,1,.394.276,1.451,1.451,0,0,1,0,1.125,2.883,2.883,0,0,1-.242.562s-.062.09.141.09h1.3a.4.4,0,0,1,.371.456.422.422,0,0,1-.276.411v.028h0a.478.478,0,0,1,.27.388.354.354,0,0,1-.309.394v.028h0a.394.394,0,0,1,.2.377.326.326,0,0,1-.259.326v.028h0a.343.343,0,0,1,.135.309.32.32,0,0,1-.073.208.332.332,0,0,1-.259.118h-2.812s-.146,0-.146-.2v-1.834a2.373,2.373,0,0,1,.366-1.277,5.629,5.629,0,0,1,.652-.8c.039-.045.186-.169.186-.242v-.5a.3.3,0,0,1,.36-.276Zm-3.2,2.677h1.125a.163.163,0,0,1,.158.158v2.559a.152.152,0,0,1-.158.157H503.6a.157.157,0,0,1-.157-.157v-2.548a.163.163,0,0,1,.157-.169Z" transform="translate(-269.698 -247.186)"/><path class="g" d="M493.505,463.773a.562.562,0,0,1-.8,0l-.309-.276c-2.5-2.3-3.937-3.791-3.937-5.653a2.48,2.48,0,0,1,2.469-2.694,2.84,2.84,0,0,0,4.376,0,2.483,2.483,0,0,1,2.469,2.694c0,1.862-1.446,3.375-3.937,5.653Z" transform="translate(-264.183 -238.633)"/><ellipse class="c" cx="287" cy="11.356" rx="287" ry="11.356" transform="translate(0 404.531)"/><ellipse class="d" cx="287" cy="11.356" rx="287" ry="11.356" transform="translate(0 404.531)"/><ellipse class="c" cx="287" cy="11.356" rx="287" ry="11.356" transform="translate(0 398.851)"/><path class="h" d="M569.4,434.543q-1.957-4.758-3.994-9.478c-1.294-3-2.649-6.052-4.882-8.437a8.78,8.78,0,0,0-2.919-2.154,12.442,12.442,0,0,0-3.724-.737,29.736,29.736,0,0,0-5.872-.163c-.754-.231-1.614-.517-2.469-.866a20.457,20.457,0,0,0,15.237-18.961c0-.292,0-.562,0-.883a20.4,20.4,0,0,0-20.311-20.485,20.063,20.063,0,0,0-10.687,3.054,18.9,18.9,0,0,0-4.286-.489A19.163,19.163,0,0,0,508.312,385.8,23.673,23.673,0,0,0,501,403.4v.906c.377,11.109,7.565,20.08,16.632,20.929A9.849,9.849,0,0,0,515,427c-2.779,2.683-3.234,6.924-3.527,10.794l-.219,2.88-4.742,1.687a.889.889,0,0,0-.208,1.552l4.6,3.279a6.683,6.683,0,0,0,.034.827c.034.264.056.613.09.922a6.429,6.429,0,0,0-1.755,2.537,11.5,11.5,0,0,0-.422,4.64l.169,4A32.024,32.024,0,0,0,510.236,469c.6,1.783,3.206,6.058,5.09,6.08-1.738,7.874-2.2,24.473-2.2,24.473-.214.214.383.416,1.485.562,1.041,7.908,4.393,30.075,10.366,39.805a83.731,83.731,0,0,1,2.25,9.669s1.687,21.053,3.937,27.313c1.918,5.321,3.431,18.466,3.842,22.274a2.16,2.16,0,0,0-1.586,1.62c-1.125,3.414-8.437,8.533-8.437,8.533a36.144,36.144,0,0,0-6.322,4.05c-2.3,2.081-2.25,3.937,8.015,2.779,19.742-2.25,23.129-8.533,23.129-8.533s-.321-1.057-.787-2.435c-.759-2.25-1.9-5.394-2.6-6.1-.281-.287-.562.174-.917.894a123.408,123.408,0,0,1-1.344-27.583s.562-9.669-2.25-16.5c0,0-1.125-6.26,0-10.811s-4.5-26.74-4.5-26.74l-3.33-16.368a4.664,4.664,0,0,1,.9,1.9q.039.163.084.337c.028.152.062.3.09.473a.872.872,0,0,0,.231.444c2.2,9.157,8.234,34.524,8.234,38.247,0,4.556,5.625,15.935,5.625,15.935s2.25,18.775,6.187,26.171c3,5.625,3.071,13.87,2.93,17.5h0s-.669,4.685-1.8,5.822a14.073,14.073,0,0,0-2.137,3.712c-.079.169-.118.27-.118.27s-1.687,3.414-.562,3.982c0,0,6.75,2.846,13.539,1.687,0,0,2.25-2.846,2.25-3.982a20.115,20.115,0,0,0-.247-2.025c-.416-2.689-1.2-6.935-1.2-6.98.472-1.828-1.367-6.929-1.367-6.929l-.562-15.929a73.661,73.661,0,0,0-3.937-31.864s-2.812-10.237-2.25-13.083-1.125-33-1.125-33l-.163-.433a31.605,31.605,0,0,1,.163-6.4c.563-6.828-1.687-21.053-2.25-21.621-.292-.292-.562-2.576-.8-4.708.129-1.187.512-4.663,1.041-9a159.874,159.874,0,0,0,16.632-1.462,1.558,1.558,0,0,0,1.727-1.727C575.808,450.8,572.652,442.474,569.4,434.543ZM558.118,452.6c.563-4.083,1.215-8.038,1.834-10.968l.1.264a82.619,82.619,0,0,1,2.717,9A31.821,31.821,0,0,1,558.118,452.6Z" transform="translate(-269.679 -202.469)"/><path class="i" d="M524.5,596.025s3.375,30.373,10.687,42.185a82.56,82.56,0,0,1,2.25,9.562s1.687,20.811,3.937,27,3.937,23.061,3.937,23.061,7.875,9,10.687,1.687a118.809,118.809,0,0,1-1.687-29.248s.562-9.562-2.25-16.312c0,0-1.125-6.187,0-10.687s-4.5-26.436-4.5-26.436l-4.5-21.936Z" transform="translate(-279.959 -299.83)"/><path class="j" d="M562.4,784.272s-3.375,6.187-23.061,8.437c-10.209,1.164-10.282-.692-7.987-2.75a36.027,36.027,0,0,1,6.3-4s7.312-5.062,8.437-8.437,5.062-.562,5.062-.562c5.625,8.437,6.75-2.25,7.875-1.125.7.7,1.834,3.791,2.593,6.03C562.077,783.2,562.4,784.272,562.4,784.272Z" transform="translate(-282.423 -378.958)"/><path class="d" d="M562.4,789.027s-3.375,6.187-23.061,8.437c-10.209,1.164-10.282-.692-7.987-2.75,1.609,1.024,4.848,1.479,11.362-1.187,9.371-3.836,16.16-6.052,18.9-6.907C562.077,787.959,562.4,789.027,562.4,789.027Z" transform="translate(-282.423 -383.714)"/><path class="d" d="M565.726,670.27s.562-9.562-2.25-16.312c0,0-1.125-6.187,0-10.687s-4.5-26.436-4.5-26.436l-4.5-21.936-3.887.236,4.449,21.7s5.625,21.936,4.5,26.436,0,10.687,0,10.687c2.812,6.75,2.25,16.312,2.25,16.312a118.8,118.8,0,0,0,1.688,29.248,4.877,4.877,0,0,1-1.631,2.329c2.1.951,4.325.9,5.568-2.329A118.809,118.809,0,0,1,565.726,670.27Z" transform="translate(-291.377 -299.83)"/><path class="c" d="M540.372,377.4a20.136,20.136,0,0,0-10.631,3.02,19.1,19.1,0,0,0-21.43,10.254,23.3,23.3,0,0,0-7.312,17.4c0,11.964,8.06,21.655,18,21.655,7.211,0,13.426-5.1,16.312-12.459a20.249,20.249,0,1,0,5.062-39.851Z" transform="translate(-269.677 -204.609)"/><path class="i" d="M583,601.9l1.687,4.5s1.687,29.811,1.125,32.623,2.25,12.937,2.25,12.937a72.056,72.056,0,0,1,3.937,31.5l.563,15.749s2.25,6.187,1.125,7.312-9.562-1.125-9.562-1.125,1.125-11.812-2.812-19.124-6.187-25.873-6.187-25.873-5.625-11.249-5.625-15.749-9-41.06-9-41.06Z" transform="translate(-295.716 -302.892)"/><path class="c" d="M522.466,573.379s.562-20.249,2.812-26.436S527.809,538,527.809,538s34.057,6.153,36.87,3.9c0,0,.562,7.874,1.125,8.437s2.812,14.624,2.25,21.374,0,6.75,0,6.75-23.061,3.375-23.624,0-2.25-3.375-2.25-3.375S521.341,574.5,522.466,573.379Z" transform="translate(-279.051 -274.901)"/><g class="b" transform="translate(243.371 266.98)"><path d="M541.027,600.025s-14.236-.383-18.522-1.125c-.028.731-.039,1.125-.039,1.125-1.125,1.125,19.686,1.687,19.686,1.687a1.485,1.485,0,0,1,.776.321C542.214,600.036,541.027,600.025,541.027,600.025Z" transform="translate(-522.422 -568.527)"/><path d="M582.738,553.337c-.562-.562-1.125-8.437-1.125-8.437a2.205,2.205,0,0,1-.962.343c.208,2.373.563,6.03.962,6.406.563.563,2.812,14.624,2.25,21.374s0,6.749,0,6.749-18.241,2.672-22.673.889c.068.247.124.506.174.8.562,3.375,23.623,0,23.623,0s-.562,0,0-6.75S583.3,553.9,582.738,553.337Z" transform="translate(-539.384 -544.9)"/><path d="M541.027,600.025s-14.236-.383-18.522-1.125c-.028.731-.039,1.125-.039,1.125-1.125,1.125,19.686,1.687,19.686,1.687a1.485,1.485,0,0,1,.776.321C542.214,600.036,541.027,600.025,541.027,600.025Z" transform="translate(-522.422 -568.527)"/><path d="M582.738,553.337c-.562-.562-1.125-8.437-1.125-8.437a2.205,2.205,0,0,1-.962.343c.208,2.373.563,6.03.962,6.406.563.563,2.812,14.624,2.25,21.374s0,6.749,0,6.749-18.241,2.672-22.673.889c.068.247.124.506.174.8.562,3.375,23.623,0,23.623,0s-.562,0,0-6.75S583.3,553.9,582.738,553.337Z" transform="translate(-539.384 -544.9)"/></g><path class="i" d="M557.1,435.843a7.563,7.563,0,0,0,2.149,2.812,4.926,4.926,0,0,0,2.025.866c-1.266.726-2.632,1.271-3.9,2a65.207,65.207,0,0,0-5.765,4.224,11.366,11.366,0,0,1-6.564,2.542,8.06,8.06,0,0,0,.917-7.987,7.492,7.492,0,0,1-1.012-2.812c0-1.609,1.429-2.812,2.762-3.718q1.626-1.1,3.29-2.126c.877-.562,2.194-1.687,3.3-1.648,1.232.045,1.232,1.018,1.457,2.019A16.534,16.534,0,0,0,557.1,435.843Z" transform="translate(-288.908 -227.626)"/><path class="d" d="M557.1,435.843a7.563,7.563,0,0,0,2.149,2.812,4.926,4.926,0,0,0,2.025.866c-1.266.726-2.632,1.271-3.9,2a65.207,65.207,0,0,0-5.765,4.224,11.366,11.366,0,0,1-6.564,2.542,8.06,8.06,0,0,0,.917-7.987,7.492,7.492,0,0,1-1.012-2.812c0-1.609,1.429-2.812,2.762-3.718q1.626-1.1,3.29-2.126c.877-.562,2.194-1.687,3.3-1.648,1.232.045,1.232,1.018,1.457,2.019A16.534,16.534,0,0,0,557.1,435.843Z" transform="translate(-288.908 -227.626)"/><ellipse class="i" cx="12.937" cy="12.937" rx="12.937" ry="12.937" transform="translate(268.44 215.536)"/><path class="j" d="M609.948,792.46c0,1.125-2.25,3.937-2.25,3.937-6.749,1.125-13.5-1.687-13.5-1.687-1.125-.562.562-3.937.562-3.937s.039-.1.118-.27a13.848,13.848,0,0,1,2.132-3.667c1.125-1.125,1.794-5.754,1.794-5.754,3.487-5.754,9.691,2.475,9.691,2.475s.787,4.23,1.2,6.9A19.748,19.748,0,0,1,609.948,792.46Z" transform="translate(-310.294 -380.397)"/><path class="d" d="M609.948,801.342c0,1.125-2.25,3.937-2.25,3.937-6.749,1.125-13.5-1.687-13.5-1.687-1.125-.562.562-3.937.562-3.937s.039-.1.118-.27c2.587,1.125,7.56,2.914,12.256,2.52l2.565-2.565a19.764,19.764,0,0,1,.247,2Z" transform="translate(-310.294 -389.28)"/><ellipse class="i" cx="12.655" cy="12.655" rx="12.655" ry="12.655" transform="translate(242.855 188.826)"/><path class="i" d="M522.656,470.747c-2.767,2.649-3.223,6.845-3.515,10.687l-.422,5.591a29.794,29.794,0,0,0-.118,4.533c.073.945.236,1.879.326,2.812.107,1.125.112,2.25.118,3.375l.051,8.274a9.7,9.7,0,0,0,.911,4.967c.866,1.468,2.863,2.413,4.325,1.541a4.9,4.9,0,0,0,1.783-2.739,42.248,42.248,0,0,0,2.812-10.479c.118-1.243.13-2.492.242-3.735s.326-2.542.517-3.808c.8-5.27,1.159-10.591,1.513-15.9.107-1.575,1.524-7.768-.534-8.437-1.007-.337-3.088.7-4.038,1.046A11.311,11.311,0,0,0,522.656,470.747Z" transform="translate(-277.359 -243.983)"/><path class="d" d="M522.656,470.747c-2.767,2.649-3.223,6.845-3.515,10.687l-.422,5.591a29.794,29.794,0,0,0-.118,4.533c.073.945.236,1.879.326,2.812.107,1.125.112,2.25.118,3.375l.051,8.274a9.7,9.7,0,0,0,.911,4.967c.866,1.468,2.863,2.413,4.325,1.541a4.9,4.9,0,0,0,1.783-2.739,42.248,42.248,0,0,0,2.812-10.479c.118-1.243.13-2.492.242-3.735s.326-2.542.517-3.808c.8-5.27,1.159-10.591,1.513-15.9.107-1.575,1.524-7.768-.534-8.437-1.007-.337-3.088.7-4.038,1.046A11.311,11.311,0,0,0,522.656,470.747Z" transform="translate(-277.359 -243.983)"/><path class="j" d="M553.859,442.9s-9.562,7.312-15.187,9c0,0-3.335,3.808-3.937,4.719s-1.687,11.03-2.812,13.28-3.937,7.312,0,12.374c0,0,1.125,5.062.562,6.75s-2.6,7.874-.737,8.161,7.486,4.213,12.549,3.088,23.9,4.219,23.9,4.219,3.094-28.967,5.343-34.029l-5.062-1.687s-14.062-8.437-5.625-21.374C562.858,447.4,554.984,445.712,553.859,442.9Z" transform="translate(-157.053 -165.97)"/><path class="c" d="M510.146,500.278l11.615,8.223a.872.872,0,0,0,1.024,0l3.139-2.357a.861.861,0,0,0,.056-1.344l-8.938-7.97a.883.883,0,0,0-.872-.169l-5.816,2.081a.877.877,0,0,0-.208,1.536Z" transform="translate(-273.515 -256.781)"/><path class="i" d="M516.261,529.993a31.135,31.135,0,0,1-1.215-8.78l-.169-3.937a11.624,11.624,0,0,1,.416-4.584,7.477,7.477,0,0,1,4.82-4.224,16.694,16.694,0,0,1,6.575-.473,1.513,1.513,0,0,1,.832.236,1.609,1.609,0,0,1,.461.776c.478,1.339.945,2.88.264,4.134a4.263,4.263,0,0,1-1.322,1.35c-1.558,1.125-3.375,1.867-4.854,3.082a1.389,1.389,0,0,0-.6,1.732,14.344,14.344,0,0,0,.754,2.306,2.34,2.34,0,0,0,.641.973c.276.219.636.315.911.529.619.495,1.9,1.159,1.839,1.946-.214,2.914-1.935,6.063-2.616,8.9C521.677,539.482,517.088,532.406,516.261,529.993Z" transform="translate(-275.727 -261.707)"/><g class="b" transform="translate(258.289 236.335)"><path d="M549.259,544.777a2.957,2.957,0,0,1-.309.051,9.664,9.664,0,0,0,3.684-.051l.349-.056a13.575,13.575,0,0,0-3.724.056Z" transform="translate(-548.95 -514.123)"/><path d="M597.7,490.4c-2.014,4.539-4.989,29.108-5.529,33.99,1.991.518,3.279.883,3.279.883s3.094-28.967,5.343-34.029Z" transform="translate(-567.86 -490.4)"/></g><path class="i" d="M572.3,465.141c.039,1.153.984,2.036,1.851,2.812a24.335,24.335,0,0,1,3.268,3.324,23.5,23.5,0,0,1,3.257,6.5,80.885,80.885,0,0,1,2.711,8.909c-7.233,3.319-15.3,3.161-22.949,5.355a18.371,18.371,0,0,0-8.651,5.062,11.96,11.96,0,0,0-3.161,9.326,1.318,1.318,0,0,0,.169.562,1.249,1.249,0,0,0,1.007.4,8.538,8.538,0,0,0,5.253-1.8,24.527,24.527,0,0,0,4.016-3.937,6.524,6.524,0,0,1,2.874-2.109c4.145-1.266,8.561-1.187,12.9-1.266a160.916,160.916,0,0,0,19.18-1.519,2.075,2.075,0,0,0,1.395-.562,2.03,2.03,0,0,0,.326-1.125c.63-8.437-2.5-16.694-5.748-24.523q-1.952-4.7-3.977-9.371c-1.288-2.964-2.644-5.985-4.865-8.33a8.769,8.769,0,0,0-2.914-2.132,12.752,12.752,0,0,0-3.712-.726,28.394,28.394,0,0,0-6.294-.118,13.772,13.772,0,0,0-.6,3.257c.118,3.864,1.805,7.481,3.465,10.974C571.358,464.612,571.966,464.629,572.3,465.141Z" transform="translate(-290.482 -236.279)"/><path class="k" d="M548.939,490a10.462,10.462,0,0,0-1.44,5.473,7.55,7.55,0,0,0,.36,2.25,7.263,7.263,0,0,0,4.567,4.247" transform="translate(-290.021 -253.887)"/><path class="c" d="M542.873,402.9a6.86,6.86,0,0,0-2.081.332c-1.873-2.812-6.277-4.832-11.418-4.832-6.834,0-12.374,3.527-12.374,7.874s5.54,7.874,12.374,7.874a17.436,17.436,0,0,0,7.424-1.569,6.75,6.75,0,1,0,6.075-9.68Z" transform="translate(-276.677 -213.796)"/><path class="d" d="M543.436,418.921a6.749,6.749,0,0,1-6.075-3.819,17.436,17.436,0,0,1-7.425,1.569c-6.834,0-12.374-3.521-12.374-7.875a5.1,5.1,0,0,1,.062-.776,5.286,5.286,0,0,0-.624,2.464c0,4.353,5.54,7.875,12.374,7.875a17.437,17.437,0,0,0,7.424-1.569,6.75,6.75,0,0,0,12.7-1.687,6.75,6.75,0,0,1-6.063,3.819Z" transform="translate(-276.677 -218.006)"/><path class="d" d="M508.312,394.066a19.1,19.1,0,0,1,21.458-10.237,20.249,20.249,0,0,1,30.806,15.541c.045-.562.073-1.125.073-1.687a20.249,20.249,0,0,0-30.879-17.228,19.1,19.1,0,0,0-21.458,10.237,23.3,23.3,0,0,0-7.312,17.4,15.385,15.385,0,0,0,.062,1.687A22.834,22.834,0,0,1,508.312,394.066Z" transform="translate(-269.677 -204.624)"/><path class="f" d="M480.122,427.69a5.062,5.062,0,1,0,5.062,5.062h0A5.062,5.062,0,0,0,480.122,427.69Zm.681,1.828h0a.433.433,0,0,1,.394.276,1.452,1.452,0,0,1,0,1.125,2.883,2.883,0,0,1-.242.562s-.062.09.141.09h1.3a.4.4,0,0,1,.371.456.422.422,0,0,1-.276.411v.028h0a.478.478,0,0,1,.27.388.354.354,0,0,1-.309.394v.028h0a.394.394,0,0,1,.2.377.326.326,0,0,1-.259.326v.028h0a.343.343,0,0,1,.135.309.321.321,0,0,1-.073.208.332.332,0,0,1-.259.118h-2.812s-.146,0-.146-.2v-1.834a2.374,2.374,0,0,1,.366-1.277,5.626,5.626,0,0,1,.652-.8c.039-.045.186-.169.186-.242v-.5a.3.3,0,0,1,.36-.276Zm-3.2,2.677h1.125a.163.163,0,0,1,.157.158v2.559a.152.152,0,0,1-.157.158H477.6a.158.158,0,0,1-.158-.158v-2.548a.163.163,0,0,1,.158-.169Z" transform="translate(-258.318 -226.615)"/><path class="g" d="M501.505,419.773a.562.562,0,0,1-.8,0l-.309-.276c-2.5-2.3-3.937-3.791-3.937-5.653a2.48,2.48,0,0,1,2.469-2.694,2.84,2.84,0,0,0,4.376,0,2.483,2.483,0,0,1,2.469,2.694c0,1.862-1.446,3.375-3.937,5.653Z" transform="translate(-267.684 -219.376)"/><path class="f" d="M478.379,315.4a9.084,9.084,0,1,0,9.078,9.082v0A9.078,9.078,0,0,0,478.379,315.4Zm1.215,3.268h0a.788.788,0,0,1,.7.5,2.615,2.615,0,0,1,.028,2,5.558,5.558,0,0,1-.433,1s-.112.169.253.163h2.323a.726.726,0,0,1,.664.827.748.748,0,0,1-.489.726.034.034,0,0,0,0,.051h0a.861.861,0,0,1,.484.7.636.636,0,0,1-.562.7.039.039,0,0,0-.028.045h0a.7.7,0,0,1,.371.664.613.613,0,0,1-.467.591.045.045,0,0,0-.028.051h0a.614.614,0,0,1-.354,1.125h-4.983s-.27,0-.27-.366v-3.274a4.359,4.359,0,0,1,.652-2.284,12.566,12.566,0,0,1,1.17-1.429c.073-.073.337-.3.337-.427v-.894A.563.563,0,0,1,479.594,318.668Zm-5.72,4.792h2a.287.287,0,0,1,.287.287v4.573a.287.287,0,0,1-.287.287h-2a.281.281,0,0,1-.281-.287v-4.578a.281.281,0,0,1,.276-.281Z" transform="translate(-255.793 -177.469)"/><path class="f" d="M459.514,184a14.624,14.624,0,1,0,14.624,14.624h0A14.624,14.624,0,0,0,459.514,184Zm1.957,5.265h0a1.26,1.26,0,0,1,1.125.81,4.207,4.207,0,0,1,.051,3.217,9.344,9.344,0,0,1-.7,1.62s-.191.27.4.259h3.74a1.164,1.164,0,0,1,1.074,1.327,1.215,1.215,0,0,1-.793,1.176.056.056,0,0,0-.034.079.035.035,0,0,0,.028.034,1.4,1.4,0,0,1,.782,1.125,1.029,1.029,0,0,1-.9,1.125.067.067,0,0,0-.045.079.05.05,0,0,0,.034.034,1.125,1.125,0,0,1,.563,1.08,1,1,0,0,1-.748.951.062.062,0,0,0-.045.079.084.084,0,0,0,.028.034.979.979,0,0,1,.388.877.951.951,0,0,1-.214.613.962.962,0,0,1-.754.343h-8.026s-.439,0-.439-.562v-5.282a6.975,6.975,0,0,1,1.052-3.685,18.717,18.717,0,0,1,1.889-2.294c.112-.129.562-.495.562-.692s.028-.675.039-1.446a.894.894,0,0,1,.934-.889ZM452.264,197h3.217a.461.461,0,0,1,.461.456v7.38a.461.461,0,0,1-.461.461h-3.217a.461.461,0,0,1-.461-.461v-7.38A.461.461,0,0,1,452.264,197Z" transform="translate(-245.115 -119.941)"/><path class="g" d="M460.951,385.544a1.069,1.069,0,0,1-1.429,0l-.562-.5c-4.5-4.112-7.07-6.783-7.07-10.124,0-2.717,1.716-4.815,4.415-4.815a5.141,5.141,0,0,1,3.937,1.834,5.152,5.152,0,0,1,3.937-1.834c2.7,0,4.415,2.1,4.415,4.815,0,3.324-2.587,6-7.07,10.124Z" transform="translate(-248.178 -201.414)"/><path class="g" d="M508.815,292.288a1.687,1.687,0,0,1-2.3,0l-.883-.8c-7.228-6.631-11.4-10.94-11.4-16.311,0-4.382,2.773-7.768,7.121-7.768a8.313,8.313,0,0,1,6.316,2.964,8.3,8.3,0,0,1,6.311-2.964c4.353,0,7.121,3.375,7.121,7.768,0,5.36-4.173,9.669-11.4,16.311Z" transform="translate(-266.71 -156.465)"/><path class="c" d="M785.5,676.984v4.5a16.874,16.874,0,0,0,33.748,0v-4.5a16.874,16.874,0,0,0-33.748,0Z" transform="translate(-394.195 -328.361)"/><path class="c" d="M819.248,545.484v-4.5a16.874,16.874,0,0,0-33.748,0v4.5a16.669,16.669,0,0,0,.726,4.877,16.874,16.874,0,0,0,33.022-4.877Z" transform="translate(-394.195 -268.82)"/><path class="c" d="M785.5,608.984v4.5a16.874,16.874,0,0,0,33.748,0v-4.5a16.874,16.874,0,0,0-33.748,0Z" transform="translate(-394.195 -298.583)"/><path class="c" d="M802.374,728.11A16.925,16.925,0,0,0,785.5,744.984v4.5a16.874,16.874,0,0,0,33.748,0v-4.5A16.925,16.925,0,0,0,802.374,728.11Z" transform="translate(-394.195 -358.114)"/><path class="d" d="M819.812,554.88v4.067a16.874,16.874,0,0,1-33.022,4.877Z" transform="translate(-394.759 -282.285)"/><path class="d" d="M819.812,622.88v4.067a16.874,16.874,0,0,1-33.022,4.877Z" transform="translate(-394.759 -312.047)"/><path class="d" d="M819.812,690.88v4.067a16.874,16.874,0,0,1-33.022,4.877Z" transform="translate(-394.759 -341.824)"/><path class="d" d="M819.812,758.88v4.067a16.874,16.874,0,0,1-33.022,4.877Z" transform="translate(-394.759 -371.577)"/><path class="c" d="M899.089,621.737l-1.344,1.041a6.373,6.373,0,0,1-9.078-8.758,6.3,6.3,0,0,1,1.288-1.339l1.35-1.041a6.386,6.386,0,0,1,7.785,10.124Z" transform="translate(-438.82 -306.547)"/><path class="c" d="M871.066,627.405l-1.344,1.041a6.378,6.378,0,0,0,7.79,10.1l1.344-1.041a6.378,6.378,0,0,0-7.79-10.1Z" transform="translate(-430.024 -313.489)"/><path class="c" d="M850.615,643.029l-1.344,1.035a6.387,6.387,0,0,0,7.79,10.124l1.344-1.035a6.387,6.387,0,1,0-7.79-10.124Z" transform="translate(-421.011 -320.285)"/><path class="c" d="M830.283,658.7l-1.344,1.041a6.374,6.374,0,1,0,7.785,10.1l1.35-1.04a6.387,6.387,0,1,0-7.79-10.124Z" transform="translate(-412.117 -327.13)"/><path class="d" d="M898.96,624.718l-1.215.939a6.373,6.373,0,0,1-9.078-8.758Z" transform="translate(-438.819 -309.428)"/><path class="d" d="M878.627,640.413l-1.215.939a6.373,6.373,0,0,1-9.078-8.752Z" transform="translate(-429.924 -316.299)"/><path class="d" d="M858.277,656.1l-1.215.939a6.373,6.373,0,0,1-9.084-8.752Z" transform="translate(-421.012 -323.167)"/><path class="e" d="M810.868,175.853a19.124,19.124,0,1,1,0,38.248,19.124,19.124,0,1,1,0,38.248,19.124,19.124,0,1,1,0,38.248,19.124,19.124,0,1,1,0,38.248H718.624a19.124,19.124,0,1,1,0-38.248,19.124,19.124,0,1,1,0-38.248,19.124,19.124,0,1,1,0-38.248,19.124,19.124,0,1,1,0-38.248,19.124,19.124,0,1,1,0-38.248,19.124,19.124,0,1,1,0-38.248h4.219c2.424-16.452,21.014-29.248,43.6-29.248s41.172,12.8,43.6,29.248h.838a19.124,19.124,0,0,1,0,38.248,19.124,19.124,0,0,1,0,38.248Z" transform="translate(-356.573 -70.11)"/><path class="d" d="M844.868,141.234a19.18,19.18,0,0,1-19.124,19.124H733.5l91.682-38.248h.563A19.18,19.18,0,0,1,844.868,141.234Z" transform="translate(-371.451 -92.862)"/><path class="d" d="M700.5,209.234a19.18,19.18,0,0,0,19.124,19.124h92.244L720.186,190.11h-.562A19.18,19.18,0,0,0,700.5,209.234Z" transform="translate(-357.007 -122.633)"/><path class="d" d="M700.5,345.234a19.18,19.18,0,0,0,19.124,19.124h92.244L720.186,326.11h-.562A19.18,19.18,0,0,0,700.5,345.234Z" transform="translate(-357.007 -182.158)"/><path class="d" d="M700.5,481.234a19.18,19.18,0,0,0,19.124,19.124h92.244L720.186,462.11h-.562A19.18,19.18,0,0,0,700.5,481.234Z" transform="translate(-357.007 -241.684)"/><path class="d" d="M844.868,277.234a19.18,19.18,0,0,1-19.124,19.124H733.5l91.682-38.248h.563A19.18,19.18,0,0,1,844.868,277.234Z" transform="translate(-371.451 -152.395)"/><path class="d" d="M844.868,413.234a19.18,19.18,0,0,1-19.124,19.124H733.5l91.682-38.248h.563A19.18,19.18,0,0,1,844.868,413.234Z" transform="translate(-371.451 -211.921)"/><path class="e" d="M886.325,630.55,855.952,614.2a7.149,7.149,0,0,1,6.75-12.594,7.155,7.155,0,1,1,6.783-12.594l1.384.742c3.718-4.983,12.1-5.906,19.546-1.9s11.289,11.514,9.168,17.358l.276.152a7.151,7.151,0,1,1-6.778,12.594A7.155,7.155,0,0,1,886.3,630.55Z" transform="translate(-423.482 -295.626)"/><path class="d" d="M910.839,627.693a7.171,7.171,0,0,1-9.686,2.908L870.78,614.25l36.971,3.656.185.1a7.171,7.171,0,0,1,2.9,9.686Z" transform="translate(-431.522 -308.269)"/><path class="d" d="M853.206,616.67a7.177,7.177,0,0,0,2.885,9.691l30.373,16.351-23.387-28.849-.186-.1A7.177,7.177,0,0,0,853.206,616.67Z" transform="translate(-423.455 -307.688)"/><path class="e" d="M221.836,741.982l-62.844.062a13.031,13.031,0,1,1,0-26.062,13.032,13.032,0,0,1-.028-26.056h2.874c1.637-11.21,14.3-19.939,29.681-19.956s28.061,8.69,29.721,19.894h.562a13.031,13.031,0,1,1,0,26.062,13.032,13.032,0,1,1,.028,26.056Z" transform="translate(-114.271 -332.676)"/><path class="d" d="M244.99,718.4a13.066,13.066,0,0,1-13.015,13.043l-62.844.062,62.434-26.121h.382A13.066,13.066,0,0,1,244.99,718.4Z" transform="translate(-124.408 -348.169)"/><path class="d" d="M146.62,764.84a13.066,13.066,0,0,0,13.044,13.015l62.844-.079-62.49-26h-.382A13.066,13.066,0,0,0,146.62,764.84Z" transform="translate(-114.56 -368.47)"/><path class="a" d="M595.459,217.628a11.43,11.43,0,0,0-6.6.72,9.714,9.714,0,0,1-7.931,0,11.137,11.137,0,0,0-9.326.18,5.788,5.788,0,0,1-2.683.675c-3.78,0-6.924-3.808-7.576-8.836a7.278,7.278,0,0,0,1.89-2.036c2.216-3.572,5.625-5.861,9.5-5.861s7.25,2.25,9.466,5.8a7.312,7.312,0,0,0,6.277,3.448h.1C591.556,211.7,594.16,214.113,595.459,217.628Z" transform="translate(-296.084 -128.041)"/><path class="a" d="M606.927,190.937l-6.108,3.875,3.707-6.75a6.013,6.013,0,0,0-3.7-1.322h-.1a6.747,6.747,0,0,1-1.266-.09l-2.075,1.311.889-1.614a7.385,7.385,0,0,1-3.622-2.75l-3.718,2.357,2.34-4.258a10.81,10.81,0,0,0-8.3-4.2c-3.853,0-7.312,2.289-9.506,5.861a7.115,7.115,0,0,1-6.283,3.375h-.186c-4.252,0-7.706,4.826-7.706,10.777s3.454,10.777,7.706,10.777a5.721,5.721,0,0,0,2.683-.675,11.137,11.137,0,0,1,9.326-.18,9.842,9.842,0,0,0,3.988.855,9.725,9.725,0,0,0,3.937-.838,11.131,11.131,0,0,1,9.241.18,5.76,5.76,0,0,0,2.655.658c4.258,0,7.706-4.826,7.706-10.777a13.7,13.7,0,0,0-1.614-6.575Z" transform="translate(-296.068 -117.097)"/><path class="a" d="M323.62,168.62a11.429,11.429,0,0,1,6.6.72,9.7,9.7,0,0,0,7.925,0,11.137,11.137,0,0,1,9.309.169,5.8,5.8,0,0,0,2.683.675c3.78,0,6.93-3.808,7.582-8.836a7.194,7.194,0,0,1-1.89-2.036c-2.216-3.572-5.653-5.861-9.506-5.861s-7.245,2.25-9.461,5.8a7.312,7.312,0,0,1-6.283,3.442h-.1C327.5,162.691,324.886,165.1,323.62,168.62Z" transform="translate(-192.038 -106.574)"/><path class="a" d="M301.892,141.955,308,145.83l-3.712-6.75a6.024,6.024,0,0,1,3.7-1.322h.1a6.752,6.752,0,0,0,1.266-.09l2.07,1.311-.889-1.614a7.4,7.4,0,0,0,3.628-2.75l3.707,2.351-2.34-4.23a10.865,10.865,0,0,1,8.308-4.2c3.853,0,7.312,2.289,9.506,5.861a7.11,7.11,0,0,0,6.283,3.375h.2c4.258,0,7.706,4.826,7.706,10.777s-3.448,10.777-7.706,10.777a5.754,5.754,0,0,1-2.683-.675,11.137,11.137,0,0,0-9.326-.18,9.814,9.814,0,0,1-3.982.855,9.686,9.686,0,0,1-3.937-.838,11.143,11.143,0,0,0-9.247.18,5.743,5.743,0,0,1-2.655.658c-4.252,0-7.706-4.826-7.706-10.777A13.7,13.7,0,0,1,301.892,141.955Z" transform="translate(-181.827 -95.675)"/></g></svg>