<svg xmlns="http://www.w3.org/2000/svg" xmlns:xlink="http://www.w3.org/1999/xlink" viewBox="0 0 263 200.04"><defs><linearGradient id="linear-gradient" x1="198.09" y1="156.64" x2="89.81" y2="12.95" gradientUnits="userSpaceOnUse"><stop offset="0" stop-color="#0063b8"/><stop offset="0.41" stop-color="#008ec2"/><stop offset="0.68" stop-color="#33aed2"/><stop offset="0.89" stop-color="#54c3dd"/><stop offset="1" stop-color="#61cbe1"/></linearGradient></defs><title>Wifi</title><g id="Layer_2" data-name="Layer 2"><g id="OBJECTS"><path d="M13.41,81.7A13.42,13.42,0,0,1,2.86,60c2.86-3.67,15.63-17.14,36-30.47C65.09,12.33,93.75,2.24,121.73.35c48-3.25,94.11,16.37,137.21,58.3a13.42,13.42,0,0,1-18.71,19.23c-37.13-36.12-76.09-53.2-115.8-50.82C94.84,28.85,70,41.34,54.28,51.5,36.87,62.79,25.78,74.31,24,76.56A13.36,13.36,0,0,1,13.41,81.7Zm41.19,29c3.08-3.53,31.28-34.62,71.83-36.48,27.63-1.27,55.5,11.3,82.83,37.38a13.42,13.42,0,0,0,18.53-19.42C195,60.84,160.43,45.77,125.19,47.4,74.58,49.73,40.65,85.85,34.36,93.07A13.42,13.42,0,1,0,54.6,110.69ZM86.49,145c2.59-4.34,18.3-20.36,39.16-22.6,17.67-1.9,35.36,6.47,52.59,24.89a13.42,13.42,0,0,0,19.6-18.34c-29-31-56.83-35.19-75.06-33.24C92,99,69.51,121,63.45,131.2a13.42,13.42,0,1,0,23,13.76Zm45.37,3.56a25.76,25.76,0,1,0,25.76,25.76A25.76,25.76,0,0,0,131.86,148.52Z" style="fill:url(#linear-gradient)"/></g></g></svg>