<svg xmlns="http://www.w3.org/2000/svg" xmlns:xlink="http://www.w3.org/1999/xlink" viewBox="0 0 334.313 229.69"><defs><style>.a{fill:url(#a);}.b{fill:#66caf2;}.c{opacity:0.15;}.d{opacity:0.1;}.e{opacity:0.07;}.f{fill:#fff;opacity:0.2;}.g{fill:#e0e0e0;}.h,.p{fill:#f55f44;}.i{opacity:0.05;}.j{fill:url(#b);}.k{fill:#f5f5f5;}.l{fill:#dbdbdb;}.m,.o,.p,.q{opacity:0.5;}.n,.q{fill:#47e6b1;}.o{fill:#4d8af0;}</style><linearGradient id="a" x1="0.5" y1="1" x2="0.5" gradientUnits="objectBoundingBox"><stop offset="0" stop-color="gray" stop-opacity="0.251"/><stop offset="0.54" stop-color="gray" stop-opacity="0.122"/><stop offset="1" stop-color="gray" stop-opacity="0.102"/></linearGradient><linearGradient id="b" x1="-13.248" y1="4.947" x2="-13.248" y2="4.796" xlink:href="#a"/></defs><path class="a" d="M465.523,290.467a6.674,6.674,0,0,0-3.336-5.778V265.933h-.122v-.067h-14.4L296.394,227,138.45,271.5v7.785l75.594,28.534-4.4,76.022c40.217,11.452,71.876,15.606,96.743,15.413h1.311c73.124-.989,86.7-39.868,86.7-39.868-3.961-20.607-3.408-43.472-2.748-54.912l66.038-29.621-.938-5.622h1v14.659a6.674,6.674,0,0,0-1.767,12.6l-4.907,11.778a4.26,4.26,0,0,0,1.99,1.4L439.95,344.974a29.517,29.517,0,0,0,4.5,2.976l2.116,1.409.051-.349c3.58,1.57,8.091,2.56,12.17.628l1.107-.279-.177-.22a12.234,12.234,0,0,0,2.462-1.963l-1.111-37.819L460.117,297A6.674,6.674,0,0,0,465.523,290.467Z" transform="translate(-138.45 -209.333)"/><path class="b" d="M505.748,455.494s-23.83,68.244-179.808,23.83l4.342-74.742L450.518,387.25l53.079,7.581S500.33,427.33,505.748,455.494Z" transform="translate(-252.333 -306.67)"/><path class="c" d="M198.5,246.047v6.5l89.908,31.415,79.076-33.578,1.084-6.5-80.16,29.248Z" transform="translate(-120.57 -148.134)"/><path class="c" d="M644.414,394.841l-53.079-7.581-1.739.251,51.324,7.334s-3.251,32.495,2.167,60.66c0,0-13.348,38.235-85.487,38.839,75.193.624,88.977-38.839,88.977-38.839C641.163,427.336,644.414,394.841,644.414,394.841Z" transform="translate(-393.045 -306.676)"/><rect class="b" width="4.334" height="19.559" transform="translate(315.217 57.833)"/><rect class="d" width="4.334" height="19.559" transform="translate(315.217 57.833)"/><path class="b" d="M897.22,466.7s13,10.953,21.663,2.167L917.8,432.041l-6.5-3.251Z" transform="translate(-599.332 -331.902)"/><path class="d" d="M897.22,466.7s13,10.953,21.663,2.167L917.8,432.041l-6.5-3.251Z" transform="translate(-599.332 -331.902)"/><path class="b" d="M10.88,156.081v7.581L174.446,225.4l147.317-66.073-1.08-6.5L173.362,217.824Z" transform="translate(-6.609 -92.83)"/><path class="e" d="M10.88,156.081v7.581L174.446,225.4l147.317-66.073-1.08-6.5L173.362,217.824Z" transform="translate(-6.609 -92.83)"/><path class="b" d="M10.88,94.07l163.268,63.313L320.683,90.82,164.7,50.74Z" transform="translate(-6.609 -30.82)"/><ellipse class="b" cx="10.8" cy="7.012" rx="10.8" ry="7.012" transform="translate(150.508 50.252)"/><ellipse class="d" cx="10.8" cy="7.012" rx="10.8" ry="7.012" transform="translate(150.508 50.252)"/><rect class="b" width="150.567" height="3.251" transform="translate(168.862 57.774)"/><rect class="d" width="150.567" height="3.251" transform="translate(168.862 57.774)"/><circle class="b" cx="6.497" cy="6.497" r="6.497" transform="translate(309.803 75.229)"/><circle class="d" cx="6.497" cy="6.497" r="6.497" transform="translate(309.803 75.229)"/><path class="b" d="M924.81,414.2s2.167,3.368,9.748,1.084L933.474,401.2h-3.251Z" transform="translate(-616.091 -315.144)"/><path class="d" d="M924.81,414.2s2.167,3.368,9.748,1.084L933.474,401.2h-3.251Z" transform="translate(-616.091 -315.144)"/><path class="f" d="M766.89,340.348l4.33-5.418-1.084,7.585Z" transform="translate(-465.814 -203.439)"/><path class="f" d="M797.24,340.45v6.5l4.33-1.084Z" transform="translate(-484.249 -206.792)"/><path class="c" d="M381.1,530.73s32.495,10.832,51.995,4.319Z" transform="translate(-285.837 -393.821)"/><path class="c" d="M606.22,535.872s34.187,2.144,51.371-9.132Z" transform="translate(-422.577 -391.397)"/><path class="c" d="M666,591.993s19.877-7.522,30.065-15.193Z" transform="translate(-458.888 -421.804)"/><path class="c" d="M359,572.12s34.674,14.086,43.342,8.664Z" transform="translate(-272.414 -418.962)"/><ellipse class="g" cx="13.776" cy="2.065" rx="13.776" ry="2.065" transform="translate(6.45 153.759) rotate(-68.68)"/><ellipse class="g" cx="13.776" cy="1.405" rx="13.776" ry="1.405" transform="translate(186.099 223.956) rotate(-68.68)"/><rect class="h" width="8.268" height="27.556" transform="matrix(0.824, 0.566, -0.566, 0.824, 92.041, 181.296)"/><rect class="i" width="9.301" height="27.556" transform="matrix(-0.99, -0.142, 0.142, -0.99, 95.46, 211.452)"/><rect class="h" width="8.268" height="27.556" transform="translate(94.95 211.696) rotate(-171.951)"/><rect class="j" width="28.934" height="192.202" transform="translate(8.118 155.152) rotate(-68.68)"/><path class="k" d="M338.783,605.769c-3.5-1.311-181.614-70.891-179.046-69.882,8.189-15.311,10.019-25.668,10.019-25.668L348.8,580.1S343.718,591.2,338.783,605.769Z" transform="translate(-151.363 -381.363)"/><rect class="i" width="15.801" height="27.48" transform="translate(97.299 158.521) rotate(21.161)"/><rect class="h" width="14.467" height="27.556" transform="translate(97.336 159.657) rotate(21.32)"/><rect class="i" width="9.646" height="27.556" transform="translate(99.261 160.409) rotate(21.32)"/><rect class="h" width="8.268" height="27.556" transform="translate(99.904 160.66) rotate(21.32)"/><circle class="l" cx="1.15" cy="1.15" r="1.15" transform="translate(123.46 220.264) rotate(-0.86)"/><g class="m" transform="translate(30.838 189.23)"><rect class="n" width="1.178" height="6.674" transform="translate(2.748)"/><rect class="n" width="1.178" height="6.674" transform="translate(6.674 2.748) rotate(90)"/></g><g class="m" transform="translate(327.639 106)"><rect class="n" width="1.178" height="6.674" transform="translate(2.748)"/><rect class="n" width="1.178" height="6.674" transform="translate(6.674 2.748) rotate(90)"/></g><g class="m" transform="translate(37.905 23.163)"><rect class="n" width="1.178" height="6.674" transform="translate(2.748)"/><rect class="n" width="1.178" height="6.674" transform="translate(6.674 2.748) rotate(90)"/></g><g class="m" transform="translate(292.305 12.956)"><rect class="n" width="1.178" height="6.674" transform="translate(2.748)"/><rect class="n" width="1.178" height="6.674" transform="translate(6.674 2.748) rotate(90)"/></g><path class="o" d="M199.466,431.324a1.441,1.441,0,0,1-.785-1.743.7.7,0,0,0,.031-.161h0a.722.722,0,0,0-1.3-.479h0a.694.694,0,0,0-.079.141,1.441,1.441,0,0,1-1.743.785.7.7,0,0,0-.161-.031h0a.722.722,0,0,0-.479,1.3h0a.7.7,0,0,0,.141.079,1.441,1.441,0,0,1,.785,1.743.7.7,0,0,0-.031.161h0a.722.722,0,0,0,1.3.5h0a.694.694,0,0,0,.079-.141,1.441,1.441,0,0,1,1.743-.785.7.7,0,0,0,.161.031h0a.722.722,0,0,0,.479-1.3h0A.693.693,0,0,0,199.466,431.324Z" transform="translate(-172.593 -331.818)"/><path class="o" d="M371.466,234.324a1.441,1.441,0,0,1-.785-1.743.694.694,0,0,0,.031-.161h0a.722.722,0,0,0-1.3-.479h0a.693.693,0,0,0-.079.141,1.441,1.441,0,0,1-1.743.785.694.694,0,0,0-.161-.031h0a.722.722,0,0,0-.479,1.3h0a.694.694,0,0,0,.141.079,1.441,1.441,0,0,1,.785,1.743.7.7,0,0,0-.031.161h0a.722.722,0,0,0,1.3.5h0a.694.694,0,0,0,.078-.141,1.441,1.441,0,0,1,1.743-.785.7.7,0,0,0,.161.031h0a.722.722,0,0,0,.479-1.3h0A.7.7,0,0,0,371.466,234.324Z" transform="translate(-277.067 -212.159)"/><path class="o" d="M416.466,756.324a1.441,1.441,0,0,1-.785-1.743.692.692,0,0,0,.031-.161h0a.722.722,0,0,0-1.3-.479h0a.7.7,0,0,0-.079.141,1.441,1.441,0,0,1-1.743.785.7.7,0,0,0-.161-.031h0a.722.722,0,0,0-.479,1.3h0a.693.693,0,0,0,.141.079,1.441,1.441,0,0,1,.785,1.743.7.7,0,0,0-.031.161h0a.722.722,0,0,0,1.3.5h0a.7.7,0,0,0,.079-.141,1.441,1.441,0,0,1,1.743-.785.7.7,0,0,0,.161.031h0a.722.722,0,0,0,.479-1.3h0a.7.7,0,0,0-.145-.1Z" transform="translate(-304.401 -529.225)"/><circle class="p" cx="2.356" cy="2.356" r="2.356" transform="translate(317.824 171.956)"/><circle class="o" cx="2.356" cy="2.356" r="2.356" transform="translate(214.179 222.993)"/><circle class="q" cx="2.356" cy="2.356" r="2.356" transform="translate(254.224 179.415)"/><circle class="p" cx="2.356" cy="2.356" r="2.356" transform="translate(181.201)"/></svg>