<svg xmlns="http://www.w3.org/2000/svg" xmlns:xlink="http://www.w3.org/1999/xlink" viewBox="0 0 116.38 101.71"><defs><mask id="mask" x="-17.3" y="-19.02" width="149.68" height="139.44" maskUnits="userSpaceOnUse"><polygon points="132.37 82.3 116.49 -19.02 -17.3 21.2 14.91 120.43 132.37 82.3" style="fill:#fff"/><path d="M38.06,105.71c-.8.2-1,.21-1.17-.22a1.6,1.6,0,0,0-1.71-.9,1.31,1.31,0,0,1-.27-.06l1-1c1.13.37,2.17-.17,3.24-.35l1.37-.24c.49-.08,1-.14,1.47-.24s.71-.24,1.1,0a1.38,1.38,0,0,1-1.3.52,3.36,3.36,0,0,0-1.63.33c-.87.39-1,.69-.81,1.47,0,.08,0,.15.06.25a2.17,2.17,0,0,1-1.38.42c0-.15.05-.29.08-.43H38C38,105.44,38,105.58,38.06,105.71Z"/><path d="M45.29,94.48a1.71,1.71,0,0,1,.43.09c.25.16.33.38.1.6a.45.45,0,0,1-.65,0,3.73,3.73,0,0,1-.26-.3Z"/><path d="M110.29,43.24a1.11,1.11,0,0,1-1.28,0,.5.5,0,0,1,0-.83,1.11,1.11,0,0,1,1.2,0A.54.54,0,0,1,110.29,43.24Z"/><path d="M35.23,106.43a1,1,0,0,1,1-.88C36.48,106.3,36.24,106.53,35.23,106.43Z"/><path d="M110.69,70.4c.8.11.81.11.94.82C110.68,71.25,110.65,71.23,110.69,70.4Z"/><path d="M96,46.6c0-.25,0-.43,0-.61.22,0,.51-.05.63,0s.07.34.1.52Z"/><path d="M94.61,68.35c.35,0,.61,0,.7.07s.06.33,0,.46a.62.62,0,0,1-.47,0C94.71,68.82,94.7,68.62,94.61,68.35Z"/><path d="M103.37,39.71c.29-.09.48-.05.53.21,0,0-.09.15-.15.16C103.45,40.11,103.32,40,103.37,39.71Z"/><path d="M90.93,68.28a1.71,1.71,0,0,1,.11-.47s.2,0,.31,0a3.77,3.77,0,0,1,0,.47A3.09,3.09,0,0,1,90.93,68.28Z"/><path d="M89.14,59.2c0-.13,0-.24,0-.25a.51.51,0,0,1,.3,0s.05.16,0,.18A1.41,1.41,0,0,1,89.14,59.2Z"/><path d="M121.69,58.86a.92.92,0,0,1-.29,0c-.05,0-.05-.12-.07-.19a.82.82,0,0,1,.25-.06S121.64,58.77,121.69,58.86Z"/><path d="M33.21,106.91s0,.1,0,.12-.09,0-.14,0,0-.12,0-.17Z"/><path d="M107.17,65.65l.21.08a.26.26,0,0,1,0,.12.78.78,0,0,1-.22,0S107.14,65.72,107.17,65.65Z"/><path d="M38.06,105.71c0-.13-.05-.27-.07-.41h.13c0,.14-.06.28-.08.43Z"/><path d="M89.5,93.15s.12,0,.15,0,0-.08.06-.12l-.21,0Z"/><path d="M67.87,87.25c.58.42.59.82,0,1.34a1.82,1.82,0,0,1-2,.27,1.49,1.49,0,0,1-.22-1.67A2,2,0,0,1,67.87,87.25Z"/><path d="M85.07,97.65l1.06-.34a.84.84,0,0,0-.19-1,1.24,1.24,0,0,0-1.44.08.73.73,0,0,0,.15,1.12A.94.94,0,0,0,85.07,97.65Z"/><path d="M53.23,89.77a3.11,3.11,0,0,1-.53-.61c-.2-.43,0-.77.59-.9.71-.17,1.3,0,1.46.46.09.24,0,.5-.31.44C53.84,89,53.63,89.43,53.23,89.77Z"/><path d="M57.69,90.4a.61.61,0,0,1-.09-.91,1.07,1.07,0,0,1,1.26-.13.75.75,0,0,1-.07,1A1,1,0,0,1,57.69,90.4Z"/><path d="M78.07,87.68a2.92,2.92,0,0,1-.9,0A.38.38,0,0,1,77.1,87a.54.54,0,0,1,.74-.05C78,87.1,78,87.35,78.07,87.68Z"/><path d="M90.35,75.28a3.65,3.65,0,0,1-1-.06c-.1,0-.11-.38,0-.53a.54.54,0,0,1,.79-.08C90.26,74.74,90.26,75,90.35,75.28Z"/><path d="M74.81,71.06a4.07,4.07,0,0,1-.93-.07c-.28-.11-.32-.36-.1-.59a.54.54,0,0,1,.73-.07C74.66,70.47,74.67,70.71,74.81,71.06Z"/><path d="M64.94,78.1A3.07,3.07,0,0,1,64.1,78a.32.32,0,0,1,0-.59.42.42,0,0,1,.63,0A2.48,2.48,0,0,1,64.94,78.1Z"/><path d="M82.62,68.77a3.23,3.23,0,0,1,.86.1.39.39,0,0,1,.07.45.5.5,0,0,1-.72.05C82.71,69.27,82.72,69.07,82.62,68.77Z"/><path d="M87.35,90.54c0-.21,0-.4.07-.46a.61.61,0,0,1,.46,0,.29.29,0,0,1,0,.32A1.69,1.69,0,0,1,87.35,90.54Z"/><path d="M71.56,95.2a2,2,0,0,1-.47-.07s0-.25,0-.26a.82.82,0,0,1,.41,0S71.54,95,71.56,95.2Z"/><path d="M77.51,99.68c-.21,0-.36,0-.41,0s0-.18,0-.25a.26.26,0,0,1,.23,0C77.41,99.42,77.43,99.52,77.51,99.68Z"/><path d="M74.11,81.1c0-.11,0-.2,0-.24a.43.43,0,0,1,.23,0s0,.1,0,.13A1.31,1.31,0,0,1,74.11,81.1Z"/><path d="M84.18,81.84l-.29,0a.7.7,0,0,1,.06-.19.22.22,0,0,1,.16,0A.71.71,0,0,1,84.18,81.84Z"/><path d="M57.36,85.53s-.12,0-.14-.06,0-.09,0-.13.12,0,.14.06S57.37,85.48,57.36,85.53Z"/><path d="M93.26,78.68c-.05,0-.11,0-.14,0s0-.07-.05-.11.11,0,.14,0S93.25,78.64,93.26,78.68Z"/><path d="M68.11,78.39a.59.59,0,0,1,0-.13l.14,0s0,.06,0,.06A.77.77,0,0,1,68.11,78.39Z"/><path d="M89.5,93.15V93l.21,0s0,.1-.06.12S89.55,93.15,89.5,93.15Z"/><path d="M63,74.63a1.47,1.47,0,0,1-.61,2.11A2.39,2.39,0,0,1,59.8,76,1.5,1.5,0,0,1,60.58,74,1.86,1.86,0,0,1,63,74.63ZM61.66,75c-.06,0-.12-.07-.17-.06s-.09.08-.13.13a2.18,2.18,0,0,1,.23.09A1.11,1.11,0,0,1,61.66,75Z"/><path d="M80.6,84.1c-.43-.7-.24-1.17.65-1.57a2.05,2.05,0,0,1,2.39.41A2,2,0,0,1,83,85,2.16,2.16,0,0,1,80.6,84.1Z"/><path d="M62.56,54.4c.78.13,1.55.24,2.29.41.43.1.84.31.72.8a1.19,1.19,0,0,1-1.24.71c-.6,0-1.19,0-1.87-.07C62.64,55.64,61.85,55.09,62.56,54.4Z"/><path d="M82.54,62.51A5.41,5.41,0,0,1,86,61.67c.76.12.94.49.41,1a2.05,2.05,0,0,1-1.11.61A5,5,0,0,1,82.54,62.51Z"/><path d="M71,64.18a1,1,0,0,1-.41,1.36,1.39,1.39,0,0,1-1.64-.42,1.08,1.08,0,0,1,.54-1.43A1.26,1.26,0,0,1,71,64.18Z"/><path d="M102,84.45a3.3,3.3,0,0,1,.27.91c0,.56-.44.87-1.11.82-.89-.05-1.45-.47-1.4-1.05,0-.31.28-.58.58-.41C101,85.09,101.41,84.7,102,84.45Z"/><path d="M97.38,82.11A.8.8,0,0,1,97,83.2a1.19,1.19,0,0,1-1.46-.3,1,1,0,0,1,.59-1.15A1.06,1.06,0,0,1,97.38,82.11Z"/><path d="M73.3,77.93a3.82,3.82,0,0,1,1,.33c.27.22.09.66-.27.81s-.73.08-.85-.21S73.23,78.36,73.3,77.93Z"/><path d="M53.26,88a3.72,3.72,0,0,1,1.05.42c.09.08-.07.48-.25.63a.61.61,0,0,1-.91-.2C53.08,88.61,53.19,88.37,53.26,88Z"/><path d="M68.41,98.46a4,4,0,0,1,1,.41c.25.24.18.54-.19.72a.59.59,0,0,1-.85-.18C68.27,99.2,68.38,98.92,68.41,98.46Z"/><path d="M83,93.81a3.83,3.83,0,0,1,.87.45c.23.26.12.56-.26.71a.46.46,0,0,1-.67-.29A3.28,3.28,0,0,1,83,93.81Z"/><path d="M58.54,98.31a3.37,3.37,0,0,1-.91-.43c-.09-.1,0-.46.16-.55a.57.57,0,0,1,.82.21C58.69,97.7,58.58,97.93,58.54,98.31Z"/><path d="M68.2,61.8c-.12.65-.39.91-1,1C67.13,62.19,67.47,62,68.2,61.8Z"/><path d="M64.43,71.27c-.14.23-.2.47-.32.51a.66.66,0,0,1-.51-.18c-.05-.06.06-.34.15-.38A2.17,2.17,0,0,1,64.43,71.27Z"/><path d="M84.4,71.53c.22.11.4.15.48.25s-.11.3-.16.3a.92.92,0,0,1-.45-.14S84.33,71.73,84.4,71.53Z"/><path d="M80.06,64.17c.23.1.4.12.44.2s-.06.21-.14.29a.34.34,0,0,1-.27-.06C80,64.51,80.07,64.39,80.06,64.17Z"/><path d="M74.33,87c-.06.13-.07.25-.13.27s-.19,0-.27-.06,0-.14,0-.16A1.91,1.91,0,0,1,74.33,87Z"/><path d="M63.49,82.53l.31.14a1.06,1.06,0,0,1-.16.21s-.17,0-.18-.06A.83.83,0,0,1,63.49,82.53Z"/><path d="M69.32,56.52c.16,0,.31,0,.31.09a.24.24,0,0,1-.08.24s-.17,0-.27,0S69.3,56.68,69.32,56.52Z"/><path d="M95.25,87.9s.12.08.13.12-.07.09-.1.14-.13-.07-.13-.12S95.21,88,95.25,87.9Z"/><path d="M51.76,82.94c.06,0,.15,0,.18,0s0,.1,0,.14-.14,0-.17,0S51.76,83,51.76,82.94Z"/><path d="M79.62,92.34l-.08.14a.5.5,0,0,1-.14-.1s0-.08,0-.08Z"/><path d="M63.37,67.46a.77.77,0,0,0-.07.16l-.23-.1s.08-.11.13-.12S63.31,67.44,63.37,67.46Z"/><path d="M106.77,59.47a2.85,2.85,0,0,1-1.31.35.61.61,0,0,1-.32-.06,1.12,1.12,0,0,1-.65-1.34,1.58,1.58,0,0,1,.91-1,1.64,1.64,0,0,1,1.87.45,1.07,1.07,0,0,1,.1.89C107.3,59.12,107.2,59.43,106.77,59.47Z"/><path d="M100.89,84.34l0-.3c.37.09.54.35.43.67a3.58,3.58,0,0,1-.29.59.6.6,0,0,1-.25.19,1.2,1.2,0,0,1-1.61-.35c-.09-.12-.16-.26-.25-.39a2,2,0,0,1,.57-.79.57.57,0,0,1,.43-.19c.64,0,.67,0,.86.49,0,0,0,0,.06.08Z"/><path d="M112.66,73.82a3,3,0,0,0,.36-.34,1.08,1.08,0,0,1,1-.44h.34c.08,0,.2,0,.23,0,.19.26.47.48.45.82a.45.45,0,0,1,0,.11c0,.17,0,.41-.15.49a2.59,2.59,0,0,1-.91.36,1,1,0,0,1-1.16-.72A2.69,2.69,0,0,0,112.66,73.82Z"/><path d="M91.07,93.3c-.4.08-.4.08-.44-.19a1.75,1.75,0,0,1,0-.32c0-.3.19-.49.54-.56l.34,0a.62.62,0,0,1,.69.28,1,1,0,0,0,.38.39.79.79,0,0,1,.24.31.65.65,0,0,1-.43.84.86.86,0,0,1-1.12-.32Z"/><path d="M117,83.55a.85.85,0,0,0-.65.28.86.86,0,0,1-1,.08.72.72,0,0,1-.21-.9,1.24,1.24,0,0,1,1-.52,1,1,0,0,1,.83.43C117.14,83.11,117,83.33,117,83.55Zm-1.07-.38,0-.07-.37-.2C115.66,83.13,115.77,83.18,115.92,83.17Z"/><path d="M104,81.1l-.72,0c-.3,0-.58-.22-.57-.46a1.61,1.61,0,0,1,.2-.71c.12-.21.42-.2.65-.21a.66.66,0,0,1,.7,1C104.17,80.77,104.08,80.92,104,81.1Z"/><path d="M128.05,80a.88.88,0,0,1-1-.27c-.16-.24,0-.72.36-.87a1,1,0,0,1,1.19.34C128.66,79.39,128.34,79.88,128.05,80Zm-.39-.65h.1c0-.08,0-.17,0-.25s-.14,0-.14.06A.54.54,0,0,0,127.66,79.37Z"/><path d="M98,68.37a.83.83,0,0,1,.81,0,.59.59,0,0,1,.23.7.69.69,0,0,1-.61.44,2,2,0,0,1-.74-.26c-.17-.11,0-.31,0-.46S97.83,68.45,98,68.37Z"/><path d="M106.53,61.65a1,1,0,0,1-1-.28c-.15-.26.06-.65.42-.81a.72.72,0,0,1,.94.2A.62.62,0,0,1,106.53,61.65Z"/><path d="M111.35,65.76a.82.82,0,0,1-.72,0c-.07,0-.16-.13-.14-.19a3,3,0,0,1,.22-.64s.16-.09.25-.1a2,2,0,0,1,.42,0c.21,0,.42.15.39.32A.81.81,0,0,1,111.35,65.76Z"/><path d="M93.53,74.29a.61.61,0,0,1-.8-.14A.56.56,0,0,1,93,73.4a.63.63,0,0,1,.85.17C94,73.84,93.87,74.12,93.53,74.29Z"/><path d="M86.59,70a.37.37,0,0,1,.2-.55.47.47,0,0,1,.63.15.36.36,0,0,1-.15.53A.55.55,0,0,1,86.59,70Z"/><path d="M116,57.29a.37.37,0,0,1-.52-.14.39.39,0,0,1,.21-.46.43.43,0,0,1,.48.18C116.31,57.05,116.25,57.19,116,57.29Z"/><path d="M96.24,86.89a.32.32,0,0,1-.15.4.42.42,0,0,1-.51-.1c-.09-.13,0-.3.15-.39A.43.43,0,0,1,96.24,86.89Z"/><path d="M82.57,73.51a.26.26,0,0,1-.16.36.42.42,0,0,1-.49-.13c-.06-.12,0-.27.2-.35A.35.35,0,0,1,82.57,73.51Z"/><path d="M96.75,81.47a.31.31,0,0,1-.14.41.35.35,0,0,1-.44-.09c-.09-.12,0-.27.13-.37A.35.35,0,0,1,96.75,81.47Z"/><path d="M111.6,84.31c.26-.14.54-.1.62,0s0,.2-.12.27-.49.07-.55-.08S111.59,84.36,111.6,84.31Z"/><path d="M91,79.05c0,.1-.1.36-.26.41a.28.28,0,0,1-.34-.12.27.27,0,0,1,.16-.39A.39.39,0,0,1,91,79.05Z"/><path d="M94.48,79.74a2,2,0,0,1-.37.35.49.49,0,0,1-.34,0,.21.21,0,0,1-.07-.21c0-.13.16-.15.3-.15Z"/><path d="M124.28,68.45c-.23.12-.46.08-.53,0s0-.2.12-.27.44-.09.47,0A.54.54,0,0,1,124.28,68.45Z"/><path d="M87.63,71.05a.25.25,0,0,1-.33-.11.23.23,0,0,1,.15-.32.24.24,0,0,1,.34.1A.24.24,0,0,1,87.63,71.05Z"/><path d="M100.75,68.43c.29-.17.46-.17.54,0s0,.23-.12.3S100.9,68.72,100.75,68.43Z"/><path d="M97,72.65c.2-.24.38-.3.85-.25C97.44,72.68,97.24,72.74,97,72.65Z"/><path d="M119.29,72.73c-.18.09-.38.06-.4-.06a.29.29,0,0,1,.08-.25c.09-.08.32,0,.35.07S119.3,72.67,119.29,72.73Z"/><path d="M106.72,62.75a1.18,1.18,0,0,1-.37-.13c-.09-.09,0-.2.08-.27s.32-.05.35.06A1,1,0,0,1,106.72,62.75Z"/><path d="M103.47,74c-.1.16-.13.28-.22.34a.2.2,0,1,1-.19-.35A1.15,1.15,0,0,1,103.47,74Z"/><path d="M118.42,82.66a1.84,1.84,0,0,1,.38.14c.09.09,0,.21-.09.27s-.27.05-.32-.06A.93.93,0,0,1,118.42,82.66Z"/><path d="M84.89,76.2c-.08.14-.1.25-.18.32s-.26,0-.3-.08a.18.18,0,0,1,.12-.27A1.25,1.25,0,0,1,84.89,76.2Z"/><path d="M118.41,60.58c-.17-.06-.3-.07-.35-.13s0-.18.08-.23a.21.21,0,0,1,.31.06C118.48,60.34,118.43,60.43,118.41,60.58Z"/><path d="M115.72,84.81c-.16.09-.39.09-.44,0a.2.2,0,0,1,0-.18c.13-.1.38-.08.43,0S115.74,84.77,115.72,84.81Z"/><path d="M105.19,78.6c.14.05.26.06.32.12s0,.2-.1.22a.38.38,0,0,1-.28-.07S105.16,78.73,105.19,78.6Z"/><path d="M104.71,85.36c.12,0,.26.06.26.09a.25.25,0,0,1-.09.23c-.06,0-.18,0-.28,0Z"/><path d="M97.19,77.57c.15,0,.28,0,.3.08a.28.28,0,0,1-.06.23.29.29,0,0,1-.24,0S97.19,77.7,97.19,77.57Z"/><path d="M112.42,59.48c.11,0,.23.06.24.1a.24.24,0,0,1-.09.19s-.18,0-.19-.05S112.4,59.59,112.42,59.48Z"/><path d="M94.2,68.09a1.13,1.13,0,0,1-.27.22s-.11,0-.16,0a.7.7,0,0,1,.15-.23S94.05,68.06,94.2,68.09Z"/><path d="M86.08,79.84a.3.3,0,0,1-.42.16s0-.1,0-.12A.35.35,0,0,1,86.08,79.84Z"/><path d="M86.12,81c-.11,0-.22,0-.24-.07s0-.14,0-.22.2,0,.23,0S86.14,80.9,86.12,81Z"/><path d="M100.3,68.7c.1,0,.2,0,.22.09s0,.11,0,.18a.84.84,0,0,1-.24-.07S100.27,68.79,100.3,68.7Z"/><path d="M101.13,80.45c0,.08-.07.16-.11.17a.85.85,0,0,1-.22,0c0-.06,0-.15.09-.17S101,80.43,101.13,80.45Z"/><path d="M110.37,69.92c0,.15-.06.23-.21.2s-.09-.09-.08-.12S110.24,69.89,110.37,69.92Z"/><path d="M94.13,92c-.06.07-.08.14-.13.15s-.11,0-.17,0,0-.12.08-.14S94,92,94.13,92Z"/><path d="M93.55,87.79c-.12,0-.21,0-.25-.07s0-.14,0-.15a.3.3,0,0,1,.21,0S93.55,87.69,93.55,87.79Z"/><path d="M105.88,65.05l-.44,0C105.68,64.84,105.68,64.84,105.88,65.05Z"/><path d="M116.87,75.85c-.07.08-.1.15-.15.16a.21.21,0,0,1-.15-.07s0-.1.07-.11A1.11,1.11,0,0,1,116.87,75.85Z"/><path d="M125.12,70.73a.87.87,0,0,1-.12.2.45.45,0,0,1-.14,0,.51.51,0,0,1,.07-.17S125,70.74,125.12,70.73Z"/><path d="M97.39,85l-.43.16a.14.14,0,0,0,0-.06l.41-.19A.36.36,0,0,0,97.39,85Z"/><path d="M110.33,81.42c0,.07-.06.14-.08.15l-.18,0s0-.11,0-.12A.8.8,0,0,1,110.33,81.42Z"/><path d="M93.58,87.07l-.17-.19C93.5,86.79,93.52,86.82,93.58,87.07Z"/><path d="M90.08,81.82c-.21.24-.21.24-.39.08Z"/><path d="M104.8,67.8c-.08,0-.15,0-.17,0s0-.08,0-.12.12,0,.15,0S104.8,67.73,104.8,67.8Z"/><path d="M99.36,63.71l-.45-.05C99.18,63.6,99.18,63.6,99.36,63.71Z"/><path d="M86.31,69a.61.61,0,0,1-.07.13.75.75,0,0,1-.16,0s0-.09.07-.11A.56.56,0,0,1,86.31,69Z"/><path d="M97.63,92.67c0,.07,0,.14-.06.14a.36.36,0,0,1-.18,0,.18.18,0,0,1,0-.12A1.44,1.44,0,0,1,97.63,92.67Z"/><path d="M103.27,64.13l-.16,0a1.17,1.17,0,0,0,0-.11.58.58,0,0,1,.14.05S103.29,64.08,103.27,64.13Z"/><path d="M92.44,82.52a.36.36,0,0,1,.11.1s0,.1,0,.12a.17.17,0,0,1-.14,0s0-.08,0-.12Z"/><path d="M113.41,69c-.07.08-.09.12-.11.12a.17.17,0,0,1-.11,0l.06-.08Z"/><path d="M112.69,67.47l.23.1,0,.05-.24,0Z"/><path d="M96.89,66l-.12.14s0,0-.06-.06,0,0,0,0Z"/><path d="M115.92,83.17c-.15,0-.26,0-.32-.27l.37.2Z"/><path d="M127.66,79.37a.54.54,0,0,1,0-.18s0,0,.14-.06,0,.17,0,.25Z"/><path d="M77,14.4l-.94.33c-.29-.38-.08-.65.11-.92Z"/><path d="M50.21,15.65a1.11,1.11,0,0,1-1.28,0,.51.51,0,0,1,0-.84,1.09,1.09,0,0,1,1.2,0A.53.53,0,0,1,50.21,15.65Z"/><path d="M50.61,42.82c.8.1.81.1.94.81C50.6,43.66,50.57,43.64,50.61,42.82Z"/><path d="M35.9,19c0-.26,0-.44,0-.62.22,0,.51,0,.63.05s.07.33.1.51Z"/><path d="M34.53,40.76c.35,0,.61,0,.7.08s.06.32,0,.46a.61.61,0,0,1-.48,0C34.63,41.23,34.63,41,34.53,40.76Z"/><path d="M66.05,32.26c-.14.16-.21.3-.29.31a2.91,2.91,0,0,1-.66,0,.3.3,0,0,1,0-.2,2.83,2.83,0,0,1,.55-.21C65.7,32.12,65.82,32.2,66.05,32.26Z"/><path d="M62.24,9.6c.09-.24.11-.43.19-.45a2.16,2.16,0,0,1,.57,0c0,.1,0,.25-.06.28A4.09,4.09,0,0,1,62.24,9.6Z"/><path d="M43.3,12.13c.28-.1.47-.06.52.2,0,0-.09.16-.15.16C43.37,12.52,43.24,12.39,43.3,12.13Z"/><path d="M30.85,40.69a1.63,1.63,0,0,1,.11-.46s.2,0,.31,0a2.43,2.43,0,0,1,0,.47A1.86,1.86,0,0,1,30.85,40.69Z"/><path d="M5.72,85.65c0-.18,0-.31,0-.35a.48.48,0,0,1,.32,0s.06.16,0,.2A1.93,1.93,0,0,1,5.72,85.65Z"/><path d="M29.07,31.62c0-.13,0-.25,0-.26a.8.8,0,0,1,.31,0s.05.16,0,.18A1.4,1.4,0,0,1,29.07,31.62Z"/><path d="M61.61,31.27c-.13,0-.23.07-.29,0s0-.12-.07-.18a.48.48,0,0,1,.25-.06S61.56,31.18,61.61,31.27Z"/><path d="M47.09,38.07a.76.76,0,0,1,.21.08s0,.12,0,.11a.78.78,0,0,1-.22,0Z"/><path d="M5.06,81.21l0-.13.07,0a.47.47,0,0,1,.1.1Z"/><path d="M29.42,65.56s.12,0,.15,0,0-.09.06-.13h-.21Z"/><path d="M10.12,57.24c.58.42.59.82,0,1.34a1.81,1.81,0,0,1-2,.27,1.49,1.49,0,0,1-.22-1.67A2,2,0,0,1,10.12,57.24Z"/><path d="M34.57,75.19c-.65.08-1.29.19-1.94.24-.37,0-.76,0-.84-.43s.23-.68.73-.83.94-.26,1.49-.4C34.08,74.28,34.89,74.49,34.57,75.19Z"/><path d="M16.06,73.94a4.12,4.12,0,0,1-2.43,1.48c-.64.09-.91-.14-.67-.66a1.39,1.39,0,0,1,.66-.73A4.46,4.46,0,0,1,16.06,73.94Z"/><path d="M24.57,69.88a.74.74,0,0,1-.15-1.13,1.24,1.24,0,0,1,1.44-.07.81.81,0,0,1,.06,1.2A1.16,1.16,0,0,1,24.57,69.88Z"/><path d="M-2.39,62.82a.61.61,0,0,1-.09-.91,1.07,1.07,0,0,1,1.26-.14.75.75,0,0,1-.07,1A1,1,0,0,1-2.39,62.82Z"/><path d="M18,60.1a3.74,3.74,0,0,1-.9,0,.39.39,0,0,1-.07-.68.53.53,0,0,1,.74,0C17.9,59.51,17.89,59.76,18,60.1Z"/><path d="M30.28,47.69a3.8,3.8,0,0,1-1,0c-.1,0-.11-.38,0-.54a.55.55,0,0,1,.79-.08C30.19,47.16,30.18,47.37,30.28,47.69Z"/><path d="M14.73,43.48a4.07,4.07,0,0,1-.93-.07c-.28-.12-.32-.37-.09-.59a.5.5,0,0,1,.72-.07C14.58,42.88,14.59,43.12,14.73,43.48Z"/><path d="M4.86,50.52A3.4,3.4,0,0,1,4,50.39c-.27-.14-.29-.39,0-.59a.43.43,0,0,1,.63.05A2.89,2.89,0,0,1,4.86,50.52Z"/><path d="M22.54,41.18a3.29,3.29,0,0,1,.87.11.41.41,0,0,1,.06.45.51.51,0,0,1-.72,0C22.63,41.68,22.64,41.49,22.54,41.18Z"/><path d="M27.58,71a.68.68,0,0,1,.47-1C28.28,70.44,28.1,70.68,27.58,71Z"/><path d="M27.27,63c0-.22,0-.41.07-.47a.61.61,0,0,1,.46,0c.07,0,.08.28,0,.32A2,2,0,0,1,27.27,63Z"/><path d="M11.48,67.61a1.28,1.28,0,0,1-.47-.07s0-.25,0-.26a.81.81,0,0,1,.41,0C11.49,67.29,11.46,67.45,11.48,67.61Z"/><path d="M17.43,72.09c-.21,0-.36,0-.41,0s0-.17,0-.25.19,0,.24,0S17.35,71.93,17.43,72.09Z"/><path d="M14,53.51c0-.11,0-.2,0-.23a.35.35,0,0,1,.23,0s.05.11,0,.13A.91.91,0,0,1,14,53.51Z"/><path d="M24.1,54.26l-.29,0a1.17,1.17,0,0,1,.06-.2A.29.29,0,0,1,24,54,.7.7,0,0,1,24.1,54.26Z"/><path d="M28.52,75.24c-.14,0-.25,0-.27,0a.18.18,0,0,1,0-.2c0-.05.13-.07.19-.1Z"/><path d="M-2.72,57.94s-.12,0-.14-.06,0-.08,0-.13.12,0,.14.06S-2.71,57.9-2.72,57.94Z"/><path d="M33.18,51.1s-.11,0-.13,0,0-.07-.06-.11.11-.05.14,0S33.17,51.06,33.18,51.1Z"/><path d="M8,50.8s0-.08,0-.13l.14,0s0,.07,0,.07Z"/><path d="M29.42,65.56v-.13h.21s0,.11-.06.13S29.47,65.56,29.42,65.56Z"/><path d="M4.65,39.52A1.47,1.47,0,0,1,4,41.63a2.39,2.39,0,0,1-2.61-.71,1.5,1.5,0,0,1,.78-2.08A1.88,1.88,0,0,1,4.65,39.52Zm-1.36.35c-.06,0-.12-.07-.17-.06s-.09.08-.13.13l.23.09Z"/><path d="M20.52,56.51c-.43-.7-.24-1.16.65-1.57a2.07,2.07,0,0,1,2.39.41,2,2,0,0,1-.61,2A2.17,2.17,0,0,1,20.52,56.51Z"/><path d="M2.48,26.81c.78.14,1.55.24,2.29.41.43.1.84.31.72.81a1.2,1.2,0,0,1-1.24.71c-.6,0-1.19,0-1.87-.08C2.56,28.05,1.77,27.51,2.48,26.81Z"/><path d="M18.93,33.29a5.41,5.41,0,0,1,3.46-.84c.76.12.94.49.41,1a2,2,0,0,1-1.12.61A4.94,4.94,0,0,1,18.93,33.29Z"/><path d="M10.9,36.6A1,1,0,0,1,10.49,38a1.37,1.37,0,0,1-1.64-.42,1.09,1.09,0,0,1,.54-1.43A1.27,1.27,0,0,1,10.9,36.6Z"/><path d="M42,56.86a3.3,3.3,0,0,1,.27.91c0,.56-.44.87-1.11.83-.89-.06-1.45-.48-1.4-1.06,0-.31.28-.58.58-.4C40.89,57.5,41.33,57.12,42,56.86Z"/><path d="M37.3,54.52a.8.8,0,0,1-.36,1.09c-.52.25-1.29.1-1.47-.29a1,1,0,0,1,.59-1.15A1.05,1.05,0,0,1,37.3,54.52Z"/><path d="M13.22,50.35a3.76,3.76,0,0,1,1,.32c.27.22.09.66-.27.81s-.73.08-.85-.21S13.15,50.78,13.22,50.35Z"/><path d="M8.33,70.87a4.08,4.08,0,0,1,1,.42c.24.23.17.54-.2.72a.6.6,0,0,1-.85-.19C8.19,71.62,8.3,71.33,8.33,70.87Z"/><path d="M22.93,66.23c.43.21.73.28.87.45s.12.55-.25.7a.47.47,0,0,1-.68-.28A3.26,3.26,0,0,1,22.93,66.23Z"/><path d="M8.12,34.21a1,1,0,0,1-1,1C7.05,34.6,7.39,34.39,8.12,34.21Z"/><path d="M4.35,43.68c-.14.24-.2.48-.32.52A.72.72,0,0,1,3.52,44c0-.06.06-.34.16-.37A1.81,1.81,0,0,1,4.35,43.68Z"/><path d="M24.32,43.94c.22.11.4.15.48.25s-.11.3-.15.3a.78.78,0,0,1-.46-.14C24.14,44.32,24.25,44.14,24.32,43.94Z"/><path d="M20,36.58c.22.1.4.13.43.2s-.05.21-.13.29S20,37.07,20,37,20,36.8,20,36.58Z"/><path d="M14.25,59.44c-.06.12-.07.24-.13.27s-.19,0-.27-.06,0-.15.05-.16A1.31,1.31,0,0,1,14.25,59.44Z"/><path d="M3.41,55l.31.13a1.06,1.06,0,0,1-.16.21s-.17,0-.18-.06S3.4,55.08,3.41,55Z"/><path d="M9.24,28.93c.16.05.31.06.31.1a.26.26,0,0,1-.08.24c-.05,0-.17,0-.27,0S9.23,29.1,9.24,28.93Z"/><path d="M35.17,60.32s.12.07.13.12-.07.09-.1.13-.13-.07-.13-.11S35.13,60.36,35.17,60.32Z"/><path d="M19.55,64.75l-.09.15-.14-.11s0-.07,0-.07A1.08,1.08,0,0,1,19.55,64.75Z"/><path d="M3.29,39.87,3.22,40,3,39.94s.08-.12.13-.13S3.23,39.85,3.29,39.87Z"/><path d="M46.69,31.88a2.74,2.74,0,0,1-1.31.35.52.52,0,0,1-.32,0,1.13,1.13,0,0,1-.65-1.34,1.58,1.58,0,0,1,.92-1,1.63,1.63,0,0,1,1.86.45,1.07,1.07,0,0,1,.1.89C47.23,31.53,47.12,31.84,46.69,31.88Z"/><path d="M40.81,56.75l0-.3c.37.09.54.35.43.67a3.32,3.32,0,0,1-.29.6.6.6,0,0,1-.25.19,1.22,1.22,0,0,1-1.61-.35c-.09-.13-.16-.26-.25-.39a2.11,2.11,0,0,1,.57-.8.62.62,0,0,1,.44-.19c.63,0,.66,0,.85.49a.47.47,0,0,0,.06.09Z"/><path d="M52.58,46.24c.14-.14.27-.23.36-.34a1.09,1.09,0,0,1,1-.45h.33c.08,0,.2,0,.23.06.19.25.47.47.45.82a.36.36,0,0,1,0,.1c0,.17,0,.41-.16.49a2.41,2.41,0,0,1-.91.36,1,1,0,0,1-1.16-.71A1.5,1.5,0,0,0,52.58,46.24Z"/><path d="M31,65.72c-.39.07-.4.07-.44-.2a1.65,1.65,0,0,1,0-.31.58.58,0,0,1,.54-.57l.34,0a.63.63,0,0,1,.69.29,1,1,0,0,0,.38.39.81.81,0,0,1,.25.3.66.66,0,0,1-.43.84.86.86,0,0,1-1.12-.32C31.1,66,31.05,65.86,31,65.72Z"/><path d="M56.91,56a.81.81,0,0,0-.64.27.88.88,0,0,1-1,.09.71.71,0,0,1-.2-.9,1.2,1.2,0,0,1,1-.53,1,1,0,0,1,.83.44C57.06,55.53,57,55.74,56.91,56Zm-1.07-.38a.35.35,0,0,1,0-.08l-.37-.19C55.58,55.55,55.69,55.59,55.84,55.59Z"/><path d="M43.91,53.51l-.72,0c-.29,0-.58-.21-.57-.46a1.65,1.65,0,0,1,.2-.71c.12-.2.42-.2.65-.21.6,0,1,.49.7,1Z"/><path d="M68,52.43a.88.88,0,0,1-1-.26.71.71,0,0,1,.36-.88,1.06,1.06,0,0,1,1.19.34C68.58,51.8,68.26,52.3,68,52.43Zm-.39-.65.1,0c0-.09,0-.17,0-.26s-.14,0-.14.07A1,1,0,0,0,67.58,51.78Z"/><path d="M38,40.79a.82.82,0,0,1,.82,0,.6.6,0,0,1,.22.7.67.67,0,0,1-.61.44,1.77,1.77,0,0,1-.73-.26c-.18-.11-.06-.31,0-.46S37.75,40.86,38,40.79Z"/><path d="M46.45,34.06a1,1,0,0,1-1-.27c-.14-.26.06-.66.42-.82a.73.73,0,0,1,.95.2A.63.63,0,0,1,46.45,34.06Z"/><path d="M51.28,38.18a.88.88,0,0,1-.73,0c-.07,0-.16-.14-.14-.2a3.24,3.24,0,0,1,.22-.64s.16-.09.25-.1a3.09,3.09,0,0,1,.43,0c.2,0,.41.16.38.33A.86.86,0,0,1,51.28,38.18Z"/><path d="M33.45,46.71a.62.62,0,0,1-.8-.14.57.57,0,0,1,.23-.76.63.63,0,0,1,.85.18C33.9,46.26,33.79,46.54,33.45,46.71Z"/><path d="M69.67,55.29a3.73,3.73,0,0,1,.37-.23.39.39,0,0,1,.48.08,1.21,1.21,0,0,1,.21.25c0,.09.06.22,0,.28a.39.39,0,0,1-.32.13C70.09,55.73,69.78,55.63,69.67,55.29Z"/><path d="M26.51,42.41a.37.37,0,0,1,.2-.55.48.48,0,0,1,.63.15.36.36,0,0,1-.14.53A.56.56,0,0,1,26.51,42.41Z"/><path d="M58.85,58.43a.5.5,0,0,1,.56.11.34.34,0,0,1-.18.44.5.5,0,0,1-.53-.07C58.6,58.79,58.69,58.52,58.85,58.43Z"/><path d="M56,29.7a.36.36,0,0,1-.51-.13.38.38,0,0,1,.2-.47.44.44,0,0,1,.49.19C56.23,29.47,56.17,29.61,56,29.7Z"/><path d="M36.16,59.3a.32.32,0,0,1-.15.41.43.43,0,0,1-.51-.1.26.26,0,0,1,.15-.39A.42.42,0,0,1,36.16,59.3Z"/><path d="M22.49,45.93a.25.25,0,0,1-.15.35.42.42,0,0,1-.5-.13c-.06-.12,0-.26.21-.34A.33.33,0,0,1,22.49,45.93Z"/><path d="M36.67,53.88a.33.33,0,0,1-.14.42.38.38,0,0,1-.44-.09c-.09-.13,0-.28.13-.38A.35.35,0,0,1,36.67,53.88Z"/><path d="M51.52,56.72c.26-.13.54-.1.62,0s0,.2-.12.27-.49.07-.55-.08S51.51,56.77,51.52,56.72Z"/><path d="M30.94,51.46c0,.1-.1.36-.26.42a.28.28,0,0,1-.18-.52A.4.4,0,0,1,30.94,51.46Z"/><path d="M34.4,52.16a2.93,2.93,0,0,1-.36.35.5.5,0,0,1-.34,0c-.06,0-.1-.14-.08-.21s.16-.15.3-.15Z"/><path d="M64.2,40.87c-.22.12-.46.08-.53,0s0-.2.13-.27.43-.08.46.05A.6.6,0,0,1,64.2,40.87Z"/><path d="M27.55,43.46a.25.25,0,0,1-.33-.1.27.27,0,0,1,.49-.23A.23.23,0,0,1,27.55,43.46Z"/><path d="M40.67,40.84c.29-.16.46-.17.54,0s0,.22-.12.3S40.82,41.14,40.67,40.84Z"/><path d="M36.89,45.06c.2-.24.38-.29.85-.24C37.36,45.09,37.17,45.15,36.89,45.06Z"/><path d="M59.21,45.15c-.18.09-.38.05-.4-.07a.28.28,0,0,1,.08-.24c.09-.09.32-.05.35.06S59.22,45.09,59.21,45.15Z"/><path d="M46.64,35.17c-.17-.06-.3-.07-.36-.14s-.05-.2.07-.27.32,0,.35.07A1.09,1.09,0,0,1,46.64,35.17Z"/><path d="M43.39,46.46a1.56,1.56,0,0,1-.21.34.23.23,0,0,1-.32-.06.21.21,0,0,1,.12-.3A1.55,1.55,0,0,1,43.39,46.46Z"/><path d="M58.34,55.07c.18.07.31.08.38.15s0,.2-.09.27a.22.22,0,0,1-.32-.07C58.28,55.35,58.32,55.24,58.34,55.07Z"/><path d="M24.81,48.61a1.39,1.39,0,0,1-.18.33c-.07.07-.26,0-.3-.09a.17.17,0,0,1,.12-.26A1.18,1.18,0,0,1,24.81,48.61Z"/><path d="M58.33,33c-.17-.05-.3-.06-.35-.13s0-.17.08-.22a.2.2,0,0,1,.31,0C58.4,32.75,58.35,32.85,58.33,33Z"/><path d="M55.65,57.23c-.17.09-.4.08-.45,0a.18.18,0,0,1,0-.17c.13-.11.39-.09.43,0S55.66,57.19,55.65,57.23Z"/><path d="M45.11,51c.14.05.26.06.32.12s0,.2-.1.23a.36.36,0,0,1-.28-.08S45.08,51.14,45.11,51Z"/><path d="M44.63,57.77c.12,0,.26.06.26.09s0,.2-.09.23-.18,0-.28,0Z"/><path d="M37.11,50c.15,0,.29.05.3.08a.3.3,0,0,1-.06.24s-.21,0-.23,0S37.11,50.11,37.11,50Z"/><path d="M52.34,31.89c.12.05.23.06.24.1a.23.23,0,0,1-.09.19s-.18,0-.19,0S52.32,32,52.34,31.89Z"/><path d="M34.12,40.51a3.08,3.08,0,0,1-.26.22s-.11,0-.17-.06a.7.7,0,0,1,.15-.23S34,40.47,34.12,40.51Z"/><path d="M26,52.25a.3.3,0,0,1-.42.16s0-.1,0-.12A.36.36,0,0,1,26,52.25Z"/><path d="M26.05,53.43c-.12,0-.23,0-.25-.08s0-.14,0-.21.2,0,.24,0S26.06,53.32,26.05,53.43Z"/><path d="M40.22,41.11c.1,0,.2,0,.23.09s0,.12-.06.18a.84.84,0,0,1-.24-.06S40.19,41.2,40.22,41.11Z"/><path d="M71.42,55c0-.11.11-.22.17-.36C71.78,54.91,71.76,54.94,71.42,55Z"/><path d="M41.05,52.87c0,.07-.07.15-.11.16a.93.93,0,0,1-.22,0c0-.06,0-.15.09-.17S41,52.84,41.05,52.87Z"/><path d="M50.3,42.34c0,.14-.07.22-.22.2s-.09-.09-.07-.13S50.17,42.3,50.3,42.34Z"/><path d="M34.05,64.42c-.06.08-.09.14-.13.16s-.11,0-.17,0,0-.12.09-.13S34,64.41,34.05,64.42Z"/><path d="M33.47,60.21a1,1,0,0,1-.25-.08s0-.13,0-.14a.3.3,0,0,1,.21,0S33.47,60.11,33.47,60.21Z"/><path d="M45.8,37.47l-.44,0C45.6,37.26,45.6,37.26,45.8,37.47Z"/><path d="M56.79,48.27c-.07.07-.1.14-.15.15a.17.17,0,0,1-.14-.07s0-.1.07-.11A.73.73,0,0,1,56.79,48.27Z"/><path d="M65,43.15a.78.78,0,0,1-.12.19s-.09,0-.13,0a.55.55,0,0,1,.06-.18S65,43.15,65,43.15Z"/><path d="M37.31,57.43l-.42.15,0,0,.41-.19Z"/><path d="M50.25,53.83c0,.08-.06.14-.08.15A.57.57,0,0,1,50,54s0-.11,0-.12A.8.8,0,0,1,50.25,53.83Z"/><path d="M33.5,59.48l-.17-.19C33.42,59.21,33.45,59.23,33.5,59.48Z"/><path d="M30,54.24c-.21.23-.21.23-.39.07Z"/><path d="M44.72,40.21c-.08,0-.15,0-.17,0s0-.08,0-.12.11,0,.14,0S44.72,40.14,44.72,40.21Z"/><path d="M39.28,36.12l-.45,0C39.1,36,39.1,36,39.28,36.12Z"/><path d="M26.24,41.45c0,.06-.06.13-.08.13a.75.75,0,0,1-.16,0,.3.3,0,0,1,.07-.11A.66.66,0,0,1,26.24,41.45Z"/><path d="M60.86,58.83a.49.49,0,0,1,.13.08s0,.08-.06.07a.28.28,0,0,1-.13,0Z"/><path d="M37.55,65.08c0,.07,0,.14-.06.15a.24.24,0,0,1-.17,0s0-.1,0-.11A.66.66,0,0,1,37.55,65.08Z"/><path d="M43.19,36.55l-.16,0a1.17,1.17,0,0,1,0-.11l.14,0S43.21,36.5,43.19,36.55Z"/><path d="M32.36,54.93s.09.06.11.1a.1.1,0,0,1,0,.12.14.14,0,0,1-.14,0s0-.07,0-.11Z"/><path d="M53.33,41.45c-.07.08-.09.12-.12.13s-.06,0-.09,0,0-.07.06-.08S53.25,41.46,53.33,41.45Z"/><path d="M52.61,39.88l.22.11v0l-.24,0Z"/><path d="M36.81,38.44l-.12.14s0,0-.06,0,0-.05,0-.06Z"/><path d="M55.84,55.59c-.15,0-.26,0-.32-.27l.37.19A.35.35,0,0,0,55.84,55.59Z"/><path d="M67.58,51.78a1,1,0,0,1,0-.17s0,0,.14-.07,0,.17,0,.26Z"/><path d="M28.14,46.18c-.8.19-1,.21-1.16-.23a1.62,1.62,0,0,0-1.71-.9A1.08,1.08,0,0,1,25,45l1-1c1.12.37,2.16-.18,3.23-.36l1.37-.23c.49-.08,1-.15,1.47-.25s.71-.23,1.1,0a1.41,1.41,0,0,1-1.3.53,3.25,3.25,0,0,0-1.63.33c-.86.38-1,.69-.81,1.47,0,.07,0,.15.06.25a2.16,2.16,0,0,1-1.38.41c0-.14.06-.28.08-.43l-.13,0C28.1,45.9,28.12,46,28.14,46.18Z"/><path d="M35.37,34.94a1.36,1.36,0,0,1,.43.1c.25.15.33.38.1.6a.47.47,0,0,1-.65,0,2.66,2.66,0,0,1-.26-.31C35.12,35.19,35.25,35.07,35.37,34.94Z"/><path d="M40.85,57.93c-.55-.4-.61-.74-.2-1.12a1.27,1.27,0,0,1,1.72-.23A.82.82,0,0,1,42.48,58,1.17,1.17,0,0,1,40.85,57.93Z"/><path d="M30.12,53.4a1.31,1.31,0,0,1,1.58-.23.86.86,0,0,1,.1,1.27,1.57,1.57,0,0,1-1.61.29A.87.87,0,0,1,30.12,53.4Z"/><path d="M36.56,55.72c-.6.59-1,.57-1.45.07s-.66-.78-.35-1.33a.58.58,0,0,1,.74-.32,1.6,1.6,0,0,1,1.16,1C36.73,55.34,36.58,55.61,36.56,55.72Z"/><path d="M100.16-16.93l-1.25.4a.72.72,0,0,0,.19.25,1.1,1.1,0,0,0,1.27,0h0Z"/><path d="M33.58,51.23a.61.61,0,0,1,.84-.18.39.39,0,0,1,.13.65.54.54,0,0,1-.73.08C33.66,51.63,33.64,51.37,33.58,51.23Z"/><path d="M25.32,46.9a1,1,0,0,1,1-.89C26.57,46.76,26.32,47,25.32,46.9Z"/><path d="M100.77,10.87c.81.1.81.11.94.81C100.76,11.72,100.73,11.69,100.77,10.87Z"/><path d="M84.69,8.81c.35,0,.61,0,.7.08a.45.45,0,0,1,0,.46.58.58,0,0,1-.47,0C84.79,9.28,84.79,9.09,84.69,8.81Z"/><path d="M81,8.74a1.63,1.63,0,0,1,.11-.46s.2,0,.31,0a3.65,3.65,0,0,1,0,.47A2.09,2.09,0,0,1,81,8.74Z"/><path d="M55.88,53.7c0-.18,0-.31,0-.35a.49.49,0,0,1,.32,0s.06.16,0,.2A1.46,1.46,0,0,1,55.88,53.7Z"/><path d="M79.23-.33c0-.13,0-.25,0-.26a.8.8,0,0,1,.31,0s0,.16,0,.18A1.51,1.51,0,0,1,79.23-.33Z"/><path d="M23.29,47.37s0,.1,0,.12-.1,0-.15,0a1,1,0,0,1,0-.17Z"/><path d="M97.25,6.12a1,1,0,0,1,.21.08.26.26,0,0,1,0,.12l-.22-.05Z"/><path d="M55.22,49.26l0-.12.07,0a.87.87,0,0,1,.11.09Z"/><path d="M28.14,46.18c0-.14,0-.28-.07-.41l.13,0c0,.15-.05.29-.08.43Z"/><path d="M79.58,33.61s.12,0,.15,0,0-.08.06-.13h-.21Z"/><path d="M60.28,25.29c.58.42.59.82,0,1.34a1.81,1.81,0,0,1-2,.27,1.49,1.49,0,0,1-.22-1.67A2,2,0,0,1,60.28,25.29Z"/><path d="M84.74,43.24c-.66.09-1.3.2-1.95.24-.37,0-.76,0-.84-.42s.23-.69.73-.84.95-.25,1.49-.4C84.24,42.33,85.05,42.54,84.74,43.24Z"/><path d="M66.22,42a4.07,4.07,0,0,1-2.43,1.48c-.64.09-.91-.14-.67-.66a1.4,1.4,0,0,1,.67-.73A4.51,4.51,0,0,1,66.22,42Z"/><path d="M74.73,37.93a.73.73,0,0,1-.15-1.12A1.23,1.23,0,0,1,76,36.73a.81.81,0,0,1,.07,1.2A1.15,1.15,0,0,1,74.73,37.93Z"/><path d="M43.31,30.24a3.19,3.19,0,0,1-.53-.62c-.2-.42,0-.76.59-.89.71-.17,1.3,0,1.46.45.09.24,0,.5-.31.45C43.92,29.5,43.71,29.9,43.31,30.24Z"/><path d="M47.77,30.87a.61.61,0,0,1-.09-.91,1.09,1.09,0,0,1,1.26-.14.75.75,0,0,1-.07,1A1,1,0,0,1,47.77,30.87Z"/><path d="M68.15,28.15a3.28,3.28,0,0,1-.9,0,.39.39,0,0,1-.07-.68.53.53,0,0,1,.74,0C68.06,27.56,68.05,27.81,68.15,28.15Z"/><path d="M80.44,15.74a3.8,3.8,0,0,1-1-.05c-.1,0-.11-.38,0-.54a.54.54,0,0,1,.79-.07C80.35,15.21,80.34,15.42,80.44,15.74Z"/><path d="M64.89,11.53a4.07,4.07,0,0,1-.93-.07.33.33,0,0,1-.09-.59.52.52,0,0,1,.73-.07C64.74,10.94,64.76,11.17,64.89,11.53Z"/><path d="M55,18.57a3.49,3.49,0,0,1-.84-.13c-.27-.14-.28-.38,0-.59a.43.43,0,0,1,.63,0A3.09,3.09,0,0,1,55,18.57Z"/><path d="M72.7,9.23a3.29,3.29,0,0,1,.87.11.41.41,0,0,1,.06.45.5.5,0,0,1-.72,0C72.8,9.73,72.8,9.54,72.7,9.23Z"/><path d="M77.74,39a.69.69,0,0,1,.47-1C78.45,38.49,78.26,38.74,77.74,39Z"/><path d="M77.43,31c0-.22,0-.41.07-.47a.62.62,0,0,1,.46,0c.07,0,.08.27,0,.32A2.22,2.22,0,0,1,77.43,31Z"/><path d="M61.64,35.67a1.55,1.55,0,0,1-.47-.08c-.05,0,0-.24,0-.25a.72.72,0,0,1,.41,0S61.63,35.5,61.64,35.67Z"/><path d="M67.59,40.15c-.21,0-.36,0-.41,0s0-.17,0-.25a.32.32,0,0,1,.24,0C67.5,39.88,67.51,40,67.59,40.15Z"/><path d="M64.19,21.57c0-.11,0-.21,0-.24a.38.38,0,0,1,.24,0s0,.11,0,.13A1.23,1.23,0,0,1,64.19,21.57Z"/><path d="M74.26,22.31l-.28,0a.53.53,0,0,1,0-.19s.14,0,.16,0A.71.71,0,0,1,74.26,22.31Z"/><path d="M78.69,43.29c-.14,0-.26,0-.28,0a.2.2,0,0,1,0-.2c0-.05.13-.07.19-.1S78.64,43.16,78.69,43.29Z"/><path d="M47.44,26s-.12,0-.14-.06,0-.08,0-.12.12,0,.13.05S47.45,26,47.44,26Z"/><path d="M83.35,19.15s-.11.05-.14,0,0-.07,0-.11.1-.05.14,0S83.33,19.11,83.35,19.15Z"/><path d="M58.19,18.85s0-.08,0-.12l.15,0s0,.07,0,.07Z"/><path d="M79.58,33.61v-.13h.21s0,.11-.06.13S79.63,33.62,79.58,33.61Z"/><path d="M54.82,7.58a1.47,1.47,0,0,1-.62,2.1A2.39,2.39,0,0,1,51.59,9a1.5,1.5,0,0,1,.79-2.08A1.87,1.87,0,0,1,54.82,7.58Zm-1.37.35c-.06,0-.12-.08-.17-.07s-.08.08-.13.13l.23.09Z"/><path d="M68.34,24.88c-.43-.7-.24-1.16.65-1.57a2.05,2.05,0,0,1,2.39.41,2,2,0,0,1-.62,2A2.14,2.14,0,0,1,68.34,24.88Z"/><path d="M72.63,3a5.32,5.32,0,0,1,3.46-.84c.76.12.93.49.41,1a2.13,2.13,0,0,1-1.12.62A4.89,4.89,0,0,1,72.63,3Z"/><path d="M61.06,4.65A.94.94,0,0,1,60.65,6,1.37,1.37,0,0,1,59,5.58a1.07,1.07,0,0,1,.54-1.42A1.26,1.26,0,0,1,61.06,4.65Z"/><path d="M92.11,24.91a3.4,3.4,0,0,1,.27.91c0,.56-.44.87-1.11.83-.88-.06-1.44-.48-1.4-1.06,0-.31.29-.57.58-.4C91.05,25.55,91.49,25.17,92.11,24.91Z"/><path d="M87.47,22.57a.83.83,0,0,1-.37,1.1,1.22,1.22,0,0,1-1.47-.3,1,1,0,0,1,.6-1.15A1.06,1.06,0,0,1,87.47,22.57Z"/><path d="M63.38,18.4a3.76,3.76,0,0,1,1,.32c.27.22.09.66-.27.82s-.73.08-.84-.22S63.32,18.83,63.38,18.4Z"/><path d="M43.34,28.42a4,4,0,0,1,1.06.41c.09.09-.08.48-.26.63a.61.61,0,0,1-.91-.19C43.17,29.07,43.28,28.83,43.34,28.42Z"/><path d="M58.49,38.92a4.08,4.08,0,0,1,1,.42c.24.23.17.54-.2.72s-.71.11-.84-.18S58.46,39.38,58.49,38.92Z"/><path d="M73.09,34.28c.43.21.73.28.87.45s.12.55-.25.7a.46.46,0,0,1-.68-.28A3.28,3.28,0,0,1,73.09,34.28Z"/><path d="M48.62,38.78a3.05,3.05,0,0,1-.91-.44c-.09-.09,0-.46.16-.54a.56.56,0,0,1,.82.21C48.77,38.16,48.66,38.39,48.62,38.78Z"/><path d="M58.28,2.26a1,1,0,0,1-1,1C57.21,2.65,57.55,2.44,58.28,2.26Z"/><path d="M54.51,11.73c-.14.24-.19.48-.32.52a.7.7,0,0,1-.51-.19c0-.06.06-.34.16-.37A2.06,2.06,0,0,1,54.51,11.73Z"/><path d="M74.48,12a1.93,1.93,0,0,1,.49.26s-.11.29-.16.29a.78.78,0,0,1-.46-.14S74.41,12.19,74.48,12Z"/><path d="M70.15,4.63c.23.1.4.13.43.2s0,.22-.13.29-.25,0-.28-.06S70.15,4.86,70.15,4.63Z"/><path d="M64.41,27.49c-.06.13-.07.24-.13.27s-.19,0-.27-.06,0-.14,0-.16A1.91,1.91,0,0,1,64.41,27.49Z"/><path d="M53.58,23l.3.14a.78.78,0,0,1-.16.2s-.17,0-.17-.06A.78.78,0,0,1,53.58,23Z"/><path d="M59.41-3c.15,0,.3.06.31.1a.28.28,0,0,1-.09.24c-.05.05-.17,0-.26,0S59.39-2.85,59.41-3Z"/><path d="M85.33,28.37s.12.07.13.12-.07.09-.1.13-.12-.07-.13-.11S85.3,28.41,85.33,28.37Z"/><path d="M41.85,23.41c.06,0,.14,0,.17,0s0,.1,0,.15-.15,0-.18,0S41.84,23.46,41.85,23.41Z"/><path d="M69.71,32.81l-.09.14-.14-.11s0-.07,0-.07A.58.58,0,0,1,69.71,32.81Z"/><path d="M53.45,7.93l-.07.15L53.15,8c.05,0,.08-.11.13-.13S53.39,7.9,53.45,7.93Z"/><path d="M96.85-.07a2.84,2.84,0,0,1-1.31.36.61.61,0,0,1-.32-.06,1.13,1.13,0,0,1-.65-1.34,1.61,1.61,0,0,1,.92-1,1.64,1.64,0,0,1,1.86.46,1.07,1.07,0,0,1,.1.89C97.39-.41,97.28-.11,96.85-.07Z"/><path d="M91,24.8l0-.3c.37.09.54.35.44.67a2.81,2.81,0,0,1-.3.6.54.54,0,0,1-.25.19,1.21,1.21,0,0,1-1.6-.35,4.25,4.25,0,0,1-.25-.39,2,2,0,0,1,.56-.8.62.62,0,0,1,.44-.19c.63,0,.67,0,.85.49a.28.28,0,0,0,.07.09Z"/><path d="M102.74,14.29a4.18,4.18,0,0,0,.36-.34,1.11,1.11,0,0,1,1-.45h.33c.08,0,.2,0,.23.06.19.25.47.47.45.82a.36.36,0,0,1,0,.1c0,.17,0,.41-.16.49a2.61,2.61,0,0,1-.91.37,1,1,0,0,1-1.15-.72A2.68,2.68,0,0,0,102.74,14.29Z"/><path d="M81.15,33.77c-.39.08-.4.07-.44-.2,0-.1,0-.21,0-.31,0-.3.19-.49.55-.57l.33,0a.64.64,0,0,1,.69.29,1,1,0,0,0,.38.39.69.69,0,0,1,.25.31.64.64,0,0,1-.43.83.85.85,0,0,1-1.12-.32C81.26,34,81.21,33.91,81.15,33.77Z"/><path d="M107.07,24a.81.81,0,0,0-.64.28.88.88,0,0,1-1,.08.71.71,0,0,1-.2-.9,1.2,1.2,0,0,1,1-.53,1,1,0,0,1,.83.44C107.22,23.58,107.11,23.8,107.07,24ZM106,23.64l0-.07-.37-.2C105.74,23.6,105.85,23.64,106,23.64Z"/><path d="M94.07,21.56l-.72,0c-.29,0-.58-.21-.57-.46a1.57,1.57,0,0,1,.21-.71c.11-.2.42-.2.64-.21.6,0,1,.49.7,1C94.25,21.23,94.17,21.39,94.07,21.56Z"/><path d="M88.13,8.84a.83.83,0,0,1,.81,0,.6.6,0,0,1,.22.7.67.67,0,0,1-.61.44,1.82,1.82,0,0,1-.73-.26c-.18-.1-.06-.3,0-.46S87.92,8.92,88.13,8.84Z"/><path d="M96.61,2.11a1,1,0,0,1-1-.27c-.15-.26,0-.65.42-.81a.72.72,0,0,1,.94.19A.62.62,0,0,1,96.61,2.11Z"/><path d="M101.44,6.23a.88.88,0,0,1-.73,0c-.07,0-.15-.13-.14-.19a2.85,2.85,0,0,1,.22-.64c0-.06.17-.1.26-.11a3,3,0,0,1,.42,0c.2,0,.41.16.38.33A.83.83,0,0,1,101.44,6.23Z"/><path d="M83.61,14.76a.61.61,0,0,1-.79-.14.56.56,0,0,1,.22-.76.65.65,0,0,1,.86.18C84.06,14.31,84,14.59,83.61,14.76Z"/><path d="M76.67,10.46a.38.38,0,0,1,.2-.55.48.48,0,0,1,.63.15.35.35,0,0,1-.14.53A.56.56,0,0,1,76.67,10.46Z"/><path d="M109,26.48a.48.48,0,0,1,.56.12.33.33,0,0,1-.17.43.49.49,0,0,1-.54-.07C108.76,26.84,108.85,26.57,109,26.48Z"/><path d="M86.32,27.35a.32.32,0,0,1-.15.41.4.4,0,0,1-.5-.1.25.25,0,0,1,.14-.39A.42.42,0,0,1,86.32,27.35Z"/><path d="M72.65,14a.24.24,0,0,1-.15.35.42.42,0,0,1-.5-.13c-.06-.12,0-.26.21-.34A.33.33,0,0,1,72.65,14Z"/><path d="M86.83,21.93a.33.33,0,0,1-.14.42.36.36,0,0,1-.44-.09.27.27,0,0,1,.13-.38A.37.37,0,0,1,86.83,21.93Z"/><path d="M101.68,24.78c.26-.14.54-.11.62,0s0,.21-.12.27-.48.08-.54-.08S101.67,24.83,101.68,24.78Z"/><path d="M81.1,19.51c.06.1-.1.37-.25.42a.28.28,0,1,1-.19-.52A.4.4,0,0,1,81.1,19.51Z"/><path d="M84.56,20.21a2,2,0,0,1-.36.35.44.44,0,0,1-.34,0c-.06,0-.1-.14-.08-.21s.17-.15.3-.15Z"/><path d="M77.71,11.52a.26.26,0,0,1-.33-.11.25.25,0,0,1,.16-.33.24.24,0,0,1,.33.1C77.94,11.31,77.87,11.45,77.71,11.52Z"/><path d="M90.83,8.9c.3-.17.47-.18.54,0s0,.23-.12.3S91,9.19,90.83,8.9Z"/><path d="M87.05,13.12c.2-.25.38-.3.85-.25C87.53,13.14,87.33,13.2,87.05,13.12Z"/><path d="M109.38,13.2c-.19.09-.38.05-.41-.07a.28.28,0,0,1,.08-.24.25.25,0,0,1,.36.06C109.43,13,109.38,13.14,109.38,13.2Z"/><path d="M96.8,3.22c-.17-.06-.3-.07-.36-.13s0-.2.07-.28.33,0,.35.07S96.83,3.06,96.8,3.22Z"/><path d="M93.55,14.51a1.35,1.35,0,0,1-.21.34.22.22,0,0,1-.32-.06.21.21,0,0,1,.12-.3A1.55,1.55,0,0,1,93.55,14.51Z"/><path d="M108.5,23.13a1.39,1.39,0,0,1,.38.14c.1.09.05.2-.08.27s-.27.05-.32-.06S108.48,23.29,108.5,23.13Z"/><path d="M75,16.66a1.62,1.62,0,0,1-.17.33.23.23,0,0,1-.31-.09.17.17,0,0,1,.13-.26A1.57,1.57,0,0,1,75,16.66Z"/><path d="M105.81,25.28c-.17.09-.4.08-.45,0a.18.18,0,0,1,0-.17c.14-.11.39-.09.43,0S105.82,25.24,105.81,25.28Z"/><path d="M95.27,19.06a1.2,1.2,0,0,1,.32.12c.08.09,0,.2-.1.23a.33.33,0,0,1-.27-.08S95.24,19.19,95.27,19.06Z"/><path d="M94.79,25.82c.12,0,.26.06.26.09s0,.2-.09.23-.18,0-.27,0S94.74,26,94.79,25.82Z"/><path d="M87.27,18c.15,0,.29,0,.3.09a.26.26,0,0,1-.06.23.27.27,0,0,1-.23,0C87.24,18.26,87.27,18.16,87.27,18Z"/><path d="M102.5,0c.12,0,.23.06.24.09a.24.24,0,0,1-.08.19.28.28,0,0,1-.2,0C102.43.13,102.48.05,102.5,0Z"/><path d="M84.28,8.56a1.9,1.9,0,0,1-.26.22s-.11,0-.17-.06A1.14,1.14,0,0,1,84,8.49S84.13,8.52,84.28,8.56Z"/><path d="M76.17,20.3a.31.31,0,0,1-.43.16s0-.09,0-.11A.36.36,0,0,1,76.17,20.3Z"/><path d="M76.21,21.48c-.12,0-.23,0-.25-.08s0-.14,0-.21.2,0,.24,0S76.22,21.37,76.21,21.48Z"/><path d="M90.38,9.16c.1,0,.2.05.23.09s0,.12-.06.18a.7.7,0,0,1-.23-.06S90.35,9.25,90.38,9.16Z"/><path d="M91.22,20.92c0,.07-.08.15-.12.16a.52.52,0,0,1-.21,0c0-.06,0-.15.08-.17S91.11,20.89,91.22,20.92Z"/><path d="M100.46,10.39c0,.14-.07.23-.21.2s-.1-.09-.08-.13S100.33,10.36,100.46,10.39Z"/><path d="M84.21,32.48c-.06.07-.08.13-.13.15s-.11,0-.16-.05,0-.11.08-.13S84.11,32.46,84.21,32.48Z"/><path d="M83.63,28.26a.73.73,0,0,1-.25-.08s0-.13,0-.14a.3.3,0,0,1,.21,0S83.63,28.16,83.63,28.26Z"/><path d="M96,5.52l-.43,0C95.76,5.31,95.76,5.31,96,5.52Z"/><path d="M107,16.32c-.07.08-.1.14-.15.15a.17.17,0,0,1-.14-.07s0-.1.07-.11A.73.73,0,0,1,107,16.32Z"/><path d="M87.47,25.48l-.42.15s0,0,0-.05l.4-.19Z"/><path d="M100.41,21.88c0,.08,0,.15-.08.15a.57.57,0,0,1-.18,0s0-.11,0-.11A.64.64,0,0,1,100.41,21.88Z"/><path d="M83.66,27.53l-.17-.19C83.58,27.26,83.61,27.28,83.66,27.53Z"/><path d="M80.16,22.29c-.2.24-.2.24-.38.07Z"/><path d="M94.89,8.27a1.18,1.18,0,0,1-.18,0s0-.08,0-.12a.3.3,0,0,1,.14,0S94.88,8.19,94.89,8.27Z"/><path d="M89.44,4.17l-.45,0C89.27,4.07,89.27,4.07,89.44,4.17Z"/><path d="M76.4,9.51c0,.06-.06.12-.08.12a.42.42,0,0,1-.16,0s0-.09.07-.1S76.32,9.49,76.4,9.51Z"/><path d="M111,26.89a.35.35,0,0,1,.12.07s0,.08-.06.08L111,27Z"/><path d="M87.71,33.13c0,.07,0,.15-.06.15a.25.25,0,0,1-.17,0s0-.1,0-.11A.66.66,0,0,1,87.71,33.13Z"/><path d="M93.36,4.6l-.17,0,0-.11.14,0S93.37,4.55,93.36,4.6Z"/><path d="M82.52,23s.09.06.11.11a.09.09,0,0,1,0,.11.17.17,0,0,1-.14,0s0-.08,0-.12Z"/><path d="M103.49,9.5c-.07.08-.08.12-.11.13s-.07,0-.1,0,0-.07.06-.08S103.41,9.51,103.49,9.5Z"/><path d="M102.77,7.94,103,8l0,.05-.24,0Z"/><path d="M87,6.49l-.12.15a.22.22,0,0,1-.07-.06s0,0,0,0A.58.58,0,0,1,87,6.49Z"/><path d="M106,23.64c-.15,0-.26,0-.32-.27l.37.2Z"/></mask></defs><title>Asset 1</title><g id="Layer_2" data-name="Layer 2"><g id="Layer_1-2" data-name="Layer 1"><g style="mask:url(#mask)"><path d="M72.58,92.47A43.83,43.83,0,0,0,102.87,50.3l-1.7.55A42.11,42.11,0,0,1,25,75.58l-1.7.55A43.84,43.84,0,0,0,72.58,92.47ZM12.86,51.72A46.21,46.21,0,0,1,97,24.42l3.12-1a4.45,4.45,0,0,1-.83-2.5,3.76,3.76,0,0,0-2.91-3.56,4.76,4.76,0,0,1-3.48-3.52,3.73,3.73,0,0,0-3.53-2.95,4.76,4.76,0,0,1-4.08-2.8,3.74,3.74,0,0,0-4-2.23,4.71,4.71,0,0,1-4.53-2,3.75,3.75,0,0,0-4.38-1.42A4.75,4.75,0,0,1,67.5,1.37,3.73,3.73,0,0,0,62.94.79,4.74,4.74,0,0,1,58,.65,3.73,3.73,0,0,0,53.4,1a4.76,4.76,0,0,1-4.89.79A3.74,3.74,0,0,0,44.06,2.9a4.73,4.73,0,0,1-4.64,1.7,3.76,3.76,0,0,0-4.16,2A4.73,4.73,0,0,1,31,9.14a3.76,3.76,0,0,0-3.71,2.74,4.72,4.72,0,0,1-3.68,3.3,3.74,3.74,0,0,0-3.11,3.39,4.75,4.75,0,0,1-3,3.94,3.74,3.74,0,0,0-2.42,3.92,4.73,4.73,0,0,1-2.19,4.43,3.75,3.75,0,0,0-1.63,4.31A4.77,4.77,0,0,1,10,39.94a3.73,3.73,0,0,0-.79,4.53,4.72,4.72,0,0,1-.39,4.93,3.8,3.8,0,0,0-.43,3.78Zm95.72-3.28-3.34,1.09A46.21,46.21,0,0,1,20.92,76.9l-4.65,1.51a3.75,3.75,0,0,0,2.3,2.16,4.76,4.76,0,0,1,3.13,3.84,3.74,3.74,0,0,0,3.23,3.27,4.75,4.75,0,0,1,3.8,3.17,3.76,3.76,0,0,0,3.8,2.61,4.7,4.7,0,0,1,4.32,2.39,3.76,3.76,0,0,0,4.23,1.84,4.75,4.75,0,0,1,4.7,1.53,3.74,3.74,0,0,0,4.49,1,4.75,4.75,0,0,1,4.91.61,3.73,3.73,0,0,0,4.6.14,4.75,4.75,0,0,1,4.94-.32,3.73,3.73,0,0,0,4.54-.74,4.76,4.76,0,0,1,4.79-1.25,3.74,3.74,0,0,0,4.32-1.58A4.72,4.72,0,0,1,82.83,95a3.75,3.75,0,0,0,4-2.37,4.72,4.72,0,0,1,4-2.94,3.75,3.75,0,0,0,3.43-3.08,4.72,4.72,0,0,1,3.35-3.63,3.77,3.77,0,0,0,2.78-3.67,4.72,4.72,0,0,1,2.6-4.21,3.75,3.75,0,0,0,2-4.13,4.75,4.75,0,0,1,1.76-4.62,3.75,3.75,0,0,0,1.22-4.44,4.75,4.75,0,0,1,.85-4.88,3.73,3.73,0,0,0,.35-4.59A4.8,4.8,0,0,1,108.58,48.44ZM46.06,10.76a42.13,42.13,0,0,1,46.84,15l1.69-.55A43.81,43.81,0,0,0,15.25,51l1.69-.55A42.12,42.12,0,0,1,46.06,10.76Z" style="fill:#28a891"/><polygon points="56.74 32.22 53.64 31.53 51.55 33.91 51.25 30.75 48.34 29.49 51.25 28.23 51.54 25.07 53.64 27.46 56.74 26.76 55.12 29.49 56.74 32.22" style="fill:#28a891"/><polygon points="64.26 29.78 62 29.27 60.48 31.01 60.26 28.71 58.14 27.79 60.26 26.88 60.47 24.58 62 26.31 64.26 25.8 63.08 27.79 64.26 29.78" style="fill:#28a891"/><polygon points="47.55 35.2 45.29 34.7 43.77 36.44 43.55 34.13 41.43 33.22 43.55 32.3 43.76 30 45.29 31.73 47.55 31.23 46.37 33.22 47.55 35.2" style="fill:#28a891"/><polygon points="62.48 68.5 65.58 69.2 67.67 66.82 67.97 69.98 70.88 71.23 67.97 72.49 67.67 75.65 65.58 73.27 62.48 73.97 64.1 71.23 62.48 68.5" style="fill:#28a891"/><polygon points="54.96 70.94 57.22 71.45 58.74 69.72 58.96 72.02 61.08 72.93 58.96 73.85 58.74 76.15 57.22 74.42 54.96 74.92 56.14 72.93 54.96 70.94" style="fill:#28a891"/><polygon points="71.67 65.52 73.93 66.03 75.46 64.29 75.67 66.59 77.79 67.51 75.67 68.42 75.46 70.72 73.93 68.99 71.67 69.5 72.85 67.51 71.67 65.52" style="fill:#28a891"/><rect x="-2.54" y="38.03" width="113.49" height="1.52" transform="translate(-9.33 18.63) rotate(-17.98)" style="fill:#28a891"/><rect x="5.43" y="62.57" width="113.49" height="1.52" transform="translate(-16.51 22.29) rotate(-17.98)" style="fill:#28a891"/><path d="M6.86,59.83A2.85,2.85,0,0,0,5,62.41a12.07,12.07,0,0,0,.73,5.27q2.16,6.64,5.63,5.52a6.55,6.55,0,0,0,2.86-2l1,3.17A6.69,6.69,0,0,1,12,76.46a5.91,5.91,0,0,1-5.8-1q-2.58-2-4.08-6.66T1.54,61a6,6,0,0,1,4.12-4.22,7,7,0,0,1,2.11-.36,8.27,8.27,0,0,1,2.38.33L9.92,60a10.52,10.52,0,0,0-1.5-.33A3.33,3.33,0,0,0,6.86,59.83Z" style="fill:#28a891"/><path d="M27.71,60.47q1.54,4.74.59,7.88A6.11,6.11,0,0,1,24,72.55a6.13,6.13,0,0,1-5.93-.89q-2.6-2-4.16-6.75c-1-3.17-1.22-5.79-.58-7.86a6.2,6.2,0,0,1,4.31-4.2,6.1,6.1,0,0,1,5.9.9Q26.17,55.72,27.71,60.47ZM17.6,63.75A12.5,12.5,0,0,0,20,68.47a2.73,2.73,0,0,0,3,.93q3.23-1.05,1-7.74T18.7,56a2.76,2.76,0,0,0-1.9,2.5A12.5,12.5,0,0,0,17.6,63.75Z" style="fill:#28a891"/><path d="M39.61,52.57a6.91,6.91,0,0,1,0,5.18,6.12,6.12,0,0,1-3.91,3.07l-.89.29L37,68.05,33.48,69.2,27.27,50.07l4.86-1.58Q37.7,46.69,39.61,52.57ZM33.79,58l.68-.22a2.58,2.58,0,0,0,1.71-1.35,3.73,3.73,0,0,0-.12-2.57,3.66,3.66,0,0,0-1.31-2,2.3,2.3,0,0,0-2.06-.14l-.86.28Z" style="fill:#28a891"/><path d="M47,52l.1-8.38,3.73-1.21L50,55.35,52.53,63,49,64.16l-2.44-7.53L38.28,46.5,42,45.28Z" style="fill:#28a891"/><path d="M59.76,52.44l2.42,7.44L58.62,61,52.41,41.91l4.66-1.51a6.28,6.28,0,0,1,4.82,0,6.09,6.09,0,0,1,2.79,3.82q1.18,3.63-.8,5.86l6.4,7.19-3.81,1.24L61,52Zm-1-3.06.92-.3a2.26,2.26,0,0,0,1.57-1.3,3.6,3.6,0,0,0-.14-2.3,3.2,3.2,0,0,0-1.26-1.9,2.48,2.48,0,0,0-2,0l-.89.29Z" style="fill:#28a891"/><path d="M72.53,56.52,66.32,37.39l3.35-1.08,6.21,19.13Z" style="fill:#28a891"/><path d="M82.13,41.68,88,39.78l3.19,9.81a14.08,14.08,0,0,1-4.94,2.78,6.23,6.23,0,0,1-6-.87q-2.62-2-4.18-6.73c-1-3.07-1.09-5.7-.28-7.88a7.3,7.3,0,0,1,4.92-4.47,9.22,9.22,0,0,1,4.76-.25l-.19,3.27a6.43,6.43,0,0,0-3.34.05,3.85,3.85,0,0,0-2.62,2.85,9.38,9.38,0,0,0,.42,5.33,11.75,11.75,0,0,0,2.46,4.65,2.8,2.8,0,0,0,3,.9,7.39,7.39,0,0,0,1.69-.79l-1.43-4.38-2.37.77Z" style="fill:#28a891"/><path d="M106,45.65l-3.56,1.16-2.72-8.39L95,40l2.72,8.38L94.2,49.49,88,30.36l3.56-1.16L94,36.81l4.7-1.53-2.47-7.6,3.56-1.16Z" style="fill:#28a891"/><path d="M115.13,42.69l-3.54,1.15-5.2-16L102.73,29l-1-3.13,10.88-3.52,1,3.12-3.66,1.19Z" style="fill:#28a891"/><path d="M27.68,41.47,27,43.64l-1.19-.35.64-2.18Z" style="fill:#28a891"/><path d="M23.21,37.14l.94-2q1.09-2.26,3.28-1.22a2.1,2.1,0,0,1,1.22,1.32,2.64,2.64,0,0,1-.27,1.93l-.21.44L30.91,39l-.73,1.53Zm3.85,0,.15-.3a.87.87,0,0,0,0-.75,1.17,1.17,0,0,0-.62-.57q-1-.5-1.41.3l-.17.35Z" style="fill:#28a891"/><path d="M36,31.18l-1,1.35-3.85-1.28v0l3,2.34-1,1.32L27,30.2l1.33-1.72a3.53,3.53,0,0,1,1-.87,1.71,1.71,0,0,1,1.21-.23,2.54,2.54,0,0,1,1.07.48,2.15,2.15,0,0,1,.75,1,2.88,2.88,0,0,1,0,1.3ZM30.76,31c.33-.43.46-.76.38-1a1.41,1.41,0,0,0-.51-.66c-.58-.45-1.06-.44-1.43,0l-.21.27Z" style="fill:#28a891"/><path d="M34.4,27.25a6.17,6.17,0,0,1-1.26-2.06,3,3,0,0,1,0-1.51A2.48,2.48,0,0,1,34,22.41,2.39,2.39,0,0,1,35,21.84a2.72,2.72,0,0,1,1.1,0,3,3,0,0,1,1.18.52,7.51,7.51,0,0,1,1.31,1.3,5,5,0,0,1,1.47,3,2.55,2.55,0,0,1-1,2,2.45,2.45,0,0,1-2.13.58A5,5,0,0,1,34.4,27.25Zm1.06-1.49.31.38a10.47,10.47,0,0,0,1.09,1.18,1,1,0,0,0,.66.25.86.86,0,0,0,.62-.23.77.77,0,0,0,.29-.51,1.22,1.22,0,0,0-.16-.73,8.6,8.6,0,0,0-.93-1.28,9.1,9.1,0,0,0-1-1.05,1.36,1.36,0,0,0-.71-.33.83.83,0,0,0-.64.2.78.78,0,0,0-.3.84A3.4,3.4,0,0,0,35.46,25.76Z" style="fill:#28a891"/><path d="M43.54,18.35l-1.34.7,2.89,5.53-1.48.77-2.89-5.51-1.36.71-.7-1.34L42.84,17Z" style="fill:#28a891"/><path d="M51.61,22.23l-3.69,1.12-2.24-7.41,3.46-1,.43,1.43-1.87.57.45,1.51,1.61-.49.42,1.37-1.61.49.5,1.64,2.1-.64Z" style="fill:#28a891"/><path d="M57.77,21.33a3.48,3.48,0,0,1-1.39.42A3.07,3.07,0,0,1,54,21a4.26,4.26,0,0,1-1.23-2.87A4.35,4.35,0,0,1,53.34,15a2.81,2.81,0,0,1,2-1.23A3.83,3.83,0,0,1,57,14l.16,1.62a4.5,4.5,0,0,0-.88-.29,2,2,0,0,0-.42,0,1.58,1.58,0,0,0-1.1.66,2.82,2.82,0,0,0-.3,1.92,2.94,2.94,0,0,0,.67,1.87,1.55,1.55,0,0,0,1.24.42,2.31,2.31,0,0,0,1.21-.59Z" style="fill:#28a891"/><path d="M64.3,15.73l-1.5-.15-.61,6.21-1.67-.17.61-6.19-1.53-.15.15-1.51,4.69.46Z" style="fill:#28a891"/><path d="M68.93,23.41l-3.7-1.1,2.2-7.42,3.47,1-.43,1.43-1.87-.56-.45,1.51,1.61.48-.41,1.38-1.61-.48-.48,1.64,2.11.62Z" style="fill:#28a891"/><path d="M74.23,17.24l1.63.88a3.16,3.16,0,0,1,1.69,2A4,4,0,0,1,77,23.1a4.27,4.27,0,0,1-2.16,2.12,3.23,3.23,0,0,1-2.72-.32l-1.58-.85Zm.82,2-2.34,4.34.18.1a1.72,1.72,0,0,0,1.11.13c.45-.06.91-.55,1.4-1.46a4.8,4.8,0,0,0,.6-1.52,1.51,1.51,0,0,0-.18-.91,1.54,1.54,0,0,0-.6-.59Z" style="fill:#28a891"/><path d="M79.33,27.25l-1.78-1.4.77-1,1.78,1.41Z" style="fill:#28a891"/><path d="M37.32,79.18,35.6,77.71l.81-.95,1.72,1.48Z" style="fill:#28a891"/><path d="M42.25,75.83,44.1,77c1.45.87,1.76,2,.92,3.38a2.1,2.1,0,0,1-1.42,1.09A2.65,2.65,0,0,1,41.7,81l-.42-.26-1.57,2.62-1.45-.87Zm-.36,3.84.29.18a.87.87,0,0,0,.74.11,1.23,1.23,0,0,0,.62-.57c.39-.65.34-1.13-.17-1.44L43,77.76Z" style="fill:#28a891"/><path d="M49.64,87.64,48,87.1,48,83h0l-1.21,3.63-1.59-.53,2.46-7.34,2.06.7a3.1,3.1,0,0,1,1.15.66,1.66,1.66,0,0,1,.62,1.06,2.55,2.55,0,0,1-.1,1.17,2.1,2.1,0,0,1-.67,1,2.74,2.74,0,0,1-1.21.48Zm-1.56-5q.78.25,1.08,0a1.44,1.44,0,0,0,.46-.7c.24-.7.07-1.15-.5-1.34l-.33-.11Z" style="fill:#28a891"/><path d="M52.83,84.35A6.15,6.15,0,0,1,53.41,82a3,3,0,0,1,1.05-1.09A2.47,2.47,0,0,1,56,80.64a2.52,2.52,0,0,1,1.16.36,2.77,2.77,0,0,1,.77.79A2.88,2.88,0,0,1,58.35,83a7.37,7.37,0,0,1,0,1.84A4.94,4.94,0,0,1,57.27,88a2.54,2.54,0,0,1-2.08.69,2.45,2.45,0,0,1-1.91-1.11A5,5,0,0,1,52.83,84.35Zm1.81-.3,0,.5a9.78,9.78,0,0,0-.08,1.61,1.09,1.09,0,0,0,.29.64.94.94,0,0,0,.6.28.82.82,0,0,0,.57-.17,1.16,1.16,0,0,0,.4-.62,8.36,8.36,0,0,0,.26-1.56,8.77,8.77,0,0,0,0-1.45,1.36,1.36,0,0,0-.27-.72.86.86,0,0,0-1.4.06A3.43,3.43,0,0,0,54.64,84.05Z" style="fill:#28a891"/><path d="M64.69,81.89l-1.49.19L64,88.27l-1.66.21-.78-6.18L60,82.49,59.83,81l4.68-.59Z" style="fill:#28a891"/><path d="M72,86.11l-3.65,1.25L65.85,80l3.43-1.17.48,1.41-1.85.63.51,1.49L70,81.86l.46,1.36-1.59.54.56,1.62,2.08-.72Z" style="fill:#28a891"/><path d="M78.69,82.48a3.48,3.48,0,0,1-1.09,1,3,3,0,0,1-2.54.28,4.26,4.26,0,0,1-2.3-2.11,4.38,4.38,0,0,1-.71-3.1,2.86,2.86,0,0,1,1.37-2A3.82,3.82,0,0,1,75,76.08l.81,1.41a4.91,4.91,0,0,0-.93.09,2.11,2.11,0,0,0-.38.17,1.54,1.54,0,0,0-.73,1,2.71,2.71,0,0,0,.51,1.87,2.93,2.93,0,0,0,1.37,1.44A1.55,1.55,0,0,0,77,82a2.32,2.32,0,0,0,.86-1Z" style="fill:#28a891"/><path d="M80.27,73.2l-1.12,1,4.16,4.64L82.06,80l-4.15-4.64-1.15,1-1-1.12,3.52-3.15Z" style="fill:#28a891"/><path d="M88.7,72.51,86.39,75.6,80.19,71l2.17-2.9,1.2.9-1.18,1.57,1.26.94,1-1.34L85.8,71l-1,1.34,1.37,1,1.32-1.77Z" style="fill:#28a891"/><path d="M83.33,66.52l.77-1.68A3.18,3.18,0,0,1,86,63a4,4,0,0,1,3,.35,4.19,4.19,0,0,1,2.25,2,3.18,3.18,0,0,1-.13,2.73l-.74,1.63Zm2-1,4.5,2,.08-.18a1.74,1.74,0,0,0,.06-1.12c-.1-.44-.61-.88-1.55-1.3a4.47,4.47,0,0,0-1.56-.49,1.48,1.48,0,0,0-.9.24,1.58,1.58,0,0,0-.55.63Z" style="fill:#28a891"/><path d="M91.86,59.64l-.56,2.2-1.2-.31.55-2.2Z" style="fill:#28a891"/></g></g></g></svg>