<svg xmlns="http://www.w3.org/2000/svg" xmlns:xlink="http://www.w3.org/1999/xlink" viewBox="0 0 613.524 435.96"><defs><style>.a,.s,.y{fill:#66caf2;}.a,.t,.x{opacity:0.1;}.b{fill:none;stroke:#fff;stroke-miterlimit:10;opacity:0.03;}.c{fill:#fff;}.d{fill:#3f3d56;}.e{fill:url(#a);}.f{fill:#7cfcff;}.g{fill:url(#b);}.h{fill:url(#d);}.i{fill:url(#e);}.j{fill:url(#f);}.k{fill:#ffffa5;}.l{fill:#ff69b4;}.m{fill:url(#w);}.n{fill:#ee8e9e;}.o{fill:#65617d;}.p{opacity:0.05;}.q{fill:#e8eaf2;}.r{fill:#303d5c;}.u{fill:url(#x);}.v{fill:#444053;}.w{fill:#efb7b9;}.y{opacity:0.2;}</style><linearGradient id="a" x1="0.5" y1="1" x2="0.5" gradientUnits="objectBoundingBox"><stop offset="0" stop-color="gray" stop-opacity="0.251"/><stop offset="0.54" stop-color="gray" stop-opacity="0.122"/><stop offset="1" stop-color="gray" stop-opacity="0.102"/></linearGradient><linearGradient id="b" y1="1" y2="0" xlink:href="#a"/><linearGradient id="d" y1="1" y2="0" xlink:href="#a"/><linearGradient id="e" y1="1" y2="0" xlink:href="#a"/><linearGradient id="f" y1="1" y2="0" xlink:href="#a"/><linearGradient id="w" x1="-1.293" y1="1" x2="-1.293" y2="0" xlink:href="#a"/><linearGradient id="x" x1="0.419" y1="1" x2="0.419" y2="0" xlink:href="#a"/></defs><path class="a" d="M624.614,311.533a166.756,166.756,0,0,1-3.683,35.051q-1.24,5.787-2.881,11.345-2.031,6.928-4.646,13.434-1.328,3.313-2.808,6.511a99.334,99.334,0,0,1-6.339,35.2c-7.475,19.794-21.086,35.942-38.119,45.375a71.363,71.363,0,0,1-34.718,9.043H127.558c-21.586,0-41.594-7.673-58-20.747a106.919,106.919,0,0,1-13.319-12.684A113.291,113.291,0,0,1,41.6,413.072a124.871,124.871,0,0,1-14.892-59.711c-9.871-19.987-15.617-43.948-15.617-69.733,0-32.5,9.147-62.138,24.175-84.583a115.669,115.669,0,0,1,10.267-13.194,100.436,100.436,0,0,1,11.741-11.106,89.339,89.339,0,0,1,10.418-7.22c1.505-.886,3.016-1.719,4.553-2.5q2.021-1.042,4.094-1.943,2.485-1.094,5.032-2.005t5.027-1.6a71.1,71.1,0,0,1,7.423-1.651q3.125-.539,6.251-.8,2.485-.2,5.011-.234h.912c1.854,0,3.7.089,5.527.229.193-.448.4-.9.594-1.344.729-1.6,1.485-3.2,2.245-4.771a.179.179,0,0,0,0-.042c.13-.271.26-.521.4-.807.615-1.281,1.255-2.552,1.912-3.813.3-.583.6-1.162.906-1.74.068-.135.135-.266.214-.4.313-.6.63-1.193.953-1.787q2.412-4.443,5.016-8.751c.151-.245.292-.49.443-.729.271-.443.521-.886.823-1.323.719-1.167,1.459-2.328,2.2-3.48.521-.813,1.042-1.625,1.6-2.427q2.031-3.047,4.167-6.016t4.438-5.938c.208-.271.417-.521.635-.807l2.224-2.8h0l.307-.38h0l.807-.984c1.193-1.453,2.417-2.891,3.646-4.313A209.806,209.806,0,0,1,165,84.3c.276-.255.557-.521.833-.74,1.323-1.151,2.667-2.287,4.011-3.4a210.2,210.2,0,0,1,23.133-16.669c.552-.354,1.115-.7,1.682-1.042A210.376,210.376,0,0,1,216.8,50.673q6.251-2.875,12.632-5.324c2.823-1.073,5.657-2.084,8.527-3.042q6.657-2.2,13.481-3.985A210.935,210.935,0,0,1,292.193,31.9q6.251-.375,12.642-.375a211.7,211.7,0,0,1,60.94,8.9,2.125,2.125,0,0,0,1.891,1.136h1.755c.761.24,1.516.49,2.276.74q6.371,2.115,12.559,4.631l1.042.427a211.25,211.25,0,0,1,54.465,32.744q1.828,1.505,3.6,3.058,2.157-1.6,4.386-3.058a80.218,80.218,0,0,1,18.169-8.949,72.233,72.233,0,0,1,40.755-1.844c17.32,4.245,33,14.778,45.662,29.754a122.167,122.167,0,0,1,13.694,20.086c.287.521.573,1.042.849,1.563A141.449,141.449,0,0,1,575.6,140.8c.089.25.177.521.255.75a155.525,155.525,0,0,1,5.365,20.07c.062.344.135.693.2,1.042a165.6,165.6,0,0,1,2.563,20.081,4.355,4.355,0,0,0,.042.734q.328,5.24.333,10.6,0,4.792-.266,9.491c0,.349-.042.7-.068,1.042-.047.912-.115,1.823-.182,2.73A107,107,0,0,1,594.98,219.46q2.276,2.881,4.407,5.964A130.164,130.164,0,0,1,610.743,245.5C619.551,264.752,624.614,287.348,624.614,311.533Z" transform="translate(-11.09 -31.53)"/><path class="a" d="M628.4,802.095c0,7.735-23.92,14.794-63.227,20.127h-368.8c-39.3-5.334-63.221-12.392-63.221-20.127,0-5.891,13.877-11.392,37.869-16.038h0l.677-.13c6.772-1.3,14.34-2.526,22.612-3.678l.63-.089h0q9.845-1.359,20.945-2.568l.7-.073q4.282-.469,8.741-.906h0l1.146-.109c21.643-2.084,46.245-3.771,72.926-4.9h.031q5.6-.234,11.329-.438,6.365-.234,12.887-.417c3.318-.1,6.678-.182,10.048-.26h.078c15.2-.359,30.915-.547,46.98-.547,39.724,0,77.27,1.141,110.54,3.167h.094c5.115.313,10.137.641,15.033.995l4.167.307q8.287.625,16.148,1.323h0C588.378,783.217,628.4,792.089,628.4,802.095Z" transform="translate(-69.574 -386.262)"/><path class="b" d="M299.436,134.881v15.8a2.136,2.136,0,0,1-2.136,2.141H268.38a209.8,209.8,0,0,1,19.95-20.081h8.975a2.136,2.136,0,0,1,2.13,2.141Z" transform="translate(-134.358 -80.02)"/><path class="c" d="M606.157,131.084V368.415a6.251,6.251,0,0,1-6.251,6.251H176.161a6.251,6.251,0,0,1-6.251-6.251V202.556q3.125-.539,6.251-.8,2.485-.2,5.011-.234h.912c1.854,0,3.7.089,5.527.229.193-.448.4-.9.594-1.344.729-1.6,1.485-3.2,2.245-4.771a.183.183,0,0,0,0-.042c.13-.271.26-.521.4-.807.615-1.281,1.255-2.552,1.912-3.813.3-.583.6-1.162.906-1.74.068-.135.135-.266.214-.4.313-.6.63-1.193.953-1.787q2.412-4.443,5.016-8.751c.151-.245.292-.49.443-.729.271-.443.521-.885.823-1.323.719-1.167,1.459-2.328,2.2-3.48.521-.813,1.042-1.625,1.6-2.427q2.031-3.047,4.167-6.016t4.438-5.938c.208-.271.417-.521.635-.807l2.224-2.8h0l.307-.38h0l.807-.984c1.193-1.453,2.417-2.891,3.646-4.313a209.813,209.813,0,0,1,19.95-20.081c.276-.255.557-.521.833-.74,1.323-1.151,2.667-2.287,4.011-3.4H515.87q1.828,1.505,3.6,3.058,2.156-1.6,4.386-3.058h76.051A6.251,6.251,0,0,1,606.157,131.084Z" transform="translate(-87.181 -76.254)"/><path class="d" d="M609.9,212.09V218H229.88c.719-1.167,1.459-2.328,2.209-3.48.521-.813,1.042-1.625,1.6-2.427Z" transform="translate(-115.913 -118.037)"/><rect class="d" width="224.95" height="5.907" transform="translate(412.478 65.195) rotate(90)"/><rect class="d" width="224.95" height="5.907" transform="translate(303.803 65.196) rotate(90)"/><rect class="d" width="224.95" height="5.907" transform="translate(195.128 65.196) rotate(90)"/><path class="e" d="M233.394,247.6v23.263H209.37v-16.5c.13-.271.26-.521.4-.807.62-1.281,1.255-2.552,1.917-3.813.3-.583.594-1.162.9-1.74.068-.135.141-.266.214-.4Z" transform="translate(-106.086 -135.05)"/><path class="f" d="M233.366,248.356v22.461h-23.2V253.893c.62-1.281,1.255-2.552,1.917-3.813.3-.583.594-1.162.9-1.74Z" transform="translate(-106.47 -135.404)"/><rect class="g" width="24.029" height="23.263" transform="translate(200.587 105.461)"/><rect class="f" width="23.201" height="22.461" transform="translate(201.004 105.862)"/><rect class="g" width="24.029" height="23.263" transform="translate(309.117 150.628)"/><rect class="f" width="23.201" height="22.461" transform="translate(309.533 151.029)"/><rect class="h" width="24.029" height="23.263" transform="translate(419.859 166.036)"/><rect class="f" width="23.201" height="22.461" transform="translate(420.271 166.437)"/><rect class="i" width="24.029" height="23.263" transform="translate(449.53 181.095)"/><rect class="f" width="23.201" height="22.461" transform="translate(449.947 181.496)"/><rect class="j" width="24.029" height="23.263" transform="translate(486.743 140.856)"/><rect class="f" width="23.201" height="22.461" transform="translate(487.154 141.257)"/><rect class="h" width="24.029" height="23.263" transform="translate(479.211 173.495)"/><rect class="f" width="23.201" height="22.461" transform="translate(479.622 173.897)"/><rect class="g" width="24.029" height="23.263" transform="translate(233.368 105.461)"/><rect class="f" width="23.201" height="22.461" transform="translate(233.784 105.862)"/><rect class="j" width="24.029" height="23.263" transform="translate(121.093 161.859)"/><rect class="k" width="23.201" height="22.461" transform="translate(121.505 162.26)"/><rect class="i" width="24.029" height="23.263" transform="translate(217.928 138.996)"/><rect class="k" width="23.201" height="22.461" transform="translate(218.345 139.397)"/><rect class="h" width="24.029" height="23.263" transform="translate(343.173 125.094)"/><rect class="k" width="23.201" height="22.461" transform="translate(343.584 125.495)"/><rect class="i" width="24.029" height="23.263" transform="translate(469.954 108.779)"/><rect class="k" width="23.201" height="22.461" transform="translate(470.371 109.18)"/><rect class="j" width="24.029" height="23.263" transform="translate(374.875 105.461)"/><rect class="k" width="23.201" height="22.461" transform="translate(375.286 105.862)"/><rect class="g" width="24.029" height="23.263" transform="translate(373.51 150.628)"/><rect class="k" width="23.201" height="22.461" transform="translate(373.927 151.029)"/><rect class="i" width="24.029" height="23.263" transform="translate(265.632 116.697)"/><rect class="k" width="23.201" height="22.461" transform="translate(266.049 117.093)"/><rect class="i" width="24.029" height="23.263" transform="translate(137.96 124.182)"/><rect class="l" width="23.201" height="22.461" transform="translate(138.377 124.583)"/><rect class="j" width="24.029" height="23.263" transform="translate(149.977 150.628)"/><rect class="l" width="23.201" height="22.461" transform="translate(150.388 151.029)"/><rect class="h" width="24.029" height="23.263" transform="translate(249.646 154.405)"/><rect class="l" width="23.201" height="22.461" transform="translate(250.057 154.806)"/><rect class="i" width="24.029" height="23.263" transform="translate(425.501 108.779)"/><rect class="l" width="23.201" height="22.461" transform="translate(425.917 109.18)"/><rect class="g" width="24.029" height="23.263" transform="translate(446.764 140.856)"/><rect class="l" width="23.201" height="22.461" transform="translate(447.181 141.257)"/><rect class="g" width="24.029" height="23.263" transform="translate(311.216 105.461)"/><rect class="l" width="23.201" height="22.461" transform="translate(311.632 105.862)"/><rect class="h" width="24.029" height="23.263" transform="translate(340.454 173.495)"/><rect class="l" width="23.201" height="22.461" transform="translate(340.865 173.897)"/><path class="m" d="M814.9,312.4a4.6,4.6,0,0,0-1.833-3.084,18.268,18.268,0,0,0-3.188-1.844,2.6,2.6,0,0,1-.927-.661,8.3,8.3,0,0,1-.521-1c-.625-1.089-1.979-1.432-3.042-2.084-1.9-1.151-2.771-3.193-3.558-5.339-.052-.135-.094-.271-.146-.4-.766-2.125-1.495-4.3-3.084-5.792a6.615,6.615,0,0,0-8.272-.443,1.948,1.948,0,0,1-1.167.578,2.2,2.2,0,0,1-1.12-.6,4.568,4.568,0,0,0-2.792-.771,26.6,26.6,0,0,1-.787-5.808V285.1h0a.077.077,0,0,1,0-.036h0v-1.448h.328a3.725,3.725,0,0,0,1.151-.13,3.124,3.124,0,0,0,.453-.167h0c1.4-.662,2.25-2.224,2.881-3.7.417-.979.8-1.985,1.13-3.011.042-.13.078-.26.125-.4h0c.057-.208.125-.422.177-.635a.976.976,0,0,1,.052-.2c.016-.068.037-.13.052-.2l.047-.219.266.188h0l.047.026.573.4c2.688,1.839,5.511,3.573,6.678,3.615h0a.6.6,0,0,0,.344-.068c.755-.417-.693-1.969-2.511-3.547-.151-.135-.313-.266-.474-.4-1.349-1.141-2.8-2.245-3.646-2.881l-.781-.568a7.7,7.7,0,0,0,1.917-4.167,32.333,32.333,0,0,0,.49-4.37v-.073a17.633,17.633,0,0,0-.422-4.688,10.842,10.842,0,0,0-5.209-7.22c-.781-.406-1.672-.724-2.443-1.162-.146-.083-.276-.172-.411-.26h0a3.614,3.614,0,0,1-.677-.578,2.361,2.361,0,0,1-.344-.469,1.406,1.406,0,0,1-.135-.245,3.155,3.155,0,0,0-.385-.745c-.521-.578-1.4-.406-2.151-.313h-.651c-2.7.063-5.313-1.448-8.048-1.448-2.99,0-5.537,1.735-8.173,2.922-.521.245-1.042.464-1.505.688-.4.188-.766.375-1.125.578h0q-.209.117-.406.255h0a5.783,5.783,0,0,0-2.229,2.6,5.367,5.367,0,0,0-1.1,2.12,5.236,5.236,0,0,0-.141,1.089,18.06,18.06,0,0,0-5.4,12.866v.787a18.075,18.075,0,0,0,12.861,16.544h0c.2.063.411.125.625.177.052.177.125.354.177.521.109.339.214.672.292,1.011h0a5.092,5.092,0,0,1,.125.521,14.1,14.1,0,0,1,.375,3.537c0,.1,0,.2,0,.313h0v.036a13.73,13.73,0,0,0-3.907,1.563,7.538,7.538,0,0,0-3.287,4.047,3.226,3.226,0,0,0-.1.38,10.458,10.458,0,0,0-2.974-.521,3.172,3.172,0,0,0-2.563.766,2.314,2.314,0,0,0-.474.984c-.354.318-.417.875-.661,1.3-.761,1.333-2.74.9-4.23,1.261a2.932,2.932,0,0,0-.443.146h0c-1.412.521-2.6,1.771-4.1,1.781a10.478,10.478,0,0,0-1.8-.1l-.109.026c-.62.156-1.115,1.011-.635,1.438a2.041,2.041,0,0,0-1.922.922c-.469.594-.755,1.3-1.261,1.86a1.948,1.948,0,0,0-1.974-.766,7.156,7.156,0,0,0-2.084.823,2.862,2.862,0,0,1-.922.323,3.991,3.991,0,0,1-1.109-.1,8.96,8.96,0,0,0-5.256.734c-1.438.682-2.828-.573-4.417-.672a2.448,2.448,0,0,1-1.615-.521.7.7,0,0,1-.12-.13,2.352,2.352,0,0,1-.229-.4c-.1-.24-.172-.521-.26-.745a6.329,6.329,0,0,0-4.37-4.042l-.26-.062a4.62,4.62,0,0,0,.219-.917h0a5.412,5.412,0,0,0-3.391-5.73,5.73,5.73,0,0,0-1.979-5.016,8.761,8.761,0,0,1-.948-.745l-.052-.042a2.416,2.416,0,0,1-.359-.474h0a7.331,7.331,0,0,1-.552-1.214c-.464-1.24-.937-2.48-1.4-3.719-.625-.125-1.109-.385-1.7-.484v-.38a12.357,12.357,0,0,0-.641-3.735,17.243,17.243,0,0,0-2.026-4.021h0c-.13-.208-.266-.411-.406-.615h0c-.177-.276-.37-.521-.557-.813a16.119,16.119,0,0,0-4.829-4.85,18.819,18.819,0,0,0-2.058-.948l-3.646-1.495a1.715,1.715,0,0,0-.651-.177c-.875,0-1.109,1.2-.76,2.031a2.051,2.051,0,0,0,.151.281c1.109,1.625,3.594,2.084,4.287,3.922a2.506,2.506,0,0,0-.953.2,2.761,2.761,0,0,0-1.63,1.813,1.494,1.494,0,0,1-.344.813c-.328.255-.823.109-1.182.307-.646.344-.37,1.307-.438,2.037a9.2,9.2,0,0,1-.662,1.834,3.23,3.23,0,0,0-.078,1.479l.031.156h0a1.777,1.777,0,0,0,.047.229,4.719,4.719,0,0,0,.641,1.438,11.685,11.685,0,0,0,2.375,2.407c.594.49,1.2.984,1.834,1.432.182.125.359.245.521.365a.606.606,0,0,0-.057.1.714.714,0,0,1-.089.224h0a1.146,1.146,0,0,0-.062.646,1.041,1.041,0,0,0,.2.427h0a3.89,3.89,0,0,0,.458.469,9.377,9.377,0,0,1,2.854,5.157,3.157,3.157,0,0,1-.042,1.167h0a9.6,9.6,0,0,0-.464,2.365,3.729,3.729,0,0,0,.073.583h0a12.367,12.367,0,0,0,.823,2.693c.969,2.459,1.995,5,3.927,6.772a21.931,21.931,0,0,0,4.407,10.85,34.8,34.8,0,0,0,7.423,6.506,13.9,13.9,0,0,0,2.74,1.719,15.761,15.761,0,0,0,2.719.734,139.6,139.6,0,0,0,22.737,2.657l1.042.036h.052c0,.4.036.8.052,1.2q.266,6.006.245,12.022v1.078a6.042,6.042,0,0,1-.323,2.308,6.681,6.681,0,0,1-1.084,1.563c-.1.125-.208.255-.307.385-1.563,2.084-1.865,4.86-1.813,7.537v.047a11.456,11.456,0,0,0,.042,1.2,81.882,81.882,0,0,0,1.281,10.673c.615,3.344.354,6.949.833,10.335a16.672,16.672,0,0,0,.833,3.4q.943,2.537,1.886,5.068a4.447,4.447,0,0,1,.375,1.495,2.5,2.5,0,0,1-.036.484h0a8.526,8.526,0,0,1-1.245,2.516,8.71,8.71,0,0,0-1.1,4.6c0,.042,0,.083,0,.13h0a.751.751,0,0,0,.125.375c.2.281.63.255.969.2a38.615,38.615,0,0,1,4.089-.38h.146c-.047.057-.1.115-.146.177h0c-.156.214-.313.443-.464.693h0l-.073.125a15.635,15.635,0,0,0-.9,1.844,17.444,17.444,0,0,0-1.2,3.308,3.035,3.035,0,0,0-.12.521c-.083.344-.156.688-.208,1.042a33.1,33.1,0,0,0-.375,5.417v.75c-.042.807-.083,1.625-.13,2.417a39.29,39.29,0,0,1-.62,6.4,5.266,5.266,0,0,0-.177,1.771v.026a14.518,14.518,0,0,0,.333,2.36c.161.823.375,1.672.589,2.511v.083a9.138,9.138,0,0,0,.062.927v.042a15.291,15.291,0,0,0,.828,4.027v.682a.691.691,0,0,0,0,.1h0c0,.375.047.755.083,1.13.115,1.1.3,2.193.521,3.287v.182q1.563,8.678,3.178,17.351c.062.349.13.693.2,1.042q1.75,9.282,3.646,18.539c.109.521.208,1.042.323,1.563.057.245.109.495.172.74s.146.6.219.9a25.758,25.758,0,0,0,4.745,9.376,42.889,42.889,0,0,1,4.949,7.928.923.923,0,0,1-.057.229h0c-.115.552-.24,1.1-.37,1.646l-.031.125c-1.385,5.881-3.235,11.679-3.875,17.711-.047.432-.083.865-.125,1.3a19.07,19.07,0,0,1-1.146,5.772c-.224.521-.495,1.016-.729,1.531a5.57,5.57,0,0,0-.557,1.891,1.45,1.45,0,0,0,0,.26.292.292,0,0,0,0,.068.232.232,0,0,0,0,.026h0a3.763,3.763,0,0,0,.521,1.844l-.068.052c-.141.109-.276.214-.406.323l-.26.219c-1.8,1.427-4.2,1.719-6.428,2.3s-4.6,1.75-5.287,3.949c-.042.141-.073.281-.1.427a1.436,1.436,0,0,0-.031.208h0a3.777,3.777,0,0,0-.047.641v.047a.639.639,0,0,0,0,.1,5.932,5.932,0,0,0,2.6,4.349,14.393,14.393,0,0,0,6.355,1.948,21.1,21.1,0,0,1,6.511,1.495c1.729.859,3.193,2.271,5.027,2.891.109.037.219.057.333.089l-.1.057c-.25.151-.521.3-.755.432l-.406.224a19.043,19.043,0,0,1-6.068,1.933c-2.146.3-4.688.438-5.8,2.3h0a.366.366,0,0,0-.042.094h0a1.241,1.241,0,0,0-.12.286v.042a.615.615,0,0,0-.047.125.732.732,0,0,0-.047.141,1.008,1.008,0,0,1,0,.12,2.215,2.215,0,0,0-.089.411,3.448,3.448,0,0,0,.036,1.083,4.855,4.855,0,0,0,1.4,2.537,10.122,10.122,0,0,0,4.834,2.136,87.077,87.077,0,0,0,12.033,1.495l3.922.3c1.4.109,2.808.214,4.209.312.995.063,1.99.125,2.985.172s1.9.078,2.844.1h1.479q3.646,0,7.246-.307c2.328-.208,4.631-.521,6.923-.927a1.562,1.562,0,0,0,1.125-.521,1.049,1.049,0,0,0,.068-.13.452.452,0,0,0,.031-.089.188.188,0,0,0,0-.047.67.67,0,0,0,0-.1,1.272,1.272,0,0,0,0-.151v-.37c0-.495,0-.985-.036-1.479v-.6l-.031-.609c-.036-.594-.073-1.193-.125-1.787l-.062-.708V552.5a4.2,4.2,0,0,0-.052-.521.9.9,0,0,0-.036-.307l-.094-.839c-.073-.615-.156-1.224-.245-1.834q-.287-2-.7-3.974v-.068c-.1-.448-.2-.891-.292-1.333-.328-1.406-2.245.521-3.318,1.724-.141-.672-.286-1.339-.464-1.99h0v-.078c.286-.13.568-.266.844-.4a3,3,0,0,0,1.563-1.292,2.247,2.247,0,0,0,.167-.7,3.043,3.043,0,0,0,0-.437v-.344c-.156-3.094-.344-6.3-1.813-9.011a19.169,19.169,0,0,0-3.578-4.365c0-.333-.036-.667-.052-1-.156-3.313-.38-6.626-.693-9.934a144.8,144.8,0,0,0-2.766-17.955c-.37-1.6-.745-3.2-1.209-4.777h0a31.25,31.25,0,0,0-4.042-9.027c-.349-.521-.724-1.042-1.1-1.563q-.167-2.927-.521-5.865c-.313-2.688-.729-5.365-1.172-8.017-.036-.25-.083-.521-.109-.766v-.042a2.522,2.522,0,0,1,.125-1.042,6.166,6.166,0,0,1,1.042-1.4,5.923,5.923,0,0,0,1.1-3.646c0-.05,0-.1,0-.151,0-1.38-.2-2.839-.3-4.209,0-.385-.036-.766-.036-1.151h0v-.042h0v-.172c0-.4,0-.8.026-1.193a52.424,52.424,0,0,1,1.563-9.126c.745-3.125,1.5-6.2,2.24-9.309h0q.445-1.813.87-3.646c.109-.432.214-.859.313-1.292a22.867,22.867,0,0,1,1.208-3.943,37.789,37.789,0,0,1,3.084-4.974,27.893,27.893,0,0,0,4.35-14.809h0a.087.087,0,0,0,0-.036v-.062a.691.691,0,0,0,0-.1v-1.042h0a5.029,5.029,0,0,0-.047-.823c.646.229,1.3.464,1.938.714a10.958,10.958,0,0,0,.083-1.177v-.042c.052-2.412-.474-4.975-.521-7.4a.339.339,0,0,1,0-.073v-.068a12.819,12.819,0,0,1,.161-2.381,9.6,9.6,0,0,1,.266-1.078c.182-.146.365-.292.521-.443h0a14.965,14.965,0,0,0,4.3-5.324c.938-2.084,1.208-4.464,2.188-6.548a21.02,21.02,0,0,0,1.662-3.516,5.64,5.64,0,0,0,.172-1.177v-.063a38.718,38.718,0,0,0-.26-3.928h0v-.63c.052-3.615,2.3-7,2.552-10.527v-.047a8.455,8.455,0,0,0-.083-1.771c-.276-1.755-1.209-3.4-1.38-5.146h0a4.156,4.156,0,0,1-.031-.672,10.229,10.229,0,0,1,.818-3.162c1.818-4.808,3.615-9.866,3.75-14.934a.141.141,0,0,0,0-.047v-.109a18.807,18.807,0,0,0-.318-4.141c-.24-1.328-.63-2.641-.734-3.974a8.525,8.525,0,0,1,0-1.042c.083-1.464.62-2.9.76-4.334h0a5.922,5.922,0,0,0,0-1.391,4.386,4.386,0,0,0-.469-1.375h0a4.362,4.362,0,0,0-.4-.625,23.729,23.729,0,0,0,2.12-4.063,7.6,7.6,0,0,0,.521-1.667A3.858,3.858,0,0,0,814.9,312.4Zm-35.64,229.831h0l-.052-.031a6.508,6.508,0,0,0-1.735-.495c-.146,0-.3-.031-.443-.042H777a8.636,8.636,0,0,0,.172-1.474c0-.292,0-.589,0-.886v-.578c0-.292-.026-.589-.047-.88s-.057-.635-.078-.953h0a1.417,1.417,0,0,1,0-.146c.068.2.141.4.224.594q.964,2.511,2.084,4.943ZM791.314,271.7Z" transform="translate(-336.128 -134.273)"/><path class="n" d="M834.593,322.4c-.068,2.641-.964,5.209-1.1,7.845,7.813.385,15.465-3.391,23.17-2.235-2.151-1.391-3.3-3.907-3.98-6.381a26.364,26.364,0,0,1-.761-9.8,3.948,3.948,0,0,1,.094-.521c.286-1.292,1.042-3.125.828-4.141-.26-1.344-1.531-1.078-2.672-1a101.107,101.107,0,0,0-10.387,1.339c-.9.156-9.621,2.334-9.751,2.11a41.372,41.372,0,0,1,3.777,7.777A15.155,15.155,0,0,1,834.593,322.4Z" transform="translate(-403.446 -163.071)"/><path class="n" d="M690.291,306.628a11.286,11.286,0,0,0,2.38,2.4c.589.484,1.193.979,1.828,1.422a7.813,7.813,0,0,0,3.891,1.563c1.854.125,5.792-.964,6.944-2.552A4.594,4.594,0,0,0,706,306.8a12.319,12.319,0,0,0-.635-3.719,20.68,20.68,0,0,0-3.006-5.428,15.972,15.972,0,0,0-4.823-4.829,18.7,18.7,0,0,0-2.052-.943l-3.646-1.49a1.83,1.83,0,0,0-.661-.172c-.974,0-1.151,1.5-.6,2.3,1.1,1.62,3.589,2.084,4.287,3.907a2.782,2.782,0,0,0-2.6,2,1.427,1.427,0,0,1-.349.813c-.318.255-.818.109-1.182.3-.641.344-.359,1.3-.427,2.031a9.262,9.262,0,0,1-.667,1.823A3.876,3.876,0,0,0,690.291,306.628Z" transform="translate(-336.127 -155.469)"/><path class="o" d="M882.179,819.2a2.761,2.761,0,0,0-2.417-.365,89.794,89.794,0,0,1-13.58,1.1c-.568-2.782,1.083-5.485,1.615-8.272a7.293,7.293,0,0,1,.521-2.084,4.8,4.8,0,0,1,3.438-2.084c2.448-.521,6.251-1.427,7.642,1.042C881.059,811.513,881.585,815.9,882.179,819.2Z" transform="translate(-420.71 -403.01)"/><path class="d" d="M799.069,798.136a14.33,14.33,0,0,0,6.355,1.938,20.446,20.446,0,0,1,6.511,1.484c1.735.854,3.193,2.261,5.032,2.875a10.432,10.432,0,0,0,5.209.083c2.084-.385,4.261-1.141,5.376-2.922.995-1.563.886-3.589.75-5.454-.161-2.084-.313-4.219-.469-6.329a3.087,3.087,0,0,0-.391-1.531c-1.5-2.172-5.12.911-7.058.906a13.588,13.588,0,0,1-8.595-3.709,2.608,2.608,0,0,0-.667-.521c-.88-.4-1.755.333-2.537.969-.083.073-.172.141-.261.208-1.8,1.427-4.2,1.714-6.423,2.292s-4.6,1.74-5.287,3.927a3.14,3.14,0,0,0-.1.422A5.571,5.571,0,0,0,799.069,798.136Z" transform="translate(-387.351 -392.445)"/><path class="p" d="M799.069,798.136a14.33,14.33,0,0,0,6.355,1.938,20.446,20.446,0,0,1,6.511,1.484c1.735.854,3.193,2.261,5.032,2.875a10.432,10.432,0,0,0,5.209.083c2.084-.385,4.261-1.141,5.376-2.922.995-1.563.886-3.589.75-5.454-.161-2.084-.313-4.219-.469-6.329a3.087,3.087,0,0,0-.391-1.531c-1.5-2.172-5.12.911-7.058.906a13.588,13.588,0,0,1-8.595-3.709,2.608,2.608,0,0,0-.667-.521c-.88-.4-1.755.333-2.537.969-.083.073-.172.141-.261.208-1.8,1.427-4.2,1.714-6.423,2.292s-4.6,1.74-5.287,3.927a3.14,3.14,0,0,0-.1.422A5.571,5.571,0,0,0,799.069,798.136Z" transform="translate(-387.351 -392.445)"/><path class="q" d="M798.89,798.829a14.327,14.327,0,0,0,6.355,1.938,20.45,20.45,0,0,1,6.511,1.485c1.735.859,3.193,2.261,5.032,2.875a10.433,10.433,0,0,0,5.209.083,8.625,8.625,0,0,0,5.376-3.646c.995-1.563.886-3.589.75-5.454-.161-2.083-.313-4.219-.469-6.329a3.087,3.087,0,0,0-.391-1.531c-1.495-2.172-5.12.911-7.058.906a13.589,13.589,0,0,1-8.595-3.709,2.605,2.605,0,0,0-.667-.521c-.88-.4-1.756.333-2.537.969a18.227,18.227,0,0,0,2.162,4.459,9.329,9.329,0,0,0,6.772,4.24,22.032,22.032,0,0,1,4.115.182c1.328.354,2.568,1.714,2.084,3.006s-2.084,1.563-3.428,1.61a15.352,15.352,0,0,1-5.589-.391c-1.089-.365-2.083-.964-3.125-1.407-4.506-1.87-10.2-.823-13.924-3.98a7.924,7.924,0,0,0-1.135-.87C795.364,794.808,797.166,797.647,798.89,798.829Z" transform="translate(-387.172 -392.43)"/><path class="p" d="M798.89,798.829a14.327,14.327,0,0,0,6.355,1.938,20.45,20.45,0,0,1,6.511,1.485c1.735.859,3.193,2.261,5.032,2.875a10.433,10.433,0,0,0,5.209.083,8.625,8.625,0,0,0,5.376-3.646c.995-1.563.886-3.589.75-5.454-.161-2.083-.313-4.219-.469-6.329a3.087,3.087,0,0,0-.391-1.531c-1.495-2.172-5.12.911-7.058.906a13.589,13.589,0,0,1-8.595-3.709,2.605,2.605,0,0,0-.667-.521c-.88-.4-1.756.333-2.537.969a18.227,18.227,0,0,0,2.162,4.459,9.329,9.329,0,0,0,6.772,4.24,22.032,22.032,0,0,1,4.115.182c1.328.354,2.568,1.714,2.084,3.006s-2.084,1.563-3.428,1.61a15.352,15.352,0,0,1-5.589-.391c-1.089-.365-2.083-.964-3.125-1.407-4.506-1.87-10.2-.823-13.924-3.98a7.924,7.924,0,0,0-1.135-.87C795.364,794.808,797.166,797.647,798.89,798.829Z" transform="translate(-387.172 -392.43)"/><path class="r" d="M848.057,539.417a27.7,27.7,0,0,1-3.8,20.451,39.618,39.618,0,0,0-3.084,4.948,22.832,22.832,0,0,0-1.208,3.928l-3.417,14.163c-.927,3.823-1.854,7.72-1.563,11.642.193,2.735.88,5.808-.8,7.97a5.861,5.861,0,0,0-1.042,1.4,3.567,3.567,0,0,0,0,1.844c1.729,10.282,3.016,21.029-.11,30.978-2.834,9.017-3,19.008-5.407,28.128a6.25,6.25,0,0,1-1.5,3.125,4.891,4.891,0,0,1-2.24,1.042c-3.553.849-7.293-.146-10.616-1.677-2.328-1.078-4.834-2.969-4.636-5.527a11.26,11.26,0,0,1,1.292-3.407c.943-2.2,1.042-4.652,1.276-7.032.641-5.98,2.485-11.746,3.875-17.6s2.339-11.955,1.162-17.851a156.047,156.047,0,0,0-11.46-35.327,4.207,4.207,0,0,0-1.042-1.563c-.469-.385-1.089-.563-1.49-1.042a4.579,4.579,0,0,1-.677-1.849c-.521-1.865-2.057-3.24-3.089-4.881-2.6-4.136-1.781-9.439-1.682-14.325.094-4.756-.589-9.553.188-14.241s3.464-9.48,7.985-10.939a17.221,17.221,0,0,1,7.006-.328C824.34,532.682,836.394,534.959,848.057,539.417Z" transform="translate(-387.427 -270.947)"/><path class="p" d="M848.057,539.417a27.7,27.7,0,0,1-3.8,20.451,39.618,39.618,0,0,0-3.084,4.948,22.832,22.832,0,0,0-1.208,3.928l-3.417,14.163c-.927,3.823-1.854,7.72-1.563,11.642.193,2.735.88,5.808-.8,7.97a5.861,5.861,0,0,0-1.042,1.4,3.567,3.567,0,0,0,0,1.844c1.729,10.282,3.016,21.029-.11,30.978-2.834,9.017-3,19.008-5.407,28.128a6.25,6.25,0,0,1-1.5,3.125,4.891,4.891,0,0,1-2.24,1.042c-3.553.849-7.293-.146-10.616-1.677-2.328-1.078-4.834-2.969-4.636-5.527a11.26,11.26,0,0,1,1.292-3.407c.943-2.2,1.042-4.652,1.276-7.032.641-5.98,2.485-11.746,3.875-17.6s2.339-11.955,1.162-17.851a156.047,156.047,0,0,0-11.46-35.327,4.207,4.207,0,0,0-1.042-1.563c-.469-.385-1.089-.563-1.49-1.042a4.579,4.579,0,0,1-.677-1.849c-.521-1.865-2.057-3.24-3.089-4.881-2.6-4.136-1.781-9.439-1.682-14.325.094-4.756-.589-9.553.188-14.241s3.464-9.48,7.985-10.939a17.221,17.221,0,0,1,7.006-.328C824.34,532.682,836.394,534.959,848.057,539.417Z" transform="translate(-387.427 -270.947)"/><path class="r" d="M796.63,571.346a30.052,30.052,0,0,0,.625,5.49q3.282,18.414,7,36.744c.219,1.042.432,2.12.719,3.162a25.686,25.686,0,0,0,4.74,9.324c10.314,12.856,11.2,31.53,16.8,47.037.375,1.042.755,2.084,1.156,3.125a76.7,76.7,0,0,0,3.454,7.7,2.188,2.188,0,0,0,.708.922,2.131,2.131,0,0,0,1.125.219,32.815,32.815,0,0,0,14.559-3.3,3.026,3.026,0,0,0,1.563-1.281,3.15,3.15,0,0,0,.161-1.479c-.156-3.073-.344-6.251-1.807-8.959a19.216,19.216,0,0,0-3.584-4.344,164.943,164.943,0,0,0-3.511-28.738c-1.089-4.818-2.438-9.689-5.209-13.762-2.084-3.006-5.021-5.969-4.657-9.6.162-1.563.828-3.573-.469-4.511-.568-.411-1.407-.464-1.787-1.042a1.976,1.976,0,0,1-.25-.9,22.222,22.222,0,0,1,.458-7.444,40.059,40.059,0,0,0,1.109-4.85,6.114,6.114,0,0,0-1.219-4.688c-.068-3.313,0-6.772-.047-10.053a18.754,18.754,0,0,1,.464-5.615c.255-.87.635-1.7.828-2.6.693-3.177-1.042-6.99,1.042-9.512a14.375,14.375,0,0,1,3.3-2.323,12.123,12.123,0,0,0,4.532-6.516,37.3,37.3,0,0,0,1.287-7.98,8.305,8.305,0,0,0,0-1.724,3.084,3.084,0,0,0-.229-.859c-.641-1.438-2.36-2-3.891-2.365a125.743,125.743,0,0,0-29.691-3.469c-3.7-2.521-5.782-1.62-7.35,1.042a27.722,27.722,0,0,0-2.084,5.11c-.719,2.162-.761,14.278-1.458,16.45C794.046,562.606,796.666,568.377,796.63,571.346Z" transform="translate(-386.569 -273.065)"/><path class="s" d="M904.006,388.938c.276,1.907-.641,3.782-.745,5.7a21.461,21.461,0,0,0,.755,4.975c1.193,6.459-1.1,13-3.438,19.133a9.843,9.843,0,0,0-.813,3.125c-.063,2.005,1.089,3.839,1.406,5.818.661,4.167-2.4,8.069-2.469,12.283,0,1.938.583,3.912.1,5.787a20.263,20.263,0,0,1-1.662,3.5c-.984,2.084-1.245,4.423-2.188,6.511-1.693,3.782-5.339,6.251-8.8,8.517-1.974-.656-4.11-1.438-5.209-3.214a7.914,7.914,0,0,1-.9-2.818,73.568,73.568,0,0,1-.7-13.075,81.165,81.165,0,0,1,.615-11.21c.7-4.751,2.24-9.329,3.344-14,1.4-5.891,2.084-11.981,4.282-17.632a59.7,59.7,0,0,1,8.011-13.694c1.193-1.63,2.136-3.959,4.454-3.584a4.855,4.855,0,0,1,3.959,3.875Z" transform="translate(-427.066 -200.889)"/><path class="p" d="M904.006,388.938c.276,1.907-.641,3.782-.745,5.7a21.461,21.461,0,0,0,.755,4.975c1.193,6.459-1.1,13-3.438,19.133a9.843,9.843,0,0,0-.813,3.125c-.063,2.005,1.089,3.839,1.406,5.818.661,4.167-2.4,8.069-2.469,12.283,0,1.938.583,3.912.1,5.787a20.263,20.263,0,0,1-1.662,3.5c-.984,2.084-1.245,4.423-2.188,6.511-1.693,3.782-5.339,6.251-8.8,8.517-1.974-.656-4.11-1.438-5.209-3.214a7.914,7.914,0,0,1-.9-2.818,73.568,73.568,0,0,1-.7-13.075,81.165,81.165,0,0,1,.615-11.21c.7-4.751,2.24-9.329,3.344-14,1.4-5.891,2.084-11.981,4.282-17.632a59.7,59.7,0,0,1,8.011-13.694c1.193-1.63,2.136-3.959,4.454-3.584a4.855,4.855,0,0,1,3.959,3.875Z" transform="translate(-427.066 -200.889)"/><path class="t" d="M830,309.57a41.367,41.367,0,0,1,3.777,7.777,17.925,17.925,0,0,0,4.287.521c5.61,0,9.585-3.193,12.882-7.225.286-1.3,2.084-2.5,1.865-3.521-.26-1.344-1.531-1.078-2.672-1a101.132,101.132,0,0,0-10.387,1.339C838.855,307.617,830.146,309.794,830,309.57Z" transform="translate(-403.431 -163.052)"/><circle class="n" cx="17.976" cy="17.976" r="17.976" transform="translate(416.672 118.374)"/><path class="t" d="M801.9,538.227c3.125-.182,6.251-.057,9.376.068a31.531,31.531,0,0,1,5.813.6c2.36.521,4.568,1.609,6.9,2.282,3.73,1.089,7.668,1.135,11.527,1.516a65.925,65.925,0,0,1,7.548,1.182,3.087,3.087,0,0,0-.229-.859c-.641-1.438-2.36-1.995-3.891-2.365a125.756,125.756,0,0,0-29.691-3.469C805.552,534.659,803.468,535.56,801.9,538.227Z" transform="translate(-389.969 -273.075)"/><path class="s" d="M807.277,345.037c.786.906,1.839,1.907,3,1.615a4.215,4.215,0,0,0,1.167-.625c2.084-1.339,4.615-1.651,7.053-2.016a104.166,104.166,0,0,0,14.528-3.266,14.781,14.781,0,0,1,4.3-.875c3.047,0,5.73,2.042,7.657,4.417s3.261,5.152,5.136,7.553c1.333,1.714,2.922,3.224,4.167,5,3.125,4.485,3.823,10.34,3.011,15.762s-2.98,10.527-5.126,15.575A55.407,55.407,0,0,1,848,396.612a20,20,0,0,1-1.615,12.5,12.207,12.207,0,0,0-1.63,3.724,9.247,9.247,0,0,0,.109,2.729l.917,6.506c.276,1.985.557,3.964.917,5.933.662,3.6,1.563,7.517-.109,10.777-2,3.9.1,8.907-.427,13.262a66.71,66.71,0,0,0-17.518-4.167c-3.865-.38-7.814-.427-11.528-1.511-2.328-.677-4.532-1.75-6.9-2.292a31.948,31.948,0,0,0-5.818-.594,68.891,68.891,0,0,0-12.908.292c-.349.052-.766.078-.974-.2a.932.932,0,0,1-.13-.521,8.568,8.568,0,0,1,1.1-4.574c.521-.958,1.3-1.9,1.276-3a4.507,4.507,0,0,0-.375-1.49l-1.886-5.042c-1.6-4.251-.839-9.194-1.667-13.658a80.214,80.214,0,0,1-1.24-10.569c-.156-3.032-.057-6.319,1.771-8.741a9.9,9.9,0,0,0,1.38-1.922,5.777,5.777,0,0,0,.328-2.3q.063-9.095-.521-18.185c1.6-2.865,3.261-5.8,4.855-8.663,1.854-3.334,3.74-6.735,4.49-10.475.521-2.479.479-5.027.833-7.527a3.255,3.255,0,0,1,.635-1.761,3.213,3.213,0,0,1,2.558-.761A11.22,11.22,0,0,1,807.277,345.037Z" transform="translate(-383.094 -179.256)"/><path class="t" d="M699.07,325.459a7.814,7.814,0,0,0,3.891,1.563c1.854.125,5.792-.964,6.944-2.552a4.6,4.6,0,0,0,.662-2.657,3.214,3.214,0,0,0-.771-.151,20.158,20.158,0,0,0-6.032.245,6.824,6.824,0,0,0-4.688,3.516Z" transform="translate(-340.703 -170.482)"/><path class="s" d="M759.191,364.8a12.73,12.73,0,0,1-3.787,3.568,12.169,12.169,0,0,1-5.9.906,141.128,141.128,0,0,1-24.665-2.709,15.242,15.242,0,0,1-2.714-.729,14.45,14.45,0,0,1-2.745-1.709,35.167,35.167,0,0,1-7.423-6.475,21.79,21.79,0,0,1-4.4-10.788c-1.938-1.781-2.964-4.318-3.933-6.772a10.461,10.461,0,0,1-.9-3.287c-.052-1.162.719-2.381.521-3.527a9.324,9.324,0,0,0-2.849-5.131,1.859,1.859,0,0,1-.682-.9,1.458,1.458,0,0,1,.167-.88,6.78,6.78,0,0,1,4.688-3.516,20.171,20.171,0,0,1,6.032-.24,15.52,15.52,0,0,1,1.974.521l1.406,3.7a4.8,4.8,0,0,0,.922,1.688,9.134,9.134,0,0,0,.995.781,5.73,5.73,0,0,1,1.979,4.99,5.36,5.36,0,0,1,3.172,6.615,6.324,6.324,0,0,1,4.636,4.084,3.064,3.064,0,0,0,.6,1.271,2.48,2.48,0,0,0,1.62.521c1.563.1,2.974,1.349,4.417.672a8.955,8.955,0,0,1,5.225-.734,3.87,3.87,0,0,0,1.12.1,3.044,3.044,0,0,0,.917-.318,7.527,7.527,0,0,1,2.083-.823,1.948,1.948,0,0,1,1.974.766c.521-.552.807-1.261,1.266-1.849a2.021,2.021,0,0,1,1.917-.917c-.479-.427,0-1.276.63-1.433a7.906,7.906,0,0,1,1.917.073c1.662,0,2.938-1.521,4.552-1.917,1.485-.359,3.464.073,4.225-1.255.271-.469.323-1.1.781-1.391a1.5,1.5,0,0,1,1-.12,9.859,9.859,0,0,1,3.037.922c1.563,6.089.74,12.413-.448,18.586A16.474,16.474,0,0,1,759.191,364.8Z" transform="translate(-341.009 -170.935)"/><path class="t" d="M812.329,443.7l7.74,15.627c-.839-1.443-2.6-2.005-4-2.927a10.585,10.585,0,0,1-3.818-5.131,31.492,31.492,0,0,1-1.49-6.345c-.156-.99-.484-2.38,0-3.276C811.667,441.832,811.959,442.968,812.329,443.7Z" transform="translate(-394.095 -228.019)"/><path class="t" d="M853.792,468.216a68.306,68.306,0,0,0,5.808,4.532c4.49,3.573,7.688,8.48,10.814,13.293a21.045,21.045,0,0,1,2.208,4.053c-.365.318-.912,0-1.271-.328l-6.084-5.344a13.739,13.739,0,0,1-2.026-2.052c-1.042-1.417-1.521-3.193-2.479-4.688a18.463,18.463,0,0,0-3.693-3.766c-1.339-1.162-7.813-6.621-6.251-8.725C851.948,465.753,852.88,467.315,853.792,468.216Z" transform="translate(-413.289 -239.298)"/><path class="s" d="M828.057,337.807a18.187,18.187,0,0,1,6.433-2.12,13.545,13.545,0,0,1,4.094-.292c1.266.156,2.479.646,3.756.714,1.787.1,3.5-.625,5.209-1.094s3.724-.656,5.178.391a2.246,2.246,0,0,0,1.125.6,1.958,1.958,0,0,0,1.162-.573,6.636,6.636,0,0,1,8.267.438c3.3,3.089,2.927,9.126,6.772,11.46,1.068.646,2.427.99,3.047,2.084a7.239,7.239,0,0,0,.521.995,2.677,2.677,0,0,0,.927.662,18.182,18.182,0,0,1,3.188,1.828,4.563,4.563,0,0,1,1.834,3.073,5.73,5.73,0,0,1-.568,2.6,24.232,24.232,0,0,1-23.555,15.064,3.741,3.741,0,0,1-2.469-.771,4.647,4.647,0,0,1-.865-1.422c-1.813-3.808-5.209-6.621-7.392-10.241-1.292-2.157-2.12-4.568-3.464-6.694-2-3.23-5.1-5.631-8.121-7.918-1.709-1.3-3.61-2.667-5.761-2.578-1.912.083-3.308.188-2.6-2.162A7.506,7.506,0,0,1,828.057,337.807Z" transform="translate(-400.837 -176.537)"/><path class="p" d="M828.057,337.807a18.187,18.187,0,0,1,6.433-2.12,13.545,13.545,0,0,1,4.094-.292c1.266.156,2.479.646,3.756.714,1.787.1,3.5-.625,5.209-1.094s3.724-.656,5.178.391a2.246,2.246,0,0,0,1.125.6,1.958,1.958,0,0,0,1.162-.573,6.636,6.636,0,0,1,8.267.438c3.3,3.089,2.927,9.126,6.772,11.46,1.068.646,2.427.99,3.047,2.084a7.239,7.239,0,0,0,.521.995,2.677,2.677,0,0,0,.927.662,18.182,18.182,0,0,1,3.188,1.828,4.563,4.563,0,0,1,1.834,3.073,5.73,5.73,0,0,1-.568,2.6,24.232,24.232,0,0,1-23.555,15.064,3.741,3.741,0,0,1-2.469-.771,4.647,4.647,0,0,1-.865-1.422c-1.813-3.808-5.209-6.621-7.392-10.241-1.292-2.157-2.12-4.568-3.464-6.694-2-3.23-5.1-5.631-8.121-7.918-1.709-1.3-3.61-2.667-5.761-2.578-1.912.083-3.308.188-2.6-2.162A7.506,7.506,0,0,1,828.057,337.807Z" transform="translate(-400.837 -176.537)"/><path class="d" d="M811.942,828.134a10.078,10.078,0,0,0,4.829,2.125,87.893,87.893,0,0,0,12.028,1.484l3.928.3c3.834.286,7.673.583,11.522.6a79.269,79.269,0,0,0,14.168-1.224,1.2,1.2,0,0,0,1.3-1.438,68.464,68.464,0,0,0-1.74-14.226c-.448-1.917-3.886,2.381-4.037,2.563a3.977,3.977,0,0,1-3.125,1.657c-3.954.219-8.386-2.188-11.527-4.323a14.39,14.39,0,0,0-2.136-1.323,6.152,6.152,0,0,0-1.724-.521A10.444,10.444,0,0,0,829.538,815c-2.36,1.172-4.433,2.854-6.772,4.058a18.9,18.9,0,0,1-6.068,1.922c-2.141.3-4.688.438-5.8,2.292A4.112,4.112,0,0,0,811.942,828.134Z" transform="translate(-394.078 -406.301)"/><path class="q" d="M811.692,828.9a10.076,10.076,0,0,0,4.829,2.125,87.927,87.927,0,0,0,12.028,1.485l3.928.3c3.834.286,7.673.583,11.522.6a79.257,79.257,0,0,0,14.168-1.224,1.563,1.563,0,0,0,1.125-.521,6.454,6.454,0,0,0,.875-1.6c-.078-4.787-1.375-9.564-2.448-14.226-.448-1.917-3.886,2.381-4.037,2.563a3.977,3.977,0,0,1-3.125,1.656c-3.954.219-8.387-2.188-11.527-4.323a14.4,14.4,0,0,0-2.136-1.323,6.157,6.157,0,0,0-1.724-.521c.521,2.844,4.589,6.282,6.694,7.329,4.261,2.115,9.324,1.042,14.064,1.307a1.933,1.933,0,0,1,.995.245c.573.375.6,1.182.589,1.865-.042,1.136-.187,2.464-1.167,3.042a3.322,3.322,0,0,1-1.563.328,222.7,222.7,0,0,1-35.108-1.229,19.4,19.4,0,0,1-5.73-1.271,14.661,14.661,0,0,1-3.318-2.135C809.145,824.553,810.4,827.689,811.692,828.9Z" transform="translate(-393.828 -406.36)"/><path class="d" d="M826.982,275.484c.068,1.86-1.2,5.464,2.276,4.459,2.083-.6,2.656-3.058,5.287-2.511s3.235,3.787,4.125,5.907a11.3,11.3,0,0,0,8.188,6.621,4.923,4.923,0,0,0,2.255,0c1.7-.484,2.667-2.235,3.36-3.855a30.823,30.823,0,0,0,1.485-4.23,18.014,18.014,0,0,0,.521-3.125h0a14.026,14.026,0,0,0,0-2.146c-.318-4.224-2.719-8.079-5.8-11s-6.819-5.016-10.512-7.095a15.3,15.3,0,0,0-3.881-1.729,12.993,12.993,0,0,0-4.094-.167,14.126,14.126,0,0,0-5.209,1.224,7.369,7.369,0,0,0-1.834,1.287,5.49,5.49,0,0,0-1.563,2.651c-.667,2.735,1.073,5.209,2.49,7.35C825.33,271.057,826.888,273.093,826.982,275.484Z" transform="translate(-399.329 -139.327)"/><path class="t" d="M719.77,361.389c.745-1.87,3.87-7.048,2.964-8.829a23.545,23.545,0,0,0-2.375,4.245C719.77,358.253,720.249,360.2,719.77,361.389Z" transform="translate(-350.62 -185.336)"/><path class="t" d="M823.92,271.2c-1.417-2.162-3.162-4.62-2.5-7.35a5.787,5.787,0,0,1,2.021-3.026,5.037,5.037,0,0,0-.521,1.276c-.667,2.729,1.078,5.209,2.5,7.35,1.255,1.917,2.813,3.954,2.907,6.345.068,1.854-1.2,5.464,2.276,4.459,2.084-.6,2.657-3.058,5.287-2.505s3.229,3.782,4.12,5.9a11.319,11.319,0,0,0,8.209,6.621,4.92,4.92,0,0,0,2.255,0,3.37,3.37,0,0,0,1.042-.521,4.573,4.573,0,0,1-2.573,2.271,4.921,4.921,0,0,1-2.255,0,11.319,11.319,0,0,1-8.178-6.621c-.891-2.12-1.469-5.35-4.12-5.907S831.176,281.4,829.1,282c-3.48,1.005-2.209-2.6-2.276-4.459C826.739,275.15,825.176,273.113,823.92,271.2Z" transform="translate(-399.253 -141.383)"/><path class="t" d="M823.814,265.447a16.194,16.194,0,0,0,1.042,1.521,18.635,18.635,0,0,0,2.459,2.547,19.255,19.255,0,0,0,1.662,1.3,26.665,26.665,0,0,0,3.355,2.005,61.608,61.608,0,0,0,10.741,3.844l7.178,2.084c.88.667,2.5,1.87,4.277,3.125a18,18,0,0,0,.521-3.125h0a14.041,14.041,0,0,0,0-2.146c-.318-4.224-2.719-8.079-5.8-11s-6.819-5.016-10.512-7.095a15.3,15.3,0,0,0-3.881-1.729,12.994,12.994,0,0,0-4.094-.167,14.127,14.127,0,0,0-5.209,1.224,7.369,7.369,0,0,0-1.834,1.287,6.841,6.841,0,0,0-.922,1.948A5.748,5.748,0,0,0,823.814,265.447Z" transform="translate(-399.917 -139.327)"/><path class="s" d="M823.827,261.389a16.2,16.2,0,0,0,1.042,1.521,18.623,18.623,0,0,0,2.459,2.547,19.264,19.264,0,0,0,1.662,1.3,26.685,26.685,0,0,0,3.355,2.005,62.067,62.067,0,0,0,10.741,3.849l7.178,2.084c2.506,1.9,10.887,8.105,12.3,7.329,1.662-.912-7.438-7.355-7.438-7.355l-.422.318c1.334-.839,2.032-2.782,2.334-4.459a22.6,22.6,0,0,0,.068-9.1,10.8,10.8,0,0,0-5.209-7.188c-1.208-.62-2.672-1.042-3.542-2a2.553,2.553,0,0,1-.344-.464,2.269,2.269,0,0,1-.135-.245,3.188,3.188,0,0,0-.38-.74c-.521-.578-1.406-.406-2.162-.313l-.24.026h-.406c-2.7.062-5.313-1.443-8.043-1.443-3,0-5.537,1.729-8.173,2.912-.521.24-1.042.458-1.511.682a6.534,6.534,0,0,0-4.12,4.349A5.607,5.607,0,0,0,823.827,261.389Z" transform="translate(-399.931 -135.754)"/><path class="t" d="M864.787,251.822a1.224,1.224,0,0,0,.281,1.563,2.235,2.235,0,0,0,1.136.406,8.234,8.234,0,0,0,.88.068,2.422,2.422,0,0,0,1.167-.2,1.043,1.043,0,0,0,.2-.13,2.546,2.546,0,0,1-.344-.464c-.068.052-.135.042-.406,0a6.251,6.251,0,0,1-1.453-.25,1.427,1.427,0,0,1-1.042-1.042Z" transform="translate(-420.018 -137.048)"/><path class="t" d="M880.453,298.042a3.331,3.331,0,0,1-1.24.464,5.022,5.022,0,0,1-.964.156A5.34,5.34,0,0,1,875.9,298Z" transform="translate(-425.422 -159.196)"/><path class="u" d="M435.752,321.027l-.677-1.49-.271.073.708,1.485,5.1,10.757a6.567,6.567,0,0,0-1.563,3.646,2.453,2.453,0,0,0,.13.776c.26.761.583,1.068.875,1.151v-.13a3.213,3.213,0,0,1,0-.521v-.229a.53.53,0,0,1,0-.089v-.036h0a.914.914,0,0,0,.026-.115h0a.111.111,0,0,1,0-.042s0-.036,0-.052l.062-.224.026-.062.031-.115c.026-.073.052-.151.083-.224a.617.617,0,0,1,.042-.1l.063-.146c.063-.146.135-.286.2-.427a4.314,4.314,0,0,1,.214-.38,9.091,9.091,0,0,1,.688-.99Zm5.678,18.023H441.4a.646.646,0,0,1-.318,0h-.052a.663.663,0,0,1-.094-.031.736.736,0,0,1-.214-.13l-.078-.073a1.947,1.947,0,0,1-.375-.594,1.913,1.913,0,0,0-.115.609.974.974,0,0,0,.474.912,1.769,1.769,0,0,1,.495.49h0a.037.037,0,0,0,0-.031h0a.153.153,0,0,1,0-.047.086.086,0,0,1,0-.036,2.833,2.833,0,0,1,.224-.62c.052-.1.1-.193.156-.281a.9.9,0,0,1,.068-.12l.047-.073.078-.125a.927.927,0,0,1-.266.151Zm0,0H441.4a.646.646,0,0,1-.318,0h-.052a.663.663,0,0,1-.094-.031.736.736,0,0,1-.214-.13l-.078-.073a1.947,1.947,0,0,1-.375-.594,1.913,1.913,0,0,0-.115.609.974.974,0,0,0,.474.912,1.769,1.769,0,0,1,.495.49h0a.037.037,0,0,0,0-.031h0a.153.153,0,0,1,0-.047.086.086,0,0,1,0-.036,2.833,2.833,0,0,1,.224-.62c.052-.1.1-.193.156-.281a.9.9,0,0,1,.068-.12l.047-.073.078-.125a.927.927,0,0,1-.266.151Zm-5.678-18.023-.677-1.49-.271.073.708,1.485,5.1,10.757a6.567,6.567,0,0,0-1.563,3.646,2.453,2.453,0,0,0,.13.776c.26.761.583,1.068.875,1.151v-.13a3.213,3.213,0,0,1,0-.521.277.277,0,0,1,0-.068v-.073h0a.117.117,0,0,0,0-.042h0v-.026a.131.131,0,0,1,0-.042h0a.293.293,0,0,1,0-.062h0a.808.808,0,0,1,.026-.12.112.112,0,0,1,0-.042s0-.036,0-.052l.062-.224.026-.063.031-.115c.026-.073.052-.151.083-.224a.617.617,0,0,1,.042-.1l.063-.146c.063-.146.135-.286.2-.427a4.319,4.319,0,0,1,.214-.38,9.1,9.1,0,0,1,.688-.99Zm5.678,18.023H441.4a.646.646,0,0,1-.318,0h-.052a.663.663,0,0,1-.094-.031.736.736,0,0,1-.214-.13l-.078-.073a1.947,1.947,0,0,1-.375-.594,1.913,1.913,0,0,0-.115.609.974.974,0,0,0,.474.912,1.769,1.769,0,0,1,.495.49h0a.037.037,0,0,0,0-.031h0a.153.153,0,0,1,0-.047.086.086,0,0,1,0-.036,2.833,2.833,0,0,1,.224-.62l.109-.214.047-.068a.9.9,0,0,1,.068-.12l.047-.073.078-.125a.927.927,0,0,1-.266.151Zm-5.678-18.023-.677-1.49-.271.073.708,1.485,5.1,10.757a6.567,6.567,0,0,0-1.563,3.646,2.453,2.453,0,0,0,.13.776c.26.761.583,1.068.875,1.151v-.13a3.213,3.213,0,0,1,0-.521.277.277,0,0,1,0-.068v-.073h0a.117.117,0,0,0,0-.042h0a.131.131,0,0,1,0-.042h0a.293.293,0,0,1,0-.062h0a.808.808,0,0,1,.026-.12.112.112,0,0,1,0-.042s0-.036,0-.052l.062-.224.026-.062.031-.115c.026-.073.052-.151.083-.224a.618.618,0,0,1,.042-.1l.063-.146c.063-.146.135-.286.2-.427a4.319,4.319,0,0,1,.214-.38,9.094,9.094,0,0,1,.688-.99Zm5.678,18.023H441.4a.646.646,0,0,1-.318,0h-.052a.663.663,0,0,1-.094-.031.736.736,0,0,1-.214-.13l-.078-.073a1.947,1.947,0,0,1-.375-.594,1.913,1.913,0,0,0-.115.609.974.974,0,0,0,.474.912,1.769,1.769,0,0,1,.495.49h0a.037.037,0,0,0,0-.031h0a.128.128,0,0,1,0-.042.121.121,0,0,1,0-.042,2.833,2.833,0,0,1,.224-.62l.109-.214.047-.068a.89.89,0,0,1,.068-.12l.047-.073.078-.125a.928.928,0,0,1-.266.151Zm-5.678-18.023-.677-1.49-.271.073.708,1.485,5.1,10.757a6.567,6.567,0,0,0-1.563,3.646,2.453,2.453,0,0,0,.13.776c.26.761.583,1.068.875,1.151v-.13a3.213,3.213,0,0,1,0-.521.277.277,0,0,1,0-.068v-.073h0a.117.117,0,0,0,0-.042h0a.131.131,0,0,1,0-.042h0a.293.293,0,0,1,0-.062h0a.808.808,0,0,1,.026-.12.112.112,0,0,1,0-.042s0-.036,0-.052l.062-.224.026-.062.031-.115c.026-.073.052-.151.083-.224a.618.618,0,0,1,.042-.1l.063-.146c.063-.146.135-.286.2-.427a4.319,4.319,0,0,1,.214-.38,9.094,9.094,0,0,1,.688-.99Zm5.678,18.023H441.4a.646.646,0,0,1-.318,0h-.052a.663.663,0,0,1-.094-.031.736.736,0,0,1-.214-.13l-.078-.073a1.947,1.947,0,0,1-.375-.594,1.913,1.913,0,0,0-.115.609.974.974,0,0,0,.474.912,1.769,1.769,0,0,1,.495.49h0a.037.037,0,0,0,0-.031h0a.128.128,0,0,1,0-.042.121.121,0,0,1,0-.042,2.833,2.833,0,0,1,.224-.62l.109-.214.047-.068a.89.89,0,0,1,.068-.12l.047-.073.078-.125a.928.928,0,0,1-.266.151Zm-5.678-18.023-.677-1.49-.271.073.708,1.485,5.1,10.757a6.567,6.567,0,0,0-1.563,3.646,2.453,2.453,0,0,0,.13.776c.26.761.583,1.068.875,1.151v-.13a3.213,3.213,0,0,1,0-.521.277.277,0,0,1,0-.068v-.073h0a.117.117,0,0,0,0-.042h0a.131.131,0,0,1,0-.042h0a.293.293,0,0,1,0-.062h0a.808.808,0,0,1,.026-.12.112.112,0,0,1,0-.042s0-.036,0-.052l.062-.224.026-.062.031-.115c.026-.073.052-.151.083-.224a.618.618,0,0,1,.042-.1l.063-.146c.063-.146.135-.286.2-.427a4.319,4.319,0,0,1,.214-.38,9.094,9.094,0,0,1,.688-.99Zm5.678,18.023H441.4a.646.646,0,0,1-.318,0h-.052a.663.663,0,0,1-.094-.031.736.736,0,0,1-.214-.13l-.078-.073a1.947,1.947,0,0,1-.375-.594,1.913,1.913,0,0,0-.115.609.974.974,0,0,0,.474.912,1.769,1.769,0,0,1,.495.49h0a.037.037,0,0,0,0-.031h0a.128.128,0,0,1,0-.042.121.121,0,0,1,0-.042,2.833,2.833,0,0,1,.224-.62l.109-.214.047-.068a.89.89,0,0,1,.068-.12l.047-.073.078-.125a.928.928,0,0,1-.266.151Zm-5.678-18.023-.677-1.49-.271.073.708,1.485,5.1,10.757a6.567,6.567,0,0,0-1.563,3.646,2.453,2.453,0,0,0,.13.776c.26.761.583,1.068.875,1.151v-.13a3.213,3.213,0,0,1,0-.521.277.277,0,0,1,0-.068v-.073h0a.117.117,0,0,0,0-.042h0a.131.131,0,0,1,0-.042h0a.293.293,0,0,1,0-.062h0a.808.808,0,0,1,.026-.12.112.112,0,0,1,0-.042s0-.036,0-.052l.062-.224.026-.062.031-.115c.026-.073.052-.151.083-.224a.618.618,0,0,1,.042-.1l.063-.146c.063-.146.135-.286.2-.427a4.319,4.319,0,0,1,.214-.38,9.094,9.094,0,0,1,.688-.99Zm5.678,18.023H441.4a.646.646,0,0,1-.318,0h-.052a.663.663,0,0,1-.094-.031.736.736,0,0,1-.214-.13l-.078-.073a1.947,1.947,0,0,1-.375-.594,1.913,1.913,0,0,0-.115.609.974.974,0,0,0,.474.912,1.769,1.769,0,0,1,.495.49h0a.037.037,0,0,0,0-.031h0a.128.128,0,0,1,0-.042.121.121,0,0,1,0-.042,2.833,2.833,0,0,1,.224-.62l.109-.214.047-.068a.89.89,0,0,1,.068-.12l.047-.073.078-.125a.928.928,0,0,1-.266.151Zm-5.678-18.023-.677-1.49-.271.073.708,1.485,5.1,10.757a6.567,6.567,0,0,0-1.563,3.646,2.453,2.453,0,0,0,.13.776c.26.761.583,1.068.875,1.151v-.13a3.213,3.213,0,0,1,0-.521.277.277,0,0,1,0-.068v-.073h0a.117.117,0,0,0,0-.042h0a.131.131,0,0,1,0-.042h0a.293.293,0,0,1,0-.062h0a.808.808,0,0,1,.026-.12.112.112,0,0,1,0-.042s0-.036,0-.052l.062-.224.026-.062.031-.115c.026-.073.052-.151.083-.224a.618.618,0,0,1,.042-.1l.063-.146c.063-.146.135-.286.2-.427a4.319,4.319,0,0,1,.214-.38,9.094,9.094,0,0,1,.688-.99Zm5.678,18.023H441.4a.646.646,0,0,1-.318,0h-.052a.663.663,0,0,1-.094-.031.736.736,0,0,1-.214-.13l-.078-.073a1.947,1.947,0,0,1-.375-.594,1.913,1.913,0,0,0-.115.609.974.974,0,0,0,.474.912,1.769,1.769,0,0,1,.495.49h0a.037.037,0,0,0,0-.031h0a.128.128,0,0,1,0-.042.121.121,0,0,1,0-.042,2.833,2.833,0,0,1,.224-.62l.109-.214.047-.068a.89.89,0,0,1,.068-.12l.047-.073.078-.125a.928.928,0,0,1-.266.151Zm-5.678-18.023-.677-1.49-.271.073.708,1.485,5.1,10.757a6.567,6.567,0,0,0-1.563,3.646,2.453,2.453,0,0,0,.13.776c.26.761.583,1.068.875,1.151v-.13a3.213,3.213,0,0,1,0-.521.277.277,0,0,1,0-.068v-.073h0a.117.117,0,0,0,0-.042h0a.131.131,0,0,1,0-.042h0a.293.293,0,0,1,0-.062h0a.808.808,0,0,1,.026-.12.112.112,0,0,1,0-.042s0-.036,0-.052l.062-.224.026-.062.031-.115c.026-.073.052-.151.083-.224a.618.618,0,0,1,.042-.1l.063-.146c.063-.146.135-.286.2-.427a4.319,4.319,0,0,1,.214-.38,9.094,9.094,0,0,1,.688-.99Zm5.678,18.023H441.4a.646.646,0,0,1-.318,0h-.052a.663.663,0,0,1-.094-.031.736.736,0,0,1-.214-.13l-.078-.073a1.947,1.947,0,0,1-.375-.594,1.913,1.913,0,0,0-.115.609.974.974,0,0,0,.474.912,1.769,1.769,0,0,1,.495.49h0a.037.037,0,0,0,0-.031h0a.128.128,0,0,1,0-.042.121.121,0,0,1,0-.042,2.833,2.833,0,0,1,.224-.62l.109-.214.047-.068a.89.89,0,0,1,.068-.12l.047-.073.078-.125a.928.928,0,0,1-.266.151Zm-5.678-18.023-.677-1.49-.271.073.708,1.485,5.1,10.757a6.567,6.567,0,0,0-1.563,3.646,2.453,2.453,0,0,0,.13.776c.26.761.583,1.068.875,1.151v-.13a3.213,3.213,0,0,1,0-.521.277.277,0,0,1,0-.068v-.073h0a.117.117,0,0,0,0-.042h0a.131.131,0,0,1,0-.042h0a.293.293,0,0,1,0-.062h0a.808.808,0,0,1,.026-.12.112.112,0,0,1,0-.042s0-.036,0-.052l.062-.224.026-.062.031-.115c.026-.073.052-.151.083-.224a.618.618,0,0,1,.042-.1l.063-.146c.063-.146.135-.286.2-.427a4.319,4.319,0,0,1,.214-.38,9.094,9.094,0,0,1,.688-.99Zm5.678,18.023H441.4a.646.646,0,0,1-.318,0h-.052a.663.663,0,0,1-.094-.031.736.736,0,0,1-.214-.13l-.078-.073a1.947,1.947,0,0,1-.375-.594,1.913,1.913,0,0,0-.115.609.974.974,0,0,0,.474.912,1.769,1.769,0,0,1,.495.49h0a.037.037,0,0,0,0-.031h0a.128.128,0,0,1,0-.042.121.121,0,0,1,0-.042,2.833,2.833,0,0,1,.224-.62l.109-.214.047-.068a.89.89,0,0,1,.068-.12l.047-.073.078-.125a.928.928,0,0,1-.266.151Zm-5.678-18.023-.677-1.49-.271.073.708,1.485,5.1,10.757a6.567,6.567,0,0,0-1.563,3.646,2.453,2.453,0,0,0,.13.776c.26.761.583,1.068.875,1.151v-.13a3.213,3.213,0,0,1,0-.521.277.277,0,0,1,0-.068v-.073h0a.117.117,0,0,0,0-.042h0v-.026a.131.131,0,0,1,0-.042h0a.293.293,0,0,1,0-.062h0a.808.808,0,0,1,.026-.12.112.112,0,0,1,0-.042s0-.036,0-.052l.062-.224.026-.063.031-.115c.026-.073.052-.151.083-.224a.617.617,0,0,1,.042-.1l.063-.146c.063-.146.135-.286.2-.427a4.319,4.319,0,0,1,.214-.38,9.1,9.1,0,0,1,.688-.99Zm5.678,18.023H441.4a.646.646,0,0,1-.318,0h-.052a.334.334,0,0,1-.094-.031.736.736,0,0,1-.214-.13l-.078-.073a1.947,1.947,0,0,1-.375-.594,1.913,1.913,0,0,0-.115.609.974.974,0,0,0,.474.912,1.769,1.769,0,0,1,.495.49h0a.212.212,0,0,1,0-.083.121.121,0,0,1,0-.042,2.833,2.833,0,0,1,.224-.62l.109-.214.115-.188.047-.073.078-.125a.929.929,0,0,1-.266.161Zm-1.146-3.235c.026-.073.052-.151.083-.224s.026-.073.042-.1a.725.725,0,0,1,.062-.146c.063-.146.135-.286.2-.427a4.274,4.274,0,0,1,.214-.38,9.087,9.087,0,0,1,.688-.99l-5.8-12.5-.7-1.505-.271.073.708,1.485,5.1,10.757a6.567,6.567,0,0,0-1.563,3.646,2.453,2.453,0,0,0,.13.776c.26.761.583,1.068.875,1.151v-.13a3.213,3.213,0,0,1,0-.521.318.318,0,0,1,0-.068v-.073a1.144,1.144,0,0,1,0-.13h0l.031-.156v-.13l.063-.224A1.031,1.031,0,0,0,440.284,335.816Zm78.4-73.014a4.407,4.407,0,0,0-2.479-1.589,3.719,3.719,0,0,0-2.849.656c.234-.255,1.526-1.662,2.6-3.052,1.281-1.63,2.3-3.245,1.042-2.98-2.422.521-6.9,5.933-6.9,5.933l-.917,1.636h0l-2.657,4.745-.281.521a14.289,14.289,0,0,0-2.662.328l-.3.4a7.446,7.446,0,0,0-1.354,2.568c-.125,1.042-4.474,2.964-6.251,4s-3.448,4.386-3.448,4.386-5.881.521-7.543,2.084c-1.162,1.083-4,1.094-5.61,1h0l-.411-.026c-.458-.031-.745-.068-.745-.068s-1.662-1.808-2.938-1.938a12.774,12.774,0,0,0-2.427,0s-.672-.224-1.646-.521l-.271-.078c-.229-.062-.474-.13-.734-.193l-.2-.052a3.136,3.136,0,0,0,.266-.328,3.079,3.079,0,0,0,.349-.641h0a2.606,2.606,0,0,0,.162-1.365,3.929,3.929,0,0,0-.547-1.375c-.161-.255-.328-.521-.484-.766a12.017,12.017,0,0,1-1.6-4.532h0a12.325,12.325,0,0,1,1.177-7.47,17.873,17.873,0,0,1,1.042-1.735l.589-.828.37-.521.411-.578h0l.4-.557a14.619,14.619,0,0,0,1.505-2.631c.083-.182.146-.37.219-.557a.679.679,0,0,1,.057-.193c.021-.063.083-.255.115-.38s.042-.151.057-.229a2.893,2.893,0,0,0,.083-.354,1.274,1.274,0,0,1,.052-.245c.016-.078.042-.234.057-.349a.912.912,0,0,1,.036-.255l.031-.349a1.974,1.974,0,0,0,0-.245h0v-1.417a1.258,1.258,0,0,0-.037-.349c-.036-.12,0-.193-.036-.292a1.166,1.166,0,0,1-.042-.3l-.062-.3a1.241,1.241,0,0,0-.057-.276l-.078-.313a1.131,1.131,0,0,0-.068-.26c-.021-.083-.068-.214-.1-.313a2.354,2.354,0,0,0-.089-.25c-.036-.1-.068-.208-.115-.313s-.063-.151-.089-.224a9.558,9.558,0,0,0-1.094-1.933l-.761-.948h0l-.2-.255a1.123,1.123,0,0,0-.073-.135c-.047-.089-.094-.177-.135-.271-.385-.76-.7-1.563-1.016-2.36-.089-.245-.193-.484-.292-.729,0-.052-.042-.1-.057-.156-.156-.375-.318-.74-.49-1.1-.13-.271-.271-.521-.411-.8-.047-.083-.094-.161-.135-.245l-.328-.521-.161-.26-.349-.521-.156-.224c-.167-.234-.333-.464-.521-.693h0c-.182-.24-.38-.474-.568-.708l-.156-.177-.453-.521-.177-.2-.474-.521-.161-.167c-.74-.766-1.521-1.505-2.318-2.229l-.412-.37h0l-1.448-1.287-.521-.432c-.151-.135-.318-.271-.474-.4a13.022,13.022,0,0,0-3.646-2.354,11.631,11.631,0,0,0-5.386-.552,18.331,18.331,0,0,0-8.209,2.87c-.2.125-.385.26-.578.4a15.236,15.236,0,0,0-2.922,2.724c-.146.172-.281.349-.417.521s-.229.318-.344.484a30.365,30.365,0,0,0-2.912,6.2c-2.828,7.5-5.7,15.236-6.1,23.17a2.08,2.08,0,0,1-.026.4q-.062,1.5,0,3.016h0a.4.4,0,0,0,0,.078,3.717,3.717,0,0,0,.031.589c.187,2.99.781,5.98,1.229,8.959l-.307.109a6.692,6.692,0,0,0-4.323,4.167.063.063,0,0,1,0,.026h0a4.451,4.451,0,0,1,.052.693,9.7,9.7,0,0,1-1.36,4.813l-.229.385h0a7.226,7.226,0,0,0-1.333,3.9,2.182,2.182,0,0,0,.177.865h0v.047a.632.632,0,0,0,0,.094v.047h0a10.417,10.417,0,0,1-1.849,3.282c-1.276,1.422-4.73,15.481-4.73,15.481a2.714,2.714,0,0,1,.229,1.125h0a2.2,2.2,0,0,1-.214.9h0a1.61,1.61,0,0,0,.188,1.443h0a5.412,5.412,0,0,0,.833,1.125s.771-.255-.521,1.162l-.078.094h0a1.5,1.5,0,0,0,.1,1.87,5.063,5.063,0,0,0,1.141,1.136s10.475,18.049,12.647,19.987,4.344,6.964,4.344,6.964.219-.349.578-.891c.167-.271.385-.589.609-.932l.667.87h0l1.349,1.766-.521,1.016h0a23.741,23.741,0,0,0-1.391,3.125.776.776,0,0,0-.036.286,1.135,1.135,0,0,0,.344.74c-2.6,3.417-8.8,12.918-8.334,24.618h0v.4a31.38,31.38,0,0,0,3.032,11.783,25.184,25.184,0,0,1,.26,3.537h0a1.6,1.6,0,0,1-.135.7,3.735,3.735,0,0,0,.047,1.438h0c.344,2.568,1.5,7.579,1.5,7.579v2.641c.057,4.475.151,13.257-.036,15.158-.109,1.094-.219,1.974-.307,2.6-.125.9-.2,1.37-.2,1.37s-.047.328-.12.922c0,.214-.057.458-.089.74-.427,3.521-1.412,12.069-2,20.081,0,.349-.052.7-.073,1.042-.3,4.271-.458,8.334-.344,11.272v.443c.031.75.088,1.422.167,2,.261,1.875.49,4.079.677,6.365a7.1,7.1,0,0,0,.068.74c.333,4.167.578,8.543.724,11.7v.615a.578.578,0,0,0,0,.135.194.194,0,0,0,0,.057v2.12a8.154,8.154,0,0,0,.031.9,5.562,5.562,0,0,0,.031.662v.073h0a.088.088,0,0,1,0,.036v.063l.438,3.646,2.261,18.409.688,5.8,1.469,12.538,5.261-.995.052.573.177,1.943h0l1.469-.141c0,.188-.026.375-.036.563-.25,4.355-.167,8.762-.167,8.762h.057c1.61.3,3.162.521,4.688.656v4.542H450.7l-.318-3.9-.042-.474h.047a51.4,51.4,0,0,0,9.715-.344l.292-.036.391.448,3.719,4.261a58.662,58.662,0,0,0,13.674-1.042c4.808-1.042,9.829-5.777,10.006-7.558h0c.063-.583-.406-.849-1.563-.563-3.438.844-9.3,0-12.246-.521-.651-1.5-2.526-5.808-3.985-9.241l-.224-.521c2.151-1.625,3.8-3.7,4.021-4.782.141-.646-.229-.938-1.3-.568a15.024,15.024,0,0,1-3.943.646h-.521a.673.673,0,0,0,.068-.1,8.12,8.12,0,0,0,1.1-5.266,17.929,17.929,0,0,0-.25-2h0v-.109a23.785,23.785,0,0,0-.625-2.563.53.53,0,0,0-.047-.161c-.1-.3-.161-.464-.161-.464s1.453-10.168,1.927-17.445a40.244,40.244,0,0,0,.083-5.662h0a.069.069,0,0,0,0-.031,3.126,3.126,0,0,0-.344-1.365,2.824,2.824,0,0,1-.432-1.042.088.088,0,0,0,0-.036c-.646-2.886.807-8.855,1.563-10.418a13.382,13.382,0,0,0,.63-1.563,25.066,25.066,0,0,0,1.422-6.329,16.076,16.076,0,0,1,.766-4.125c2.37-3.407,3.047-8.152,3.209-11.408a31.329,31.329,0,0,0,0-3.688,142.669,142.669,0,0,1,.792-16.268c.115-1.042.25-2.084.4-3.157.234-1.636.521-3.261.854-4.824,1.011-4.688.583-13.09-.208-21.086,0-.234-.047-.464-.068-.693a.2.2,0,0,1,0-.052c-.792-7.761-1.912-15-2.37-17.877h0c-.141-.828-.219-1.3-.219-1.3a24.565,24.565,0,0,0,.917-5.594h0a5.1,5.1,0,0,0-.474-2.506,2.3,2.3,0,0,1-.286-.766h0a.588.588,0,0,1,0-.1,12.5,12.5,0,0,1-.1-2.912h0a10.265,10.265,0,0,1,.083-1.042v-.1l.062-.625c.047-.365.083-.724.135-1.083a4.354,4.354,0,0,0,.443-.219,3.433,3.433,0,0,0,.693-.484c2.318-2.084,2.6-7.423,2.245-12.845a.2.2,0,0,1,0-.052v-.151a103.029,103.029,0,0,0-2.084-13.543h0a.909.909,0,0,0,0-.115c-.083-.281-.13-.464-.13-.464s0-3.813-.224-7.48a.252.252,0,0,1,0-.062v-.094c-.193-3.021-.521-5.9-1.172-6.423a4.005,4.005,0,0,1-.74-2.3v-.036a.53.53,0,0,1,0-.089,51.866,51.866,0,0,1,0-7.642,15.107,15.107,0,0,0,2.005-6.579h0a10.7,10.7,0,0,0-.036-1.255.648.648,0,0,0-.031-.245,3.236,3.236,0,0,0-.057-.4,7.252,7.252,0,0,0-.354-1.4q.656-.115,1.391-.3l.411-.1h0c6.824-1.75,17.523-6.772,19.669-7.506,2.943-1.042,3.834-5.287,3.834-5.287s.271-.229.719-.646a35.417,35.417,0,0,0,5.9-7.173h0a21.223,21.223,0,0,0,1.974-4.115h0a15.281,15.281,0,0,0,.6-2.24,7.071,7.071,0,0,0,.1-.745h0v-.094l.495-.443h0c2.292-2.084,5.594-5.386,6.475-7.871A2.68,2.68,0,0,0,518.684,262.8ZM450.837,451.668c-.042,1.193-.125,2.3-.2,3.24h0c-.161,1.86-.333,3.084-.333,3.084a2.136,2.136,0,0,0-.37.4,5.112,5.112,0,0,0-.568,1.136l-.125-3.089S450.04,454.455,450.837,451.668ZM432.71,320.043c-.037-.12-.078-.234-.115-.354h0l.573-.115h0c.484-.094.953-.214,1.432-.349l.182.385.708,1.485,5.1,10.757a6.567,6.567,0,0,0-1.563,3.646,2.451,2.451,0,0,0,.13.776c.26.76.583,1.068.875,1.151h0a.865.865,0,0,0,.75-.177,4.371,4.371,0,0,0-.521.969h0a1.914,1.914,0,0,0-.115.61.974.974,0,0,0,.474.912,1.77,1.77,0,0,1,.495.49h0a2.252,2.252,0,0,1,.344,1.011h0v.036h0a2.751,2.751,0,0,1,0,.286c0,.063,0,.115,0,.167l-.682-.2-1.505-.448a1.844,1.844,0,0,1,.813-.583l-4.647-10.21s-.984-4.4-2.271-8.741ZM443.128,525.61l-.1-.521-.026-.156.2-.036a1.551,1.551,0,0,0,0,.162,2.352,2.352,0,0,0-.094.552Zm-7.376-204.583-.677-1.49-.271.073.708,1.485,5.1,10.757a6.567,6.567,0,0,0-1.563,3.646,2.453,2.453,0,0,0,.13.776c.26.761.583,1.068.875,1.151v-.13a3.213,3.213,0,0,1,0-.521.277.277,0,0,1,0-.068v-.073h0a.117.117,0,0,0,0-.042h0a.047.047,0,0,1,0-.026.131.131,0,0,1,0-.042h0a.293.293,0,0,1,0-.062h0a.464.464,0,0,0,0-.083v-.073h0v-.052l.063-.224.026-.063.031-.115c.026-.073.052-.151.083-.224s.026-.073.042-.1a.724.724,0,0,1,.063-.146c.063-.146.135-.286.2-.427a4.289,4.289,0,0,1,.214-.38,9.091,9.091,0,0,1,.688-.99Zm5.678,18.023H441.4a.646.646,0,0,1-.318,0h-.052a.663.663,0,0,1-.094-.031.736.736,0,0,1-.214-.13l-.078-.073a1.947,1.947,0,0,1-.375-.594,1.913,1.913,0,0,0-.115.609.974.974,0,0,0,.474.912,1.769,1.769,0,0,1,.495.49h0a.212.212,0,0,1,0-.083.121.121,0,0,1,0-.042,2.833,2.833,0,0,1,.224-.62l.109-.214.047-.068a.9.9,0,0,1,.068-.12l.047-.073.078-.125a.928.928,0,0,1-.266.161Zm-5.678-18.023-.677-1.49-.271.073.708,1.485,5.1,10.757a6.567,6.567,0,0,0-1.563,3.646,2.453,2.453,0,0,0,.13.776c.26.761.583,1.068.875,1.151v-.13a3.213,3.213,0,0,1,0-.521.277.277,0,0,1,0-.068v-.073h0a.117.117,0,0,0,0-.042h0a.131.131,0,0,1,0-.042h0a.293.293,0,0,1,0-.062h0a.808.808,0,0,1,.026-.12.112.112,0,0,1,0-.042s0-.036,0-.052l.062-.224.026-.062.031-.115c.026-.073.052-.151.083-.224a.618.618,0,0,1,.042-.1l.063-.146c.063-.146.135-.286.2-.427a4.319,4.319,0,0,1,.214-.38,9.094,9.094,0,0,1,.688-.99Zm5.678,18.023H441.4a.646.646,0,0,1-.318,0h-.052a.663.663,0,0,1-.094-.031.736.736,0,0,1-.214-.13l-.078-.073a1.947,1.947,0,0,1-.375-.594,1.913,1.913,0,0,0-.115.609.974.974,0,0,0,.474.912,1.769,1.769,0,0,1,.495.49h0a.037.037,0,0,0,0-.031h0a.128.128,0,0,1,0-.042.121.121,0,0,1,0-.042,2.833,2.833,0,0,1,.224-.62l.109-.214.047-.068a.89.89,0,0,1,.068-.12l.047-.073.078-.125a.928.928,0,0,1-.266.151Zm-5.678-18.023-.677-1.49-.271.073.708,1.485,5.1,10.757a6.567,6.567,0,0,0-1.563,3.646,2.453,2.453,0,0,0,.13.776c.26.761.583,1.068.875,1.151v-.13a3.213,3.213,0,0,1,0-.521.277.277,0,0,1,0-.068v-.073h0a.117.117,0,0,0,0-.042h0a.131.131,0,0,1,0-.042h0a.293.293,0,0,1,0-.062h0a.808.808,0,0,1,.026-.12.112.112,0,0,1,0-.042s0-.036,0-.052l.062-.224.026-.062.031-.115c.026-.073.052-.151.083-.224a.618.618,0,0,1,.042-.1l.063-.146c.063-.146.135-.286.2-.427a4.319,4.319,0,0,1,.214-.38,9.094,9.094,0,0,1,.688-.99Zm5.678,18.023H441.4a.646.646,0,0,1-.318,0h-.052a.663.663,0,0,1-.094-.031.736.736,0,0,1-.214-.13l-.078-.073a1.947,1.947,0,0,1-.375-.594,1.913,1.913,0,0,0-.115.609.974.974,0,0,0,.474.912,1.769,1.769,0,0,1,.495.49h0a.037.037,0,0,0,0-.031h0a.128.128,0,0,1,0-.042.121.121,0,0,1,0-.042,2.833,2.833,0,0,1,.224-.62l.109-.214.047-.068a.89.89,0,0,1,.068-.12l.047-.073.078-.125a.928.928,0,0,1-.266.151Zm-5.678-18.023-.677-1.49-.271.073.708,1.485,5.1,10.757a6.567,6.567,0,0,0-1.563,3.646,2.453,2.453,0,0,0,.13.776c.26.761.583,1.068.875,1.151v-.13a3.213,3.213,0,0,1,0-.521.277.277,0,0,1,0-.068v-.073h0a.117.117,0,0,0,0-.042h0a.131.131,0,0,1,0-.042h0a.293.293,0,0,1,0-.062h0a.808.808,0,0,1,.026-.12.112.112,0,0,1,0-.042s0-.036,0-.052l.062-.224.026-.062.031-.115c.026-.073.052-.151.083-.224a.618.618,0,0,1,.042-.1l.063-.146c.063-.146.135-.286.2-.427a4.319,4.319,0,0,1,.214-.38,9.094,9.094,0,0,1,.688-.99Zm5.678,18.023H441.4a.646.646,0,0,1-.318,0h-.052a.663.663,0,0,1-.094-.031.736.736,0,0,1-.214-.13l-.078-.073a1.947,1.947,0,0,1-.375-.594,1.913,1.913,0,0,0-.115.609.974.974,0,0,0,.474.912,1.769,1.769,0,0,1,.495.49h0a.037.037,0,0,0,0-.031h0a.128.128,0,0,1,0-.042.121.121,0,0,1,0-.042,2.833,2.833,0,0,1,.224-.62l.109-.214.047-.068a.89.89,0,0,1,.068-.12l.047-.073.078-.125a.928.928,0,0,1-.266.151Zm-5.678-18.023-.677-1.49-.271.073.708,1.485,5.1,10.757a6.567,6.567,0,0,0-1.563,3.646,2.453,2.453,0,0,0,.13.776c.26.761.583,1.068.875,1.151v-.13a3.213,3.213,0,0,1,0-.521.277.277,0,0,1,0-.068v-.073h0a.117.117,0,0,0,0-.042h0a.131.131,0,0,1,0-.042h0a.293.293,0,0,1,0-.062h0a.808.808,0,0,1,.026-.12.112.112,0,0,1,0-.042s0-.036,0-.052l.062-.224.026-.062.031-.115c.026-.073.052-.151.083-.224a.618.618,0,0,1,.042-.1l.063-.146c.063-.146.135-.286.2-.427a4.319,4.319,0,0,1,.214-.38,9.094,9.094,0,0,1,.688-.99Zm5.678,18.023H441.4a.646.646,0,0,1-.318,0h-.052a.663.663,0,0,1-.094-.031.736.736,0,0,1-.214-.13l-.078-.073a1.947,1.947,0,0,1-.375-.594,1.913,1.913,0,0,0-.115.609.974.974,0,0,0,.474.912,1.769,1.769,0,0,1,.495.49h0a.037.037,0,0,0,0-.031h0a.128.128,0,0,1,0-.042.121.121,0,0,1,0-.042,2.833,2.833,0,0,1,.224-.62l.109-.214.047-.068a.89.89,0,0,1,.068-.12l.047-.073.078-.125a.928.928,0,0,1-.266.151Zm-5.678-18.023-.677-1.49-.271.073.708,1.485,5.1,10.757a6.567,6.567,0,0,0-1.563,3.646,2.453,2.453,0,0,0,.13.776c.26.761.583,1.068.875,1.151v-.13a3.213,3.213,0,0,1,0-.521.277.277,0,0,1,0-.068v-.073h0a.117.117,0,0,0,0-.042h0a.131.131,0,0,1,0-.042h0a.293.293,0,0,1,0-.062h0a.808.808,0,0,1,.026-.12.112.112,0,0,1,0-.042s0-.036,0-.052l.062-.224.026-.062.031-.115c.026-.073.052-.151.083-.224a.618.618,0,0,1,.042-.1l.063-.146c.063-.146.135-.286.2-.427a4.319,4.319,0,0,1,.214-.38,9.094,9.094,0,0,1,.688-.99Zm5.678,18.023H441.4a.646.646,0,0,1-.318,0h-.052a.663.663,0,0,1-.094-.031.736.736,0,0,1-.214-.13l-.078-.073a1.947,1.947,0,0,1-.375-.594,1.913,1.913,0,0,0-.115.609.974.974,0,0,0,.474.912,1.769,1.769,0,0,1,.495.49h0a.037.037,0,0,0,0-.031h0a.128.128,0,0,1,0-.042.121.121,0,0,1,0-.042,2.833,2.833,0,0,1,.224-.62l.109-.214.047-.068a.89.89,0,0,1,.068-.12l.047-.073.078-.125a.928.928,0,0,1-.266.151Zm-5.678-18.023-.677-1.49-.271.073.708,1.485,5.1,10.757a6.567,6.567,0,0,0-1.563,3.646,2.453,2.453,0,0,0,.13.776c.26.761.583,1.068.875,1.151v-.13a3.213,3.213,0,0,1,0-.521.277.277,0,0,1,0-.068v-.073h0a.117.117,0,0,0,0-.042h0a.131.131,0,0,1,0-.042h0a.293.293,0,0,1,0-.062h0a.808.808,0,0,1,.026-.12.112.112,0,0,1,0-.042s0-.036,0-.052l.062-.224.026-.062.031-.115c.026-.073.052-.151.083-.224a.618.618,0,0,1,.042-.1l.063-.146c.063-.146.135-.286.2-.427a4.319,4.319,0,0,1,.214-.38,9.094,9.094,0,0,1,.688-.99Zm5.678,18.023H441.4a.646.646,0,0,1-.318,0h-.052a.663.663,0,0,1-.094-.031.736.736,0,0,1-.214-.13l-.078-.073a1.947,1.947,0,0,1-.375-.594,1.913,1.913,0,0,0-.115.609.974.974,0,0,0,.474.912,1.769,1.769,0,0,1,.495.49h0a.037.037,0,0,0,0-.031h0a.128.128,0,0,1,0-.042.121.121,0,0,1,0-.042,2.833,2.833,0,0,1,.224-.62l.109-.214.047-.068a.89.89,0,0,1,.068-.12l.047-.073.078-.125a.928.928,0,0,1-.266.151Zm-5.678-18.023-.677-1.49-.271.073.708,1.485,5.1,10.757a6.567,6.567,0,0,0-1.563,3.646,2.453,2.453,0,0,0,.13.776c.26.761.583,1.068.875,1.151v-.13a3.213,3.213,0,0,1,0-.521.277.277,0,0,1,0-.068v-.073h0a.117.117,0,0,0,0-.042h0a.131.131,0,0,1,0-.042h0a.293.293,0,0,1,0-.062h0a.808.808,0,0,1,.026-.12.112.112,0,0,1,0-.042s0-.036,0-.052l.062-.224.026-.062.031-.115c.026-.073.052-.151.083-.224a.618.618,0,0,1,.042-.1l.063-.146c.063-.146.135-.286.2-.427a4.319,4.319,0,0,1,.214-.38,9.094,9.094,0,0,1,.688-.99Zm5.678,18.023H441.4a.646.646,0,0,1-.318,0h-.052a.663.663,0,0,1-.094-.031.736.736,0,0,1-.214-.13l-.078-.073a1.947,1.947,0,0,1-.375-.594,1.913,1.913,0,0,0-.115.609.974.974,0,0,0,.474.912,1.769,1.769,0,0,1,.495.49h0a.037.037,0,0,0,0-.031h0a.128.128,0,0,1,0-.042.121.121,0,0,1,0-.042,2.833,2.833,0,0,1,.224-.62l.109-.214.047-.068a.89.89,0,0,1,.068-.12l.047-.073.078-.125a.928.928,0,0,1-.266.151Zm-5.678-18.023-.677-1.49-.271.073.708,1.485,5.1,10.757a6.567,6.567,0,0,0-1.563,3.646,2.453,2.453,0,0,0,.13.776c.26.761.583,1.068.875,1.151v-.13a3.213,3.213,0,0,1,0-.521.277.277,0,0,1,0-.068v-.073h0a.117.117,0,0,0,0-.042h0a.131.131,0,0,1,0-.042h0a.293.293,0,0,1,0-.062h0a.808.808,0,0,1,.026-.12.112.112,0,0,1,0-.042s0-.036,0-.052l.062-.224.026-.062.031-.115c.026-.073.052-.151.083-.224a.618.618,0,0,1,.042-.1l.063-.146c.063-.146.135-.286.2-.427a4.319,4.319,0,0,1,.214-.38,9.094,9.094,0,0,1,.688-.99Zm5.678,18.023H441.4a.646.646,0,0,1-.318,0h-.052a.663.663,0,0,1-.094-.031.736.736,0,0,1-.214-.13l-.078-.073a1.947,1.947,0,0,1-.375-.594,1.913,1.913,0,0,0-.115.609.974.974,0,0,0,.474.912,1.769,1.769,0,0,1,.495.49h0a.037.037,0,0,0,0-.031h0a.153.153,0,0,1,0-.047.086.086,0,0,1,0-.036,2.833,2.833,0,0,1,.224-.62c.052-.1.1-.193.156-.281a.9.9,0,0,1,.068-.12l.047-.073.078-.125a.927.927,0,0,1-.266.151Zm-5.678-18.023-.677-1.49-.271.073.708,1.485,5.1,10.757a6.567,6.567,0,0,0-1.563,3.646,2.453,2.453,0,0,0,.13.776c.26.761.583,1.068.875,1.151v-.13a3.213,3.213,0,0,1,0-.521.277.277,0,0,1,0-.068v-.073h0a.117.117,0,0,0,0-.042h0v-.026a.131.131,0,0,1,0-.042h0a.293.293,0,0,1,0-.062h0a.808.808,0,0,1,.026-.12.112.112,0,0,1,0-.042s0-.036,0-.052l.062-.224.026-.063.031-.115c.026-.073.052-.151.083-.224a.617.617,0,0,1,.042-.1l.063-.146c.063-.146.135-.286.2-.427a4.319,4.319,0,0,1,.214-.38,9.1,9.1,0,0,1,.688-.99Zm5.678,18.023H441.4a.646.646,0,0,1-.318,0h-.052a.663.663,0,0,1-.094-.031.736.736,0,0,1-.214-.13l-.078-.073a1.947,1.947,0,0,1-.375-.594,1.913,1.913,0,0,0-.115.609.974.974,0,0,0,.474.912,1.769,1.769,0,0,1,.495.49h0a.037.037,0,0,0,0-.031h0a.153.153,0,0,1,0-.047.086.086,0,0,1,0-.036,2.833,2.833,0,0,1,.224-.62c.052-.1.1-.193.156-.281a.9.9,0,0,1,.068-.12l.047-.073.078-.125a.927.927,0,0,1-.266.151Z" transform="translate(-205.406 -125.8)"/><path class="v" d="M484.318,783.394s7.813.959,11.579-.344-1.167,5.6-6.287,7.235a48.913,48.913,0,0,1-11.116,1.886l-6.022-5.662-6.391.49,1.115,6.251-1.985.187-.771-8.2Z" transform="translate(-228.291 -391.507)"/><path class="t" d="M484.318,783.394s7.813.959,11.579-.344-1.167,5.6-6.287,7.235a48.913,48.913,0,0,1-11.116,1.886l-6.022-5.662-6.391.49,1.115,6.251-1.985.187-.771-8.2Z" transform="translate(-228.291 -391.507)"/><path class="v" d="M501.826,811.34s9.35,2.047,14.064.9-2.047,6.662-8.454,8.069a60.314,60.314,0,0,1-13.71,1.042l-6.631-7.579-7.813-.13.641,7.735H477.49V811.34Z" transform="translate(-234.543 -405.139)"/><path class="t" d="M501.826,811.34s9.35,2.047,14.064.9-2.047,6.662-8.454,8.069a60.314,60.314,0,0,1-13.71,1.042l-6.631-7.579-7.813-.13.641,7.735H477.49V811.34Z" transform="translate(-234.543 -405.139)"/><path class="r" d="M449.095,469.75s-16.012,17.8-6.407,37.916c0,0,.521,3.589.13,4.23s1.537,8.965,1.537,8.965.26,15.106,0,17.679-.521,3.969-.521,3.969-3.579,27.9-2.427,36.239,1.667,23.185,1.667,23.185l4.74,39.968,24.6-4.61-11.147-54.83-.385-9.736s4.615-11.913,2.563-17.935.521-82.755.521-82.755Z" transform="translate(-216.399 -241.482)"/><path class="p" d="M449.095,469.75s-16.012,17.8-6.407,37.916c0,0,.521,3.589.13,4.23s1.537,8.965,1.537,8.965.26,15.106,0,17.679-.521,3.969-.521,3.969-3.579,27.9-2.427,36.239,1.667,23.185,1.667,23.185l4.74,39.968,24.6-4.61-11.147-54.83-.385-9.736s4.615-11.913,2.563-17.935.521-82.755.521-82.755Z" transform="translate(-216.399 -241.482)"/><path class="r" d="M466.181,556.451c2.818,5.381,1.042,18.445,1.042,18.445-3.714,3.2-1.667,31.129-1.667,31.129s-2.563,27.545-4.225,30.733-1.412,16.4-1.412,16.4c18.83,3.459,31.129-3.969,31.129-3.969s-6.022-13.71-6.147-14.346c-.073-.359-.87.615-1.109.9.125-.172.453-.62,1.109-1.563,2.563-3.589,0-10.507,0-10.507s3.2-22.289,1.667-24.342.255-9.605,1.151-11.4a25.242,25.242,0,0,0,2.047-7.814,15.772,15.772,0,0,1,.771-4.094c3.969-5.641,3.2-14.991,3.2-14.991s-.255-13.45,2.047-24.081-2.875-40.74-2.875-40.74,1.724-5.891.443-8.069c-.578-.979-.521-3.287-.25-5.521.313-2.735.891-5.365.891-5.365l-34.947-6.2c-.734,1.224-1.406,2.412-2.026,3.553-11.559,21.357-3.766,29.3-3.766,29.3l7.418,22.862S463.352,551.076,466.181,556.451Z" transform="translate(-221.702 -242.105)"/><path class="w" d="M586.92,300.495l5,4.24s.979-.781,2.292-1.953c3.125-2.823,8.189-7.933,6.293-10.1-2.6-2.959-5.209-1.042-5.37-.906.281-.3,6.079-6.511,3.7-6.011s-6.918,5.9-6.918,5.9L588.326,298Z" transform="translate(-286.971 -153.32)"/><path class="w" d="M443.794,415.35l5.891,1.792-4.48,7.814-5.126-6.662Z" transform="translate(-210.843 -198.995)"/><circle class="w" cx="16.783" cy="16.783" r="16.783" transform="translate(230.003 109.383)"/><path class="w" d="M473.516,281.108s-15.247,24.2-.771,26.279-19.471,16.783-19.471,16.783L440.59,311.362s13.194-22.8,11.147-31.514S473.516,281.108,473.516,281.108Z" transform="translate(-216.864 -148.789)"/><path class="t" d="M462.82,474.673a79.323,79.323,0,0,0,10.329,2.391s18.877,8.381,25.753,5.626c.312-2.735.891-5.365.891-5.365l-34.947-6.2C464.112,472.344,463.435,473.532,462.82,474.673Z" transform="translate(-227.515 -242.139)"/><path class="s" d="M429.354,342.054l3.412,7.058,3.855,7.949.521,1.136,4.568,9.9,5.808,12.543s-2.052,2.433-1.412,4.355c.6,1.8,1.537,1.016,1.656.906-.109.151-1.349,1.818-.245,2.552s.766,2.433.766,2.433-4.74,7.813-5.636,10.632S457,406.771,457,406.771s21.649,9.605,27.029,4.865,0-27.029,0-27.029,0-12.809-1.412-13.96-.74-10.032-.74-10.032c3.714-6.772,1.151-10.632,1.151-10.632l1.042-17.419s-1.667-1.8-2.948-1.922a12.8,12.8,0,0,0-2.433,0s-.677-.229-1.651-.521c-2.052-.583-5.459-1.391-6.678-.781-1.792.9-13.319-1.412-13.319-1.412a141.012,141.012,0,0,0-14.991-1.406,14.834,14.834,0,0,0-5.084.552c-4.167,1.287-4.907,4.313-4.907,4.313a8.786,8.786,0,0,1-1.537,5.891C428.463,340.606,429.354,342.054,429.354,342.054Z" transform="translate(-211.389 -172.846)"/><path class="t" d="M586.92,311.763l5,4.24s.979-.781,2.292-1.953c.4-4.323-3.287-4.9-5.881-4.782Z" transform="translate(-286.971 -164.589)"/><path class="s" d="M527.57,324.665l2.177.13s5.12.635,6.772-.9,7.558-2.047,7.558-2.047,1.667-3.334,3.459-4.355,6.152-2.948,6.251-3.974,1.667-2.943,1.667-2.943,9.605-2.308,8.2,5.251-9.184,14.085-9.184,14.085-.9,4.23-3.844,5.256-22.034,9.991-25.107,7.683S527.57,324.665,527.57,324.665Z" transform="translate(-257.083 -165.062)"/><path class="t" d="M430.513,337.354a8.861,8.861,0,0,0,1.537-5.891s.74-3.026,4.907-4.313a12.676,12.676,0,0,1,2.5-.49c-4.1,1.3-4.839,4.292-4.839,4.292a8.786,8.786,0,0,1-1.537,5.891c-2.058,3.329-1.156,4.74-1.156,4.74l3.417,7.058,3.849,7.944.552,1.141,4.568,9.871,5.808,12.543s-2.052,2.438-1.412,4.36c.6,1.8,1.537,1.011,1.656.906-.109.146-1.349,1.818-.245,2.552s.766,2.433.766,2.433-4.74,7.813-5.636,10.632,14.351,5.251,14.351,5.251,15.033,6.673,23.159,6.152c-6.907,2.709-25.722-5.636-25.722-5.636s-15.247-2.438-14.351-5.256,5.636-10.626,5.636-10.626a2.443,2.443,0,0,0-.766-2.433c-1.151-.766.135-2.4.245-2.552-.12.109-1.042.891-1.656-.906-.641-1.922,1.412-4.355,1.412-4.355l-5.808-12.548-4.568-9.9-.521-1.135-3.855-7.949-3.412-7.058S428.461,340.688,430.513,337.354Z" transform="translate(-211.397 -172.927)"/><path class="s" d="M425.657,352.68l-2.3,1.922a10.58,10.58,0,0,1-1.922,3.459c-1.281,1.412-4.74,15.372-4.74,15.372a2.49,2.49,0,0,1,0,2.052c-.521,1.042,1.042,2.563,1.042,2.563s.766-.255-.521,1.151,1.156,3.084,1.156,3.084,10.5,17.924,12.679,19.846,4.355,6.918,4.355,6.918,4.563-7.157,5.636-7.293l-4.48-10.116s-3.079-14.1-5.381-16.669,1.151-11.408,1.151-11.408Z" transform="translate(-205.364 -185.394)"/><path class="t" d="M429.62,366.29c1.927,2.313,5.308,2.8,8.3,2.464.438-.052.88-.12,1.313-.2a19.123,19.123,0,0,0,1.943-.453,20.252,20.252,0,0,0,6.365-3.125,4.375,4.375,0,0,1,1.427-.823,3.013,3.013,0,0,1,3.037,1.63c.651,1.042.958,2.271,1.625,3.3a7.6,7.6,0,0,0,6.293,3.089,22.43,22.43,0,0,0,7.126-1.4c-1.88-2.313-3.808-4.719-4.574-7.6a18,18,0,0,1-.359-5.73c.552-9.064,3.7-18.617,11.09-23.9,1.281-.912,2.828-1.99,3.256-3.375-2.052-.583-5.459-1.391-6.678-.781-1.792.9-13.319-1.412-13.319-1.412a141.015,141.015,0,0,0-14.991-1.406,14.836,14.836,0,0,0-5.084.552c.63,3.849,1.177,7.678.422,11.46a25.664,25.664,0,0,1-2.537,6.746c-.656,1.276-1.365,2.532-2.084,3.792-1.948,3.506-3.808,7.022-4.167,10.939A8.755,8.755,0,0,0,429.62,366.29Z" transform="translate(-210.827 -172.87)"/><path class="t" d="M474.925,437a9.048,9.048,0,0,0-3-.26,5.521,5.521,0,0,0-2.245,1.307l6.584.036c1.693,0,4.245.1,5.542-1.094C480.619,435.815,476.618,437.222,474.925,437Z" transform="translate(-230.801 -225.56)"/><path class="d" d="M477.33,252.382a9.944,9.944,0,0,1,1.141,9.647c-1.042,2.474-3.089,4.412-4.334,6.8a12.252,12.252,0,0,0,.417,11.866,5.991,5.991,0,0,1,1.042,2.13c.3,1.953-1.724,3.355-3.334,4.506-7.4,5.272-10.538,14.83-11.09,23.9a17.969,17.969,0,0,0,.354,5.73c.766,2.881,2.7,5.287,4.579,7.6a22.432,22.432,0,0,1-7.131,1.4,7.6,7.6,0,0,1-6.292-3.089c-.667-1.042-.979-2.261-1.625-3.3a3.011,3.011,0,0,0-3.026-1.63,4.228,4.228,0,0,0-1.433.818,20.269,20.269,0,0,1-9.626,3.787c-2.99.344-6.371-.151-8.293-2.464a8.5,8.5,0,0,1-1.563-6.193c.667-7.756,7.235-13.856,8.756-21.492,1.229-6.188-1-12.5-1.406-18.784-.609-9.308,2.771-18.367,6.1-27.087a28.753,28.753,0,0,1,2.917-6.157,17.228,17.228,0,0,1,12.5-7.022,11.7,11.7,0,0,1,5.4.521,16.394,16.394,0,0,1,4.631,3.172c3.178,2.756,6.444,5.626,8.272,9.418.745,1.563,1.235,3.214,2.084,4.719Z" transform="translate(-210.386 -128.163)"/><g class="x" transform="translate(217.647 112.092)"><path d="M513.4,255.445c-.833-1.505-1.318-3.172-2.084-4.719a18.916,18.916,0,0,0-2.656-4.006,22.491,22.491,0,0,1,4.688,6.193c.724,1.5,1.208,3.125,1.995,4.589l-1.01-.854a8.516,8.516,0,0,1,.708,1.11A11.457,11.457,0,0,1,513.4,255.445Z" transform="translate(-467.124 -246.72)"/><path d="M435.8,396.135a20.184,20.184,0,0,0,9.626-3.782,4.335,4.335,0,0,1,1.432-.818,3.01,3.01,0,0,1,3.032,1.63c.135.219.255.453.37.688a2.083,2.083,0,0,0-1.349-.13,4.228,4.228,0,0,0-1.432.818,20.269,20.269,0,0,1-9.626,3.787c-2.99.344-6.371-.151-8.293-2.464a6.449,6.449,0,0,1-.636-.953A10.683,10.683,0,0,0,435.8,396.135Z" transform="translate(-428.92 -316.073)"/><path d="M480.24,340.352a22.457,22.457,0,0,0,7.126-1.4c-1.88-2.313-3.808-4.719-4.573-7.6a17.976,17.976,0,0,1-.359-5.73c.552-9.069,3.7-18.627,11.1-23.9,1.61-1.151,3.646-2.552,3.334-4.511a6.1,6.1,0,0,0-1.042-2.125,12.252,12.252,0,0,1-.422-11.866c1.25-2.386,3.282-4.323,4.339-6.8a9.98,9.98,0,0,0-.438-8.532,11.939,11.939,0,0,0,1.125,1.042,11.449,11.449,0,0,0,.927,1.136,9.976,9.976,0,0,1,.432,8.538c-1.042,2.474-3.089,4.412-4.334,6.8a12.251,12.251,0,0,0,.417,11.866,5.991,5.991,0,0,1,1.042,2.13c.3,1.953-1.724,3.355-3.334,4.506-7.4,5.271-10.538,14.83-11.09,23.9a17.97,17.97,0,0,0,.354,5.73c.766,2.881,2.7,5.287,4.579,7.6a22.431,22.431,0,0,1-7.131,1.4,7.6,7.6,0,0,1-6.292-3.089c-.089-.135-.167-.276-.245-.417A8.735,8.735,0,0,0,480.24,340.352Z" transform="translate(-451.356 -256.863)"/></g><path class="y" d="M292.686,179.57v10.939h-47.5q2.172-3.011,4.438-5.938c.208-.271.417-.521.635-.807l2.224-2.8h0l.307-.38h0l.807-.984Z" transform="translate(-123.248 -102.456)"/><rect class="y" width="49.907" height="10.928" transform="translate(217.803 77.114)"/><rect class="y" width="49.907" height="10.928" transform="translate(332.427 77.114)"/><rect class="y" width="49.907" height="10.928" transform="translate(429.371 77.114)"/></svg>